  0
SECTION
  2
HEADER
  9
$ACADVER
  1
AC1032
  9
$ACADMAINTVER
 90
      427
  9
$DWGCODEPAGE
  3
ANSI_949
  9
$LASTSAVEDBY
  1
sunwo
  9
$REQUIREDVERSIONS
160
                 0
  9
$INSBASE
 10
0.0
 20
0.0
 30
0.0
  9
$EXTMIN
 10
212.3784442622013
 20
-244.8086724933498
 30
0.0
  9
$EXTMAX
 10
299.620296031332
 20
-116.9805525871249
 30
0.0
  9
$LIMMIN
 10
0.0
 20
0.0
  9
$LIMMAX
 10
12.0
 20
9.0
  9
$ORTHOMODE
 70
     0
  9
$REGENMODE
 70
     1
  9
$FILLMODE
 70
     1
  9
$QTEXTMODE
 70
     0
  9
$MIRRTEXT
 70
     0
  9
$LTSCALE
 40
1.0
  9
$ATTMODE
 70
     1
  9
$TEXTSIZE
 40
0.2
  9
$TRACEWID
 40
0.05
  9
$TEXTSTYLE
  7
STANDARD
  9
$CLAYER
  8
0
  9
$CELTYPE
  6
Continuous
  9
$CECOLOR
 62
   256
  9
$CELTSCALE
 40
1.0
  9
$DISPSILH
 70
     0
  9
$DIMSCALE
 40
1.0
  9
$DIMASZ
 40
0.18
  9
$DIMEXO
 40
0.0625
  9
$DIMDLI
 40
0.38
  9
$DIMRND
 40
0.0
  9
$DIMDLE
 40
0.0
  9
$DIMEXE
 40
0.18
  9
$DIMTP
 40
0.0
  9
$DIMTM
 40
0.0
  9
$DIMTXT
 40
0.18
  9
$DIMCEN
 40
0.09
  9
$DIMTSZ
 40
0.0
  9
$DIMTOL
 70
     0
  9
$DIMLIM
 70
     0
  9
$DIMTIH
 70
     1
  9
$DIMTOH
 70
     1
  9
$DIMSE1
 70
     0
  9
$DIMSE2
 70
     0
  9
$DIMTAD
 70
     0
  9
$DIMZIN
 70
     0
  9
$DIMBLK
  1

  9
$DIMASO
 70
     1
  9
$DIMSHO
 70
     1
  9
$DIMPOST
  1

  9
$DIMAPOST
  1

  9
$DIMALT
 70
     0
  9
$DIMALTD
 70
     2
  9
$DIMALTF
 40
25.4
  9
$DIMLFAC
 40
1.0
  9
$DIMTOFL
 70
     0
  9
$DIMTVP
 40
0.0
  9
$DIMTIX
 70
     0
  9
$DIMSOXD
 70
     0
  9
$DIMSAH
 70
     0
  9
$DIMBLK1
  1

  9
$DIMBLK2
  1

  9
$DIMSTYLE
  2
Standard
  9
$DIMCLRD
 70
     0
  9
$DIMCLRE
 70
     0
  9
$DIMCLRT
 70
     0
  9
$DIMTFAC
 40
1.0
  9
$DIMGAP
 40
0.09
  9
$DIMJUST
 70
     0
  9
$DIMSD1
 70
     0
  9
$DIMSD2
 70
     0
  9
$DIMTOLJ
 70
     1
  9
$DIMTZIN
 70
     0
  9
$DIMALTZ
 70
     0
  9
$DIMALTTZ
 70
     0
  9
$DIMUPT
 70
     0
  9
$DIMDEC
 70
     4
  9
$DIMTDEC
 70
     4
  9
$DIMALTU
 70
     2
  9
$DIMALTTD
 70
     2
  9
$DIMTXSTY
  7
STANDARD
  9
$DIMAUNIT
 70
     0
  9
$DIMADEC
 70
     0
  9
$DIMALTRND
 40
0.0
  9
$DIMAZIN
 70
     0
  9
$DIMDSEP
 70
    46
  9
$DIMATFIT
 70
     3
  9
$DIMFRAC
 70
     0
  9
$DIMLDRBLK
  1

  9
$DIMLUNIT
 70
     2
  9
$DIMLWD
 70
    -2
  9
$DIMLWE
 70
    -2
  9
$DIMTMOVE
 70
     0
  9
$DIMFXL
 40
1.0
  9
$DIMFXLON
 70
     0
  9
$DIMJOGANG
 40
0.7853981633974483
  9
$DIMTFILL
 70
     0
  9
$DIMTFILLCLR
 70
     0
  9
$DIMARCSYM
 70
     0
  9
$DIMLTYPE
  6

  9
$DIMLTEX1
  6

  9
$DIMLTEX2
  6

  9
$DIMTXTDIRECTION
 70
     0
  9
$LUNITS
 70
     2
  9
$LUPREC
 70
     4
  9
$SKETCHINC
 40
0.1
  9
$FILLETRAD
 40
0.0
  9
$AUNITS
 70
     0
  9
$AUPREC
 70
     0
  9
$MENU
  1
.
  9
$ELEVATION
 40
0.0
  9
$PELEVATION
 40
0.0
  9
$THICKNESS
 40
0.0
  9
$LIMCHECK
 70
     0
  9
$CHAMFERA
 40
0.0
  9
$CHAMFERB
 40
0.0
  9
$CHAMFERC
 40
0.0
  9
$CHAMFERD
 40
0.0
  9
$SKPOLY
 70
     0
  9
$TDCREATE
 40
2461201.114976852
  9
$TDUCREATE
 40
2461200.739976852
  9
$TDUPDATE
 40
2461201.115868056
  9
$TDUUPDATE
 40
2461200.740868056
  9
$TDINDWG
 40
0.0008912037
  9
$TDUSRTIMER
 40
0.0008912037
  9
$USRTIMER
 70
     1
  9
$ANGBASE
 50
0.0
  9
$ANGDIR
 70
     0
  9
$PDMODE
 70
     0
  9
$PDSIZE
 40
0.0
  9
$PLINEWID
 40
0.0
  9
$SPLFRAME
 70
     0
  9
$SPLINETYPE
 70
     6
  9
$SPLINESEGS
 70
     8
  9
$HANDSEED
  5
1006C
  9
$SURFTAB1
 70
     6
  9
$SURFTAB2
 70
     6
  9
$SURFTYPE
 70
     6
  9
$SURFU
 70
     6
  9
$SURFV
 70
     6
  9
$UCSBASE
  2

  9
$UCSNAME
  2

  9
$UCSORG
 10
0.0
 20
0.0
 30
0.0
  9
$UCSXDIR
 10
1.0
 20
0.0
 30
0.0
  9
$UCSYDIR
 10
0.0
 20
1.0
 30
0.0
  9
$UCSORTHOREF
  2

  9
$UCSORTHOVIEW
 70
     0
  9
$UCSORGTOP
 10
0.0
 20
0.0
 30
0.0
  9
$UCSORGBOTTOM
 10
0.0
 20
0.0
 30
0.0
  9
$UCSORGLEFT
 10
0.0
 20
0.0
 30
0.0
  9
$UCSORGRIGHT
 10
0.0
 20
0.0
 30
0.0
  9
$UCSORGFRONT
 10
0.0
 20
0.0
 30
0.0
  9
$UCSORGBACK
 10
0.0
 20
0.0
 30
0.0
  9
$PUCSBASE
  2

  9
$PUCSNAME
  2

  9
$PUCSORG
 10
0.0
 20
0.0
 30
0.0
  9
$PUCSXDIR
 10
1.0
 20
0.0
 30
0.0
  9
$PUCSYDIR
 10
0.0
 20
1.0
 30
0.0
  9
$PUCSORTHOREF
  2

  9
$PUCSORTHOVIEW
 70
     0
  9
$PUCSORGTOP
 10
0.0
 20
0.0
 30
0.0
  9
$PUCSORGBOTTOM
 10
0.0
 20
0.0
 30
0.0
  9
$PUCSORGLEFT
 10
0.0
 20
0.0
 30
0.0
  9
$PUCSORGRIGHT
 10
0.0
 20
0.0
 30
0.0
  9
$PUCSORGFRONT
 10
0.0
 20
0.0
 30
0.0
  9
$PUCSORGBACK
 10
0.0
 20
0.0
 30
0.0
  9
$USERI1
 70
     0
  9
$USERI2
 70
     0
  9
$USERI3
 70
     0
  9
$USERI4
 70
     0
  9
$USERI5
 70
     0
  9
$USERR1
 40
0.0
  9
$USERR2
 40
0.0
  9
$USERR3
 40
0.0
  9
$USERR4
 40
0.0
  9
$USERR5
 40
0.0
  9
$WORLDVIEW
 70
     1
  9
$SHADEDGE
 70
     3
  9
$SHADEDIF
 70
    70
  9
$TILEMODE
 70
     1
  9
$MAXACTVP
 70
    64
  9
$PINSBASE
 10
0.0
 20
0.0
 30
0.0
  9
$PLIMCHECK
 70
     0
  9
$PEXTMIN
 10
1.000000000000000E+20
 20
1.000000000000000E+20
 30
1.000000000000000E+20
  9
$PEXTMAX
 10
-1.000000000000000E+20
 20
-1.000000000000000E+20
 30
-1.000000000000000E+20
  9
$PLIMMIN
 10
0.0
 20
0.0
  9
$PLIMMAX
 10
12.0
 20
9.0
  9
$UNITMODE
 70
     0
  9
$VISRETAIN
 70
     1
  9
$PLINEGEN
 70
     0
  9
$PSLTSCALE
 70
     1
  9
$TREEDEPTH
 70
  3020
  9
$CMLSTYLE
  2
Standard
  9
$CMLJUST
 70
     0
  9
$CMLSCALE
 40
1.0
  9
$PROXYGRAPHICS
 70
     1
  9
$MEASUREMENT
 70
     0
  9
$CELWEIGHT
370
    -1
  9
$ENDCAPS
280
     0
  9
$JOINSTYLE
280
     0
  9
$LWDISPLAY
290
     0
  9
$INSUNITS
 70
     4
  9
$HYPERLINKBASE
  1

  9
$STYLESHEET
  1

  9
$XEDIT
290
     1
  9
$CEPSNTYPE
380
     0
  9
$PSTYLEMODE
290
     1
  9
$FINGERPRINTGUID
  2
{DF29678F-1B57-4B4C-8B62-B8D8033EF033}
  9
$VERSIONGUID
  2
{0D20B24D-6D0C-7641-9301-FD5C514CE2E5}
  9
$EXTNAMES
290
     1
  9
$PSVPSCALE
 40
0.0
  9
$OLESTARTUP
290
     0
  9
$SORTENTS
280
   127
  9
$INDEXCTL
280
     0
  9
$HIDETEXT
280
     0
  9
$XCLIPFRAME
280
     2
  9
$HALOGAP
280
     0
  9
$OBSCOLOR
 70
   257
  9
$OBSLTYPE
280
     0
  9
$INTERSECTIONDISPLAY
280
     0
  9
$INTERSECTIONCOLOR
 70
   257
  9
$DIMASSOC
280
     1
  9
$PROJECTNAME
  1

  9
$CAMERADISPLAY
290
     0
  9
$LENSLENGTH
 40
50.0
  9
$CAMERAHEIGHT
 40
0.0
  9
$STEPSPERSEC
 40
2.0
  9
$STEPSIZE
 40
6.0
  9
$3DDWFPREC
 40
2.0
  9
$PSOLWIDTH
 40
0.25
  9
$PSOLHEIGHT
 40
4.0
  9
$LOFTANG1
 40
1.570796326794896
  9
$LOFTANG2
 40
1.570796326794896
  9
$LOFTMAG1
 40
0.0
  9
$LOFTMAG2
 40
0.0
  9
$LOFTPARAM
 70
     7
  9
$LOFTNORMALS
280
     1
  9
$LATITUDE
 40
37.795
  9
$LONGITUDE
 40
-122.394
  9
$NORTHDIRECTION
 40
0.0
  9
$TIMEZONE
 70
 -8000
  9
$LIGHTGLYPHDISPLAY
280
     1
  9
$TILEMODELIGHTSYNCH
280
     1
  9
$CMATERIAL
347
10005
  9
$SOLIDHIST
280
     0
  9
$SHOWHIST
280
     1
  9
$DWFFRAME
280
     2
  9
$DGNFRAME
280
     0
  9
$REALWORLDSCALE
290
     1
  9
$INTERFERECOLOR
 62
     1
  9
$INTERFEREOBJVS
345
10027
  9
$INTERFEREVPVS
346
10024
  9
$CSHADOW
280
     0
  9
$SHADOWPLANELOCATION
 40
0.0
  0
ENDSEC
  0
SECTION
  2
CLASSES
  0
CLASS
  1
ACDBDICTIONARYWDFLT
  2
AcDbDictionaryWithDefault
  3
ObjectDBX Classes
 90
        0
 91
        1
280
     0
281
     0
  0
CLASS
  1
MATERIAL
  2
AcDbMaterial
  3
ObjectDBX Classes
 90
     1153
 91
        3
280
     0
281
     0
  0
CLASS
  1
VISUALSTYLE
  2
AcDbVisualStyle
  3
ObjectDBX Classes
 90
     4095
 91
       24
280
     0
281
     0
  0
CLASS
  1
TABLESTYLE
  2
AcDbTableStyle
  3
ObjectDBX Classes
 90
     4095
 91
        1
280
     0
281
     0
  0
CLASS
  1
SCALE
  2
AcDbScale
  3
ObjectDBX Classes
 90
     1153
 91
       17
280
     0
281
     0
  0
CLASS
  1
MLEADERSTYLE
  2
AcDbMLeaderStyle
  3
ACDB_MLEADERSTYLE_CLASS
 90
     4095
 91
        1
280
     0
281
     0
  0
CLASS
  1
ACDBSECTIONVIEWSTYLE
  2
AcDbSectionViewStyle
  3
ObjectDBX Classes
 90
     1025
 91
        1
280
     0
281
     0
  0
CLASS
  1
ACDBDETAILVIEWSTYLE
  2
AcDbDetailViewStyle
  3
ObjectDBX Classes
 90
     1025
 91
        1
280
     0
281
     0
  0
CLASS
  1
DICTIONARYVAR
  2
AcDbDictionaryVar
  3
ObjectDBX Classes
 90
        0
 91
        9
280
     0
281
     0
  0
CLASS
  1
CELLSTYLEMAP
  2
AcDbCellStyleMap
  3
ObjectDBX Classes
 90
     1152
 91
        1
280
     0
281
     0
  0
ENDSEC
  0
SECTION
  2
TABLES
  0
TABLE
  2
VPORT
  5
8
330
0
100
AcDbSymbolTable
 70
     1
  0
VPORT
  5
10059
330
8
100
AcDbSymbolTableRecord
100
AcDbViewportTableRecord
  2
*Active
 70
     0
 10
0.0
 20
0.0
 11
1.0
 21
1.0
 12
370.9552060125789
 22
-201.9987678626175
 13
0.0
 23
0.0
 14
1.0
 24
1.0
 15
0.0
 25
0.0
 16
0.0
 26
0.0
 36
1.0
 17
0.0
 27
0.0
 37
0.0
 40
237.9366654058248
 41
2.570850202429149
 42
50.0
 43
0.0
 44
0.0
 50
0.0
 51
0.0
 71
     0
 72
  1000
 73
     1
 74
     3
 75
     0
 76
     0
 77
     0
 78
     0
281
     0
 65
     1
110
0.0
120
0.0
130
0.0
111
1.0
121
0.0
131
0.0
112
0.0
122
1.0
132
0.0
 79
     0
146
0.0
348
10023
 60
     3
 61
     5
292
     1
282
     1
141
0.0
142
0.0
 63
   250
421
  3355443
1001
ACAD_NAV_VCDISPLAY
1070
     1
  0
ENDTAB
  0
TABLE
  2
LTYPE
  5
5
330
0
100
AcDbSymbolTable
 70
     2
  0
LTYPE
  5
14
330
5
100
AcDbSymbolTableRecord
100
AcDbLinetypeTableRecord
  2
BYBLOCK
 70
     0
  3

 72
    65
 73
     0
 40
0.0
  0
LTYPE
  5
15
330
5
100
AcDbSymbolTableRecord
100
AcDbLinetypeTableRecord
  2
BYLAYER
 70
     0
  3

 72
    65
 73
     0
 40
0.0
  0
LTYPE
  5
10001
330
5
100
AcDbSymbolTableRecord
100
AcDbLinetypeTableRecord
  2
Continuous
 70
     0
  3
Solid line
 72
    65
 73
     0
 40
0.0
  0
LTYPE
  5
16
330
5
100
AcDbSymbolTableRecord
100
AcDbLinetypeTableRecord
  2
DASHED
 70
     0
  3
Dashed __ __ __ __ __ __ __ __ __ __ __ __ __ _
 72
    65
 73
     2
 40
0.75
 49
0.5
 74
     0
 49
-0.25
 74
     0
  0
ENDTAB
  0
TABLE
  2
LAYER
  5
2
330
0
100
AcDbSymbolTable
 70
     1
  0
LAYER
  5
50
102
{ACAD_XDICTIONARY
360
1005D
102
}
330
2
100
AcDbSymbolTableRecord
100
AcDbLayerTableRecord
  2
0
 70
     0
 62
     7
  6
Continuous
370
    -3
390
10003
347
10015
348
0
  0
ENDTAB
  0
TABLE
  2
STYLE
  5
3
330
0
100
AcDbSymbolTable
 70
     1
  0
STYLE
  5
11
330
3
100
AcDbSymbolTableRecord
100
AcDbTextStyleTableRecord
  2
STANDARD
 70
     0
 40
0.0
 41
1.0
 50
0.0
 71
     0
 42
0.2
  3

  4

  0
ENDTAB
  0
TABLE
  2
VIEW
  5
6
330
0
100
AcDbSymbolTable
 70
     0
  0
ENDTAB
  0
TABLE
  2
UCS
  5
7
330
0
100
AcDbSymbolTable
 70
     0
  0
ENDTAB
  0
TABLE
  2
APPID
  5
9
330
0
100
AcDbSymbolTable
 70
     2
  0
APPID
  5
12
330
9
100
AcDbSymbolTableRecord
100
AcDbRegAppTableRecord
  2
ACAD
 70
     0
  0
APPID
  5
10058
330
9
100
AcDbSymbolTableRecord
100
AcDbRegAppTableRecord
  2
ACAD_NAV_VCDISPLAY
 70
     0
  0
ENDTAB
  0
TABLE
  2
DIMSTYLE
  5
A
330
0
100
AcDbSymbolTable
 70
     1
100
AcDbDimStyleTable
 71
     0
  0
DIMSTYLE
105
10053
330
A
100
AcDbSymbolTableRecord
100
AcDbDimStyleTableRecord
  2
Standard
 70
     0
340
11
  0
ENDTAB
  0
TABLE
  2
BLOCK_RECORD
  5
1
330
0
100
AcDbSymbolTable
 70
     0
  0
BLOCK_RECORD
  5
1F
330
1
100
AcDbSymbolTableRecord
100
AcDbBlockTableRecord
  2
*MODEL_SPACE
340
10055
 70
     0
280
     1
281
     0
  0
BLOCK_RECORD
  5
1B
330
1
100
AcDbSymbolTableRecord
100
AcDbBlockTableRecord
  2
*PAPER_SPACE
340
10056
 70
     0
280
     1
281
     0
  0
ENDTAB
  0
ENDSEC
  0
SECTION
  2
BLOCKS
  0
BLOCK
  5
20
330
1F
100
AcDbEntity
  8
0
100
AcDbBlockBegin
  2
*MODEL_SPACE
 70
     0
 10
0.0
 20
0.0
 30
0.0
  3
*MODEL_SPACE
  1

  0
ENDBLK
  5
21
330
1F
100
AcDbEntity
  8
0
100
AcDbBlockEnd
  0
BLOCK
  5
1C
330
1B
100
AcDbEntity
 67
     1
  8
0
100
AcDbBlockBegin
  2
*PAPER_SPACE
 70
     0
 10
0.0
 20
0.0
 30
0.0
  3
*PAPER_SPACE
  1

  0
ENDBLK
  5
1D
330
1B
100
AcDbEntity
 67
     1
  8
0
100
AcDbBlockEnd
  0
ENDSEC
  0
SECTION
  2
ENTITIES
  0
SPLINE
  5
101
330
1F
100
AcDbEntity
  8
0
100
AcDbSpline
210
0.0
220
0.0
230
1.0
 70
     9
 71
     3
 72
  1005
 73
  1001
 74
     0
 42
0.000000001
 43
0.0000000001
 40
0.0
 40
0.0
 40
0.0
 40
0.0
 40
0.0088113524755761
 40
0.0176227049511522
 40
0.0264340574267283
 40
0.0352454099023044
 40
0.0440567623778804
 40
0.0528681148534565
 40
0.0616794673290326
 40
0.0704908198046087
 40
0.0793021722801848
 40
0.0881135247557609
 40
0.096924877231337
 40
0.105736229706913
 40
0.1145475821824891
 40
0.1233589346580652
 40
0.1321702871336413
 40
0.1409816396092174
 40
0.1497929920847934
 40
0.1586043445603695
 40
0.1674156970359456
 40
0.1762270495115217
 40
0.1850384019870978
 40
0.1938497544626739
 40
0.20266110693825
 40
0.211472459413826
 40
0.2202838118894021
 40
0.2290951643649782
 40
0.2379065168405543
 40
0.2467178693161304
 40
0.2555292217917064
 40
0.2643405742672826
 40
0.2731519267428586
 40
0.2819632792184347
 40
0.2907746316940108
 40
0.2995859841695869
 40
0.308397336645163
 40
0.3172086891207391
 40
0.3260200415963151
 40
0.3348313940718912
 40
0.3436427465474674
 40
0.3524540990230434
 40
0.3612654514986195
 40
0.3700768039741956
 40
0.3788881564497716
 40
0.3876995089253477
 40
0.3965108614009238
 40
0.4053222138765
 40
0.414133566352076
 40
0.4229449188276521
 40
0.4317562713032282
 40
0.4405676237788043
 40
0.4493789762543804
 40
0.4581903287299565
 40
0.4670016812055326
 40
0.4758130336811086
 40
0.4846243861566847
 40
0.4934357386322608
 40
0.5022470911078369
 40
0.5110584435834129
 40
0.519869796058989
 40
0.5286811485345652
 40
0.5374925010101413
 40
0.5463038534857173
 40
0.5551152059612934
 40
0.5639265584368695
 40
0.5727379109124456
 40
0.5815492633880216
 40
0.5903606158635978
 40
0.5991719683391738
 40
0.6079833208147499
 40
0.6167946732903261
 40
0.6256060257659021
 40
0.6344173782414782
 40
0.6432287307170542
 40
0.6520400831926303
 40
0.6608514356682064
 40
0.6696627881437825
 40
0.6784741406193585
 40
0.6872854930949348
 40
0.6960968455705108
 40
0.7049081980460869
 40
0.713719550521663
 40
0.722530902997239
 40
0.7313422554728151
 40
0.7401536079483912
 40
0.7489649604239672
 40
0.7577763128995433
 40
0.7665876653751195
 40
0.7753990178506955
 40
0.7842103703262717
 40
0.7930217228018477
 40
0.8018330752774238
 40
0.8106444277529998
 40
0.8194557802285759
 40
0.8282671327041519
 40
0.837078485179728
 40
0.845889837655304
 40
0.8547011901308803
 40
0.8635125426064563
 40
0.8723238950820324
 40
0.8811352475576084
 40
0.8899466000331845
 40
0.8987579525087607
 40
0.9075693049843367
 40
0.9163806574599128
 40
0.9251920099354888
 40
0.9340033624110651
 40
0.9428147148866411
 40
0.9516260673622172
 40
0.9604374198377932
 40
0.9692487723133693
 40
0.9780601247889453
 40
0.9868714772645216
 40
0.9956828297400976
 40
1.004494182215673
 40
1.013305534691249
 40
1.022116887166825
 40
1.030928239642401
 40
1.039739592117977
 40
1.048550944593554
 40
1.05736229706913
 40
1.066173649544706
 40
1.074985002020282
 40
1.083796354495858
 40
1.092607706971434
 40
1.10141905944701
 40
1.110230411922586
 40
1.119041764398162
 40
1.127853116873738
 40
1.136664469349315
 40
1.145475821824891
 40
1.154287174300467
 40
1.163098526776043
 40
1.171909879251619
 40
1.180721231727195
 40
1.189532584202771
 40
1.198343936678347
 40
1.207155289153923
 40
1.215966641629499
 40
1.224777994105075
 40
1.233589346580652
 40
1.242400699056227
 40
1.251212051531804
 40
1.26002340400738
 40
1.268834756482956
 40
1.277646108958532
 40
1.286457461434108
 40
1.295268813909684
 40
1.30408016638526
 40
1.312891518860836
 40
1.321702871336412
 40
1.330514223811988
 40
1.339325576287564
 40
1.348136928763141
 40
1.356948281238717
 40
1.365759633714293
 40
1.374570986189869
 40
1.383382338665445
 40
1.392193691141021
 40
1.401005043616597
 40
1.409816396092173
 40
1.418627748567749
 40
1.427439101043325
 40
1.436250453518901
 40
1.445061805994478
 40
1.453873158470054
 40
1.46268451094563
 40
1.471495863421206
 40
1.480307215896782
 40
1.489118568372358
 40
1.497929920847934
 40
1.50674127332351
 40
1.515552625799086
 40
1.524363978274662
 40
1.533175330750238
 40
1.541986683225814
 40
1.550798035701391
 40
1.559609388176967
 40
1.568420740652543
 40
1.577232093128119
 40
1.586043445603695
 40
1.594854798079271
 40
1.603666150554847
 40
1.612477503030423
 40
1.621288855505999
 40
1.630100207981575
 40
1.638911560457151
 40
1.647722912932727
 40
1.656534265408303
 40
1.66534561788388
 40
1.674156970359456
 40
1.682968322835032
 40
1.691779675310608
 40
1.700591027786184
 40
1.70940238026176
 40
1.718213732737336
 40
1.727025085212912
 40
1.735836437688488
 40
1.744647790164064
 40
1.75345914263964
 40
1.762270495115217
 40
1.771081847590792
 40
1.779893200066369
 40
1.788704552541945
 40
1.797515905017521
 40
1.806327257493097
 40
1.815138609968673
 40
1.823949962444249
 40
1.832761314919825
 40
1.841572667395401
 40
1.850384019870977
 40
1.859195372346554
 40
1.86800672482213
 40
1.876818077297706
 40
1.885629429773282
 40
1.894440782248858
 40
1.903252134724434
 40
1.91206348720001
 40
1.920874839675586
 40
1.929686192151162
 40
1.938497544626738
 40
1.947308897102314
 40
1.95612024957789
 40
1.964931602053466
 40
1.973742954529043
 40
1.982554307004619
 40
1.991365659480195
 40
2.000177011955771
 40
2.008988364431347
 40
2.017799716906923
 40
2.026611069382499
 40
2.035422421858075
 40
2.044233774333651
 40
2.053045126809228
 40
2.061856479284803
 40
2.070667831760379
 40
2.079479184235955
 40
2.088290536711532
 40
2.097101889187108
 40
2.105913241662684
 40
2.11472459413826
 40
2.123535946613836
 40
2.132347299089412
 40
2.141158651564988
 40
2.149970004040564
 40
2.15878135651614
 40
2.167592708991716
 40
2.176404061467293
 40
2.185215413942869
 40
2.194026766418445
 40
2.202838118894021
 40
2.211649471369597
 40
2.220460823845173
 40
2.229272176320749
 40
2.238083528796325
 40
2.246894881271901
 40
2.255706233747477
 40
2.264517586223053
 40
2.27332893869863
 40
2.282140291174206
 40
2.290951643649782
 40
2.299762996125358
 40
2.308574348600934
 40
2.31738570107651
 40
2.326197053552086
 40
2.335008406027662
 40
2.343819758503238
 40
2.352631110978814
 40
2.36144246345439
 40
2.370253815929967
 40
2.379065168405543
 40
2.387876520881119
 40
2.396687873356694
 40
2.405499225832271
 40
2.414310578307847
 40
2.423121930783423
 40
2.431933283258999
 40
2.440744635734575
 40
2.449555988210151
 40
2.458367340685727
 40
2.467178693161304
 40
2.475990045636879
 40
2.484801398112455
 40
2.493612750588031
 40
2.502424103063608
 40
2.511235455539184
 40
2.52004680801476
 40
2.528858160490336
 40
2.537669512965912
 40
2.546480865441488
 40
2.555292217917064
 40
2.56410357039264
 40
2.572914922868216
 40
2.581726275343792
 40
2.590537627819369
 40
2.599348980294945
 40
2.608160332770521
 40
2.616971685246097
 40
2.625783037721673
 40
2.634594390197249
 40
2.643405742672825
 40
2.652217095148401
 40
2.661028447623977
 40
2.669839800099553
 40
2.678651152575129
 40
2.687462505050706
 40
2.696273857526282
 40
2.705085210001858
 40
2.713896562477434
 40
2.72270791495301
 40
2.731519267428586
 40
2.740330619904162
 40
2.749141972379738
 40
2.757953324855314
 40
2.76676467733089
 40
2.775576029806466
 40
2.784387382282043
 40
2.793198734757619
 40
2.802010087233195
 40
2.810821439708771
 40
2.819632792184347
 40
2.828444144659923
 40
2.837255497135499
 40
2.846066849611075
 40
2.854878202086651
 40
2.863689554562227
 40
2.872500907037803
 40
2.881312259513379
 40
2.890123611988956
 40
2.898934964464531
 40
2.907746316940108
 40
2.916557669415684
 40
2.92536902189126
 40
2.934180374366836
 40
2.942991726842412
 40
2.951803079317988
 40
2.960614431793564
 40
2.96942578426914
 40
2.978237136744716
 40
2.987048489220292
 40
2.995859841695868
 40
3.004671194171445
 40
3.013482546647021
 40
3.022293899122597
 40
3.031105251598173
 40
3.039916604073749
 40
3.048727956549325
 40
3.057539309024901
 40
3.066350661500477
 40
3.075162013976053
 40
3.083973366451629
 40
3.092784718927205
 40
3.101596071402782
 40
3.110407423878358
 40
3.119218776353934
 40
3.12803012882951
 40
3.136841481305086
 40
3.145652833780662
 40
3.154464186256238
 40
3.163275538731814
 40
3.17208689120739
 40
3.180898243682966
 40
3.189709596158542
 40
3.198520948634119
 40
3.207332301109695
 40
3.21614365358527
 40
3.224955006060847
 40
3.233766358536423
 40
3.242577711011999
 40
3.251389063487575
 40
3.260200415963151
 40
3.269011768438727
 40
3.277823120914303
 40
3.286634473389879
 40
3.295445825865455
 40
3.304257178341031
 40
3.313068530816607
 40
3.321879883292184
 40
3.33069123576776
 40
3.339502588243336
 40
3.348313940718912
 40
3.357125293194488
 40
3.365936645670064
 40
3.37474799814564
 40
3.383559350621216
 40
3.392370703096792
 40
3.401182055572368
 40
3.409993408047944
 40
3.418804760523521
 40
3.427616112999097
 40
3.436427465474673
 40
3.445238817950249
 40
3.454050170425825
 40
3.462861522901401
 40
3.471672875376977
 40
3.480484227852553
 40
3.489295580328129
 40
3.498106932803705
 40
3.506918285279281
 40
3.515729637754858
 40
3.524540990230434
 40
3.53335234270601
 40
3.542163695181586
 40
3.550975047657162
 40
3.559786400132738
 40
3.568597752608314
 40
3.57740910508389
 40
3.586220457559466
 40
3.595031810035042
 40
3.603843162510618
 40
3.612654514986195
 40
3.621465867461771
 40
3.630277219937346
 40
3.639088572412923
 40
3.647899924888499
 40
3.656711277364075
 40
3.665522629839651
 40
3.674333982315227
 40
3.683145334790803
 40
3.691956687266379
 40
3.700768039741955
 40
3.709579392217531
 40
3.718390744693107
 40
3.727202097168683
 40
3.73601344964426
 40
3.744824802119836
 40
3.753636154595412
 40
3.762447507070988
 40
3.771258859546564
 40
3.78007021202214
 40
3.788881564497716
 40
3.797692916973292
 40
3.806504269448868
 40
3.815315621924444
 40
3.82412697440002
 40
3.832938326875597
 40
3.841749679351173
 40
3.850561031826749
 40
3.859372384302325
 40
3.868183736777901
 40
3.876995089253477
 40
3.885806441729053
 40
3.894617794204629
 40
3.903429146680205
 40
3.912240499155781
 40
3.921051851631357
 40
3.929863204106934
 40
3.93867455658251
 40
3.947485909058086
 40
3.956297261533662
 40
3.965108614009238
 40
3.973919966484814
 40
3.98273131896039
 40
3.991542671435966
 40
4.000354023911542
 40
4.009165376387119
 40
4.017976728862694
 40
4.026788081338271
 40
4.035599433813847
 40
4.044410786289422
 40
4.053222138764999
 40
4.062033491240574
 40
4.070844843716151
 40
4.079656196191727
 40
4.088467548667303
 40
4.097278901142879
 40
4.106090253618456
 40
4.114901606094031
 40
4.123712958569607
 40
4.132524311045184
 40
4.141335663520759
 40
4.150147015996336
 40
4.158958368471911
 40
4.167769720947488
 40
4.176581073423064
 40
4.18539242589864
 40
4.194203778374216
 40
4.203015130849792
 40
4.211826483325368
 40
4.220637835800944
 40
4.229449188276521
 40
4.238260540752096
 40
4.247071893227673
 40
4.255883245703248
 40
4.264694598178825
 40
4.273505950654401
 40
4.282317303129977
 40
4.291128655605553
 40
4.299940008081129
 40
4.308751360556705
 40
4.317562713032281
 40
4.326374065507858
 40
4.335185417983433
 40
4.34399677045901
 40
4.352808122934586
 40
4.361619475410162
 40
4.370430827885738
 40
4.379242180361313
 40
4.38805353283689
 40
4.396864885312466
 40
4.405676237788042
 40
4.414487590263618
 40
4.423298942739195
 40
4.43211029521477
 40
4.440921647690347
 40
4.449733000165923
 40
4.458544352641498
 40
4.467355705117075
 40
4.47616705759265
 40
4.484978410068227
 40
4.493789762543803
 40
4.502601115019379
 40
4.511412467494955
 40
4.520223819970532
 40
4.529035172446107
 40
4.537846524921683
 40
4.54665787739726
 40
4.555469229872835
 40
4.564280582348412
 40
4.573091934823987
 40
4.581903287299564
 40
4.59071463977514
 40
4.599525992250716
 40
4.608337344726292
 40
4.617148697201868
 40
4.625960049677444
 40
4.63477140215302
 40
4.643582754628597
 40
4.652394107104172
 40
4.661205459579749
 40
4.670016812055324
 40
4.678828164530901
 40
4.687639517006477
 40
4.696450869482053
 40
4.705262221957629
 40
4.714073574433205
 40
4.722884926908781
 40
4.731696279384357
 40
4.740507631859934
 40
4.749318984335509
 40
4.758130336811086
 40
4.766941689286662
 40
4.775753041762238
 40
4.784564394237814
 40
4.793375746713389
 40
4.802187099188966
 40
4.810998451664542
 40
4.819809804140118
 40
4.828621156615694
 40
4.837432509091271
 40
4.846243861566846
 40
4.855055214042423
 40
4.863866566517999
 40
4.872677918993574
 40
4.881489271469151
 40
4.890300623944726
 40
4.899111976420303
 40
4.907923328895879
 40
4.916734681371455
 40
4.925546033847031
 40
4.934357386322608
 40
4.943168738798183
 40
4.951980091273759
 40
4.960791443749336
 40
4.969602796224911
 40
4.978414148700488
 40
4.987225501176063
 40
4.99603685365164
 40
5.004848206127216
 40
5.013659558602792
 40
5.022470911078368
 40
5.031282263553944
 40
5.04009361602952
 40
5.048904968505096
 40
5.057716320980673
 40
5.066527673456248
 40
5.075339025931825
 40
5.084150378407401
 40
5.092961730882977
 40
5.101773083358553
 40
5.110584435834129
 40
5.119395788309705
 40
5.128207140785281
 40
5.137018493260857
 40
5.145829845736433
 40
5.15464119821201
 40
5.163452550687585
 40
5.172263903163162
 40
5.181075255638738
 40
5.189886608114314
 40
5.19869796058989
 40
5.207509313065465
 40
5.216320665541042
 40
5.225132018016618
 40
5.233943370492194
 40
5.24275472296777
 40
5.251566075443347
 40
5.260377427918922
 40
5.269188780394499
 40
5.278000132870075
 40
5.28681148534565
 40
5.295622837821227
 40
5.304434190296802
 40
5.313245542772379
 40
5.322056895247955
 40
5.330868247723531
 40
5.339679600199107
 40
5.348490952674683
 40
5.357302305150259
 40
5.366113657625835
 40
5.374925010101412
 40
5.383736362576987
 40
5.392547715052564
 40
5.40135906752814
 40
5.410170420003716
 40
5.418981772479292
 40
5.427793124954868
 40
5.436604477430444
 40
5.44541582990602
 40
5.454227182381596
 40
5.463038534857172
 40
5.471849887332749
 40
5.480661239808324
 40
5.489472592283901
 40
5.498283944759477
 40
5.507095297235053
 40
5.515906649710629
 40
5.524718002186205
 40
5.533529354661781
 40
5.542340707137357
 40
5.551152059612933
 40
5.559963412088509
 40
5.568774764564086
 40
5.577586117039661
 40
5.586397469515238
 40
5.595208821990814
 40
5.60402017446639
 40
5.612831526941966
 40
5.621642879417541
 40
5.630454231893118
 40
5.639265584368694
 40
5.64807693684427
 40
5.656888289319846
 40
5.665699641795423
 40
5.674510994270998
 40
5.683322346746574
 40
5.692133699222151
 40
5.700945051697726
 40
5.709756404173303
 40
5.718567756648878
 40
5.727379109124455
 40
5.736190461600031
 40
5.745001814075607
 40
5.753813166551183
 40
5.762624519026759
 40
5.771435871502335
 40
5.780247223977911
 40
5.789058576453488
 40
5.797869928929063
 40
5.80668128140464
 40
5.815492633880216
 40
5.824303986355792
 40
5.833115338831368
 40
5.841926691306944
 40
5.85073804378252
 40
5.859549396258096
 40
5.868360748733672
 40
5.877172101209248
 40
5.885983453684825
 40
5.8947948061604
 40
5.903606158635977
 40
5.912417511111553
 40
5.921228863587129
 40
5.930040216062705
 40
5.938851568538281
 40
5.947662921013857
 40
5.956474273489433
 40
5.965285625965009
 40
5.974096978440585
 40
5.982908330916162
 40
5.991719683391737
 40
6.000531035867314
 40
6.00934238834289
 40
6.018153740818465
 40
6.026965093294042
 40
6.035776445769617
 40
6.044587798245194
 40
6.05339915072077
 40
6.062210503196346
 40
6.071021855671922
 40
6.079833208147499
 40
6.088644560623074
 40
6.09745591309865
 40
6.106267265574227
 40
6.115078618049802
 40
6.123889970525379
 40
6.132701323000955
 40
6.141512675476531
 40
6.150324027952107
 40
6.159135380427683
 40
6.167946732903259
 40
6.176758085378835
 40
6.185569437854411
 40
6.194380790329987
 40
6.203192142805564
 40
6.212003495281139
 40
6.220814847756716
 40
6.229626200232292
 40
6.238437552707868
 40
6.247248905183444
 40
6.25606025765902
 40
6.264871610134596
 40
6.273682962610172
 40
6.282494315085748
 40
6.291305667561324
 40
6.300117020036901
 40
6.308928372512476
 40
6.317739724988053
 40
6.326551077463629
 40
6.335362429939205
 40
6.344173782414781
 40
6.352985134890356
 40
6.361796487365933
 40
6.370607839841509
 40
6.379419192317085
 40
6.388230544792661
 40
6.397041897268238
 40
6.405853249743813
 40
6.41466460221939
 40
6.423475954694966
 40
6.432287307170541
 40
6.441098659646118
 40
6.449910012121694
 40
6.45872136459727
 40
6.467532717072846
 40
6.476344069548422
 40
6.485155422023998
 40
6.493966774499575
 40
6.50277812697515
 40
6.511589479450726
 40
6.520400831926303
 40
6.529212184401878
 40
6.538023536877455
 40
6.546834889353031
 40
6.555646241828607
 40
6.564457594304183
 40
6.573268946779759
 40
6.582080299255335
 40
6.590891651730911
 40
6.599703004206487
 40
6.608514356682063
 40
6.61732570915764
 40
6.626137061633215
 40
6.634948414108792
 40
6.643759766584368
 40
6.652571119059944
 40
6.66138247153552
 40
6.670193824011096
 40
6.679005176486672
 40
6.687816528962248
 40
6.696627881437824
 40
6.7054392339134
 40
6.714250586388977
 40
6.723061938864552
 40
6.731873291340129
 40
6.740684643815705
 40
6.749495996291281
 40
6.758307348766857
 40
6.767118701242432
 40
6.775930053718009
 40
6.784741406193585
 40
6.793552758669161
 40
6.802364111144737
 40
6.811175463620314
 40
6.819986816095889
 40
6.828798168571466
 40
6.837609521047042
 40
6.846420873522617
 40
6.855232225998194
 40
6.86404357847377
 40
6.872854930949346
 40
6.881666283424922
 40
6.890477635900498
 40
6.899288988376074
 40
6.908100340851651
 40
6.916911693327226
 40
6.925723045802802
 40
6.934534398278379
 40
6.943345750753954
 40
6.952157103229531
 40
6.960968455705107
 40
6.969779808180683
 40
6.978591160656259
 40
6.987402513131835
 40
6.996213865607411
 40
7.005025218082987
 40
7.013836570558563
 40
7.022647923034139
 40
7.031459275509716
 40
7.040270627985291
 40
7.049081980460868
 40
7.057893332936444
 40
7.06670468541202
 40
7.075516037887596
 40
7.084327390363172
 40
7.093138742838748
 40
7.101950095314324
 40
7.1107614477899
 40
7.119572800265476
 40
7.128384152741053
 40
7.137195505216628
 40
7.146006857692205
 40
7.154818210167781
 40
7.163629562643357
 40
7.172440915118933
 40
7.181252267594509
 40
7.190063620070085
 40
7.198874972545661
 40
7.207686325021237
 40
7.216497677496813
 40
7.22530902997239
 40
7.234120382447965
 40
7.242931734923542
 40
7.251743087399118
 40
7.260554439874693
 40
7.26936579235027
 40
7.278177144825846
 40
7.286988497301422
 40
7.295799849776998
 40
7.304611202252574
 40
7.31342255472815
 40
7.322233907203727
 40
7.331045259679302
 40
7.339856612154878
 40
7.348667964630455
 40
7.35747931710603
 40
7.366290669581607
 40
7.375102022057183
 40
7.383913374532759
 40
7.392724727008335
 40
7.401536079483911
 40
7.410347431959487
 40
7.419158784435063
 40
7.427970136910639
 40
7.436781489386215
 40
7.445592841861792
 40
7.454404194337367
 40
7.463215546812944
 40
7.47202689928852
 40
7.480838251764096
 40
7.489649604239672
 40
7.498460956715248
 40
7.507272309190824
 40
7.5160836616664
 40
7.524895014141976
 40
7.533706366617552
 40
7.542517719093129
 40
7.551329071568704
 40
7.560140424044281
 40
7.568951776519857
 40
7.577763128995433
 40
7.586574481471009
 40
7.595385833946585
 40
7.604197186422161
 40
7.613008538897737
 40
7.621819891373313
 40
7.630631243848889
 40
7.639442596324466
 40
7.648253948800041
 40
7.657065301275618
 40
7.665876653751194
 40
7.674688006226769
 40
7.683499358702346
 40
7.692310711177922
 40
7.701122063653498
 40
7.709933416129074
 40
7.71874476860465
 40
7.727556121080226
 40
7.736367473555803
 40
7.745178826031378
 40
7.753990178506954
 40
7.762801530982531
 40
7.771612883458106
 40
7.780424235933683
 40
7.789235588409259
 40
7.798046940884835
 40
7.806858293360411
 40
7.815669645835987
 40
7.824480998311563
 40
7.833292350787139
 40
7.842103703262715
 40
7.850915055738291
 40
7.859726408213868
 40
7.868537760689443
 40
7.87734911316502
 40
7.886160465640596
 40
7.894971818116172
 40
7.903783170591748
 40
7.912594523067324
 40
7.9214058755429
 40
7.930217228018476
 40
7.939028580494052
 40
7.947839932969628
 40
7.956651285445205
 40
7.96546263792078
 40
7.974273990396357
 40
7.983085342871933
 40
7.991896695347509
 40
8.000708047823085
 40
8.00951940029866
 40
8.018330752774238
 40
8.027142105249813
 40
8.035953457725389
 40
8.044764810200966
 40
8.053576162676542
 40
8.062387515152117
 40
8.071198867627694
 40
8.08001022010327
 40
8.088821572578845
 40
8.097632925054421
 40
8.106444277529998
 40
8.115255630005574
 40
8.124066982481149
 40
8.132878334956727
 40
8.141689687432302
 40
8.150501039907878
 40
8.159312392383455
 40
8.16812374485903
 40
8.176935097334606
 40
8.185746449810183
 40
8.194557802285759
 40
8.203369154761334
 40
8.212180507236912
 40
8.220991859712487
 40
8.229803212188063
 40
8.23861456466364
 40
8.247425917139215
 40
8.256237269614791
 40
8.265048622090368
 40
8.273859974565944
 40
8.282671327041519
 40
8.291482679517095
 40
8.300294031992672
 40
8.309105384468248
 40
8.317916736943823
 40
8.3267280894194
 40
8.335539441894976
 40
8.344350794370551
 40
8.353162146846129
 40
8.361973499321704
 40
8.37078485179728
 40
8.379596204272857
 40
8.388407556748433
 40
8.397218909224008
 40
8.406030261699585
 40
8.414841614175161
 40
8.423652966650736
 40
8.432464319126314
 40
8.441275671601889
 40
8.450087024077465
 40
8.458898376553042
 40
8.467709729028618
 40
8.476521081504193
 40
8.48533243397977
 40
8.494143786455346
 40
8.502955138930921
 40
8.511766491406497
 40
8.520577843882074
 40
8.52938919635765
 40
8.538200548833225
 40
8.547011901308803
 40
8.555823253784378
 40
8.564634606259954
 40
8.573445958735531
 40
8.582257311211106
 40
8.591068663686682
 40
8.599880016162259
 40
8.608691368637835
 40
8.61750272111341
 40
8.626314073588988
 40
8.635125426064563
 40
8.643936778540139
 40
8.652748131015716
 40
8.661559483491291
 40
8.670370835966867
 40
8.679182188442444
 40
8.68799354091802
 40
8.696804893393595
 40
8.705616245869173
 40
8.714427598344748
 40
8.723238950820324
 40
8.732050303295899
 40
8.740861655771476
 40
8.749673008247052
 40
8.758484360722627
 40
8.767295713198205
 40
8.77610706567378
 40
8.784918418149356
 40
8.793729770624933
 40
8.793729770624933
 40
8.793729770624933
 40
8.793729770624933
 10
263.3862151104464
 20
-152.6995883700854
 30
0.0
 10
263.3837933136172
 20
-152.6944710453338
 30
0.0
 10
263.3789930989409
 20
-152.684216079223
 30
0.0
 10
263.371917302119
 20
-152.668758911801
 30
0.0
 10
263.3649626649579
 20
-152.6532180475838
 30
0.0
 10
263.3581277814367
 20
-152.6375886007656
 30
0.0
 10
263.3514128690977
 20
-152.6218691459999
 30
0.0
 10
263.3448191014238
 20
-152.6060603236655
 30
0.0
 10
263.3383481079315
 20
-152.5901638030071
 30
0.0
 10
263.3320016403225
 20
-152.5741815832431
 30
0.0
 10
263.3257814046051
 20
-152.5581156416058
 30
0.0
 10
263.3196890009398
 20
-152.5419678062796
 30
0.0
 10
263.3137259230396
 20
-152.5257397546565
 30
0.0
 10
263.307893580831
 20
-152.5094330609012
 30
0.0
 10
263.3021933260813
 20
-152.4930492502679
 30
0.0
 10
263.2966264720709
 20
-152.4765898412645
 30
0.0
 10
263.291194305416
 20
-152.4600563715359
 30
0.0
 10
263.2858980914106
 20
-152.4434504102026
 30
0.0
 10
263.2807390751783
 20
-152.4267735613966
 30
0.0
 10
263.2757184806774
 20
-152.410027463237
 30
0.0
 10
263.2708375089472
 20
-152.3932137851521
 30
0.0
 10
263.2660973363528
 20
-152.3763342251385
 30
0.0
 10
263.2614991131311
 20
-152.3593905075965
 30
0.0
 10
263.2570439622787
 20
-152.3423843818366
 30
0.0
 10
263.2527329787107
 20
-152.3253176211053
 30
0.0
 10
263.248567228589
 20
-152.3081920219282
 30
0.0
 10
263.24454774874
 20
-152.291009403597
 30
0.0
 10
263.2406755461099
 20
-152.2737716076912
 30
0.0
 10
263.2369515972229
 20
-152.2564804975741
 30
0.0
 10
263.2333768476559
 20
-152.2391379578447
 30
0.0
 10
263.2299522114542
 20
-152.2217458937435
 30
0.0
 10
263.2266785707557
 20
-152.2043062305207
 30
0.0
 10
263.2235567751209
 20
-152.1868209127745
 30
0.0
 10
263.2205876410595
 20
-152.1692919037699
 30
0.0
 10
263.2177719516072
 20
-152.151721184739
 30
0.0
 10
263.2151104557142
 20
-152.1341107541678
 30
0.0
 10
263.2126038679412
 20
-152.1164626270703
 30
0.0
 10
263.2102528679594
 20
-152.0987788342494
 30
0.0
 10
263.2080581001348
 20
-152.0810614215463
 30
0.0
 10
263.2060201731384
 20
-152.0633124490769
 30
0.0
 10
263.2041396595708
 20
-152.0455339904567
 30
0.0
 10
263.2024170956072
 20
-152.0277281320141
 30
0.0
 10
263.2008529806625
 20
-152.0098969719934
 30
0.0
 10
263.1994477770773
 20
-151.9920426197466
 30
0.0
 10
263.1982019098241
 20
-151.9741671949157
 30
0.0
 10
263.1971157662371
 20
-151.9562728266074
 30
0.0
 10
263.1961896957619
 20
-151.9383616525573
 30
0.0
 10
263.1954240097288
 20
-151.9204358182886
 30
0.0
 10
263.1948189811482
 20
-151.902497476262
 30
0.0
 10
263.1943748445278
 20
-151.884548785021
 30
0.0
 10
263.1940917957145
 20
-151.8665919083303
 30
0.0
 10
263.1939699917576
 20
-151.8486290143108
 30
0.0
 10
263.1940095507967
 20
-151.8306622745695
 30
0.0
 10
263.1942105519723
 20
-151.8126938633265
 30
0.0
 10
263.1945730353601
 20
-151.7947259565394
 30
0.0
 10
263.1950970019285
 20
-151.7767607310255
 30
0.0
 10
263.1957824135205
 20
-151.7588003635836
 30
0.0
 10
263.1966291928585
 20
-151.7408470301147
 30
0.0
 10
263.1976372235736
 20
-151.722902904743
 30
0.0
 10
263.1988063502573
 20
-151.7049701589391
 30
0.0
 10
263.200136378539
 20
-151.6870509606438
 30
0.0
 10
263.2016270751845
 20
-151.6691474733951
 30
0.0
 10
263.2032781682198
 20
-151.6512618554589
 30
0.0
 10
263.2050893470773
 20
-151.6333962589627
 30
0.0
 10
263.2070602627663
 20
-151.6155528290356
 30
0.0
 10
263.2091905280643
 20
-151.5977337029522
 30
0.0
 10
263.2114797177334
 20
-151.5799410092839
 30
0.0
 10
263.2139273687578
 20
-151.5621768670567
 30
0.0
 10
263.216532980604
 20
-151.5444433849169
 30
0.0
 10
263.2192960155032
 20
-151.5267426603042
 30
0.0
 10
263.2222158987548
 20
-151.5090767786354
 30
0.0
 10
263.2252920190527
 20
-151.4914478124965
 30
0.0
 10
263.2285237288307
 20
-151.4738578208453
 30
0.0
 10
263.2319103446301
 20
-151.4563088482259
 30
0.0
 10
263.2354511474864
 20
-151.4388029239932
 30
0.0
 10
263.2391453833363
 20
-151.4213420615511
 30
0.0
 10
263.2429922634444
 20
-151.4039282576023
 30
0.0
 10
263.2469909648478
 20
-151.3865634914123
 30
0.0
 10
263.2511406308209
 20
-151.3692497240862
 30
0.0
 10
263.2554403713571
 20
-151.3519888978597
 30
0.0
 10
263.2598892636699
 20
-151.334782935404
 30
0.0
 10
263.2644863527104
 20
-151.3176337391449
 30
0.0
 10
263.2692306517033
 20
-151.3005431905969
 30
0.0
 10
263.2741211426969
 20
-151.2835131497132
 30
0.0
 10
263.2791567771289
 20
-151.2665454542555
 30
0.0
 10
263.2843364764011
 20
-151.2496419191894
 30
0.0
 10
263.2896591324591
 20
-151.2328043361116
 30
0.0
 10
263.2951236083709
 20
-151.2160344727192
 30
0.0
 10
263.3007287389008
 20
-151.1993340723245
 30
0.0
 10
263.3064733310801
 20
-151.1827048534088
 30
0.0
 10
263.3123561647944
 20
-151.1661485091836
 30
0.0
 10
263.3183759934289
 20
-151.1496667070823
 30
0.0
 10
263.3245315446536
 20
-151.1332610880566
 30
0.0
 10
263.3308215214592
 20
-151.1169332654959
 30
0.0
 10
263.3372446035661
 20
-151.1006848235896
 30
0.0
 10
263.3437994492688
 20
-151.0845173150625
 30
0.0
 10
263.3504846975756
 20
-151.0684322585541
 30
0.0
 10
263.3572989701054
 20
-151.0524311365796
 30
0.0
 10
263.3642408715401
 20
-151.0365153960625
 30
0.0
 10
263.3713089865985
 20
-151.0206864547263
 30
0.0
 10
263.378501870757
 20
-151.0049457176707
 30
0.0
 10
263.3858180319842
 20
-150.9892946081335
 30
0.0
 10
263.3932559027118
 20
-150.9737346128799
 30
0.0
 10
263.4008138067508
 20
-150.9582673333652
 30
0.0
 10
263.4084899365102
 20
-150.9428945163549
 30
0.0
 10
263.4162823723116
 20
-150.927618011513
 30
0.0
 10
263.424189195477
 20
-150.912439573076
 30
0.0
 10
263.4322087617497
 20
-150.8973604026439
 30
0.0
 10
263.440340194156
 20
-150.8823803490338
 30
0.0
 10
263.4485840940235
 20
-150.8674967883713
 30
0.0
 10
263.4569433210904
 20
-150.852703456054
 30
0.0
 10
263.4654234080492
 20
-150.837989968157
 30
0.0
 10
263.4740317959894
 20
-150.8233433659006
 30
0.0
 10
263.4827750433221
 20
-150.8087529752354
 30
0.0
 10
263.491657540537
 20
-150.7942124311642
 30
0.0
 10
263.5006815755559
 20
-150.7797193207678
 30
0.0
 10
263.5098479187447
 20
-150.7652739744488
 30
0.0
 10
263.5191564544803
 20
-150.750878248301
 30
0.0
 10
263.5286066608204
 20
-150.7365346310105
 30
0.0
 10
263.5381978994447
 20
-150.7222457202146
 30
0.0
 10
263.5479295522455
 20
-150.7080139861225
 30
0.0
 10
263.5578010603392
 20
-150.6938417123819
 30
0.0
 10
263.5678119139122
 20
-150.6797310228023
 30
0.0
 10
263.5779616253334
 20
-150.6656839346101
 30
0.0
 10
263.5882497028786
 20
-150.6517024076064
 30
0.0
 10
263.5986756317714
 20
-150.6377883782181
 30
0.0
 10
263.6092388632189
 20
-150.6239437781656
 30
0.0
 10
263.6199388095606
 20
-150.6101705417892
 30
0.0
 10
263.6307748431374
 20
-150.5964706066967
 30
0.0
 10
263.641746296939
 20
-150.5828459113736
 30
0.0
 10
263.6528524657855
 20
-150.5692983920217
 30
0.0
 10
263.6640926074127
 20
-150.5558299797233
 30
0.0
 10
263.6754659432446
 20
-150.5424425982819
 30
0.0
 10
263.6869716588561
 20
-150.5291381626923
 30
0.0
 10
263.6986089042184
 20
-150.5159185780507
 30
0.0
 10
263.710376793828
 20
-150.5027857387152
 30
0.0
 10
263.7222744067947
 20
-150.4897415275681
 30
0.0
 10
263.734300786939
 20
-150.4767878153008
 30
0.0
 10
263.7464549429182
 20
-150.4639264596782
 30
0.0
 10
263.7587358483914
 20
-150.4511593047776
 30
0.0
 10
263.7711424422184
 20
-150.4384881802026
 30
0.0
 10
263.783673628692
 20
-150.4259149002848
 30
0.0
 10
263.7963282777961
 20
-150.4134412632794
 30
0.0
 10
263.8091052254888
 20
-150.4010690505624
 30
0.0
 10
263.8220032740077
 20
-150.3888000258331
 30
0.0
 10
263.8350211921968
 20
-150.3766359343231
 30
0.0
 10
263.8481577158553
 20
-150.3645785020145
 30
0.0
 10
263.8614115481053
 20
-150.3526294348653
 30
0.0
 10
263.8747813597835
 20
-150.3407904180455
 30
0.0
 10
263.8882657898522
 20
-150.3290631151806
 30
0.0
 10
263.9018634458312
 20
-150.3174491676063
 30
0.0
 10
263.915572904252
 20
-150.3059501936329
 30
0.0
 10
263.9293927111302
 20
-150.2945677878203
 30
0.0
 10
263.9433213824602
 20
-150.2833035202655
 30
0.0
 10
263.9573574047286
 20
-150.2721589359013
 30
0.0
 10
263.9714992354476
 20
-150.2611355538091
 30
0.0
 10
263.9857453037075
 20
-150.250234866544
 30
0.0
 10
264.0000940107475
 20
-150.2394583394752
 30
0.0
 10
264.0145437305454
 20
-150.2288074101404
 30
0.0
 10
264.0290928104248
 20
-150.2182834876161
 30
0.0
 10
264.0437395716798
 20
-150.2078879519038
 30
0.0
 10
264.058482310216
 20
-150.1976221533319
 30
0.0
 10
264.073319297209
 20
-150.187487411976
 30
0.0
 10
264.0882487797777
 20
-150.1774850170953
 30
0.0
 10
264.1032689816738
 20
-150.1676162265887
 30
0.0
 10
264.1183781039847
 20
-150.1578822664679
 30
0.0
 10
264.1335743258521
 20
-150.1482843303504
 30
0.0
 10
264.1488558052024
 20
-150.1388235789719
 30
0.0
 10
264.1642206794902
 20
-150.1295011397185
 30
0.0
 10
264.1796670664535
 20
-150.1203181061791
 30
0.0
 10
264.1951930648806
 20
-150.1112755377186
 30
0.0
 10
264.2107967553875
 20
-150.1023744590722
 30
0.0
 10
264.2264762012085
 20
-150.0936158599607
 30
0.0
 10
264.2422294490003
 20
-150.0850006947271
 30
0.0
 10
264.2580545296615
 20
-150.0765298819943
 30
0.0
 10
264.273949459172
 20
-150.068204304344
 30
0.0
 10
264.289912239449
 20
-150.0600248080159
 30
0.0
 10
264.3059408592146
 20
-150.0519922026297
 30
0.0
 10
264.3220332948544
 20
-150.0441072609288
 30
0.0
 10
264.3381875112287
 20
-150.0363707185524
 30
0.0
 10
264.3544014623769
 20
-150.0287832738407
 30
0.0
 10
264.3706730920403
 20
-150.0213455876831
 30
0.0
 10
264.3870003339431
 20
-150.014058283419
 30
0.0
 10
264.4033811118471
 20
-150.0069219467933
 30
0.0
 10
264.4198133395793
 20
-149.9999371259559
 30
0.0
 10
264.4362949215498
 20
-149.9931043314562
 30
0.0
 10
264.4528237547466
 20
-149.9864240361365
 30
0.0
 10
264.4693977336815
 20
-149.9798966747568
 30
0.0
 10
264.4860147600124
 20
-149.9735226431356
 30
0.0
 10
264.5026727580057
 20
-149.9673022966044
 30
0.0
 10
264.5193696947931
 20
-149.9612359477444
 30
0.0
 10
264.5361035995102
 20
-149.9553238638425
 30
0.0
 10
264.5528725671232
 20
-149.9495662653662
 30
0.0
 10
264.5696747215133
 20
-149.9439633280742
 30
0.0
 10
264.5865081013274
 20
-149.9385151929053
 30
0.0
 10
264.6033704290609
 20
-149.933221988829
 30
0.0
 10
264.6202587431213
 20
-149.928083872927
 30
0.0
 10
264.6371689352151
 20
-149.9231010867541
 30
0.0
 10
264.6540953647491
 20
-149.9182740154713
 30
0.0
 10
264.6710309317748
 20
-149.9136032137201
 30
0.0
 10
264.6879682600888
 20
-149.9090893298622
 30
0.0
 10
264.7049028801344
 20
-149.9047328250935
 30
0.0
 10
264.7218392958219
 20
-149.900533365824
 30
0.0
 10
264.7388002018156
 20
-149.8964888049198
 30
0.0
 10
264.7558373743663
 20
-149.8925938190998
 30
0.0
 10
264.7730393588353
 20
-149.8888386073955
 30
0.0
 10
264.7905258099731
 20
-149.885208632783
 30
0.0
 10
264.8084119490264
 20
-149.8816871780149
 30
0.0
 10
264.8267217288516
 20
-149.8782632723351
 30
0.0
 10
264.8452305948161
 20
-149.8749477866608
 30
0.0
 10
264.8632375796401
 20
-149.8717991943493
 30
0.0
 10
264.8793143266872
 20
-149.8689561831082
 30
0.0
 10
264.8911670921807
 20
-149.8666653279971
 30
0.0
 10
264.8958787275256
 20
-149.8652773752621
 30
0.0
 10
264.8909458544916
 20
-149.8651667284353
 30
0.0
 10
264.8766197682317
 20
-149.8665116205249
 30
0.0
 10
264.859941435597
 20
-149.8688724695675
 30
0.0
 10
264.8603192031704
 20
-149.8705466257989
 30
0.0
 10
264.9151516260864
 20
-149.8678022909447
 30
0.0
 10
265.0818867986854
 20
-149.8543162849178
 30
0.0
 10
265.4291193526839
 20
-149.8215573675192
 30
0.0
 10
266.0078995929664
 20
-149.7611417382687
 30
0.0
 10
266.7863224868419
 20
-149.6710987227078
 30
0.0
 10
267.697010911451
 20
-149.5533641535447
 30
0.0
 10
268.676854637478
 20
-149.4107864246974
 30
0.0
 10
269.681771221501
 20
-149.2456721853351
 30
0.0
 10
270.6873721425494
 20
-149.0593512969718
 30
0.0
 10
271.6839225567202
 20
-148.8522668821667
 30
0.0
 10
272.6703704955486
 20
-148.6242576072824
 30
0.0
 10
273.64960966404
 20
-148.3748476180238
 30
0.0
 10
274.6254914988405
 20
-148.1034692894797
 30
0.0
 10
275.6013197187773
 20
-147.8096075097324
 30
0.0
 10
276.5793194216598
 20
-147.4928835020458
 30
0.0
 10
277.5606151424508
 20
-147.1531030951964
 30
0.0
 10
278.5453970817362
 20
-146.7902879538345
 30
0.0
 10
279.5331045143873
 20
-146.4046953581676
 30
0.0
 10
280.5225672127492
 20
-145.9968200924282
 30
0.0
 10
281.5121092755191
 20
-145.5673673819374
 30
0.0
 10
282.4996421761004
 20
-145.1171907467744
 30
0.0
 10
283.482771636651
 20
-144.647197701792
 30
0.0
 10
284.4589261321701
 20
-144.1582373885838
 30
0.0
 10
285.4254882530617
 20
-143.6509985367244
 30
0.0
 10
286.3798954654269
 20
-143.1259511754121
 30
0.0
 10
287.3196874975272
 20
-142.5833509546665
 30
0.0
 10
288.2425061183699
 20
-142.0232961578656
 30
0.0
 10
289.1460694977578
 20
-141.4458123526217
 30
0.0
 10
290.0281403136774
 20
-140.8509443128162
 30
0.0
 10
290.8864943223772
 20
-140.2388487610441
 30
0.0
 10
291.7188876456825
 20
-139.6098907590782
 30
0.0
 10
292.5230199634002
 20
-138.9647475181656
 30
0.0
 10
293.2964940432547
 20
-138.3045191245751
 30
0.0
 10
294.0367751334249
 20
-137.6308407510757
 30
0.0
 10
294.7411565229936
 20
-136.945984962367
 30
0.0
 10
295.4067427675324
 20
-136.2529315159028
 30
0.0
 10
296.0304714483951
 20
-135.5553632621597
 30
0.0
 10
296.6092038965681
 20
-134.8575279753817
 30
0.0
 10
297.1399122365829
 20
-134.1639118396644
 30
0.0
 10
297.619957678582
 20
-133.4787332729731
 30
0.0
 10
298.0473929332582
 20
-132.80538642696
 30
0.0
 10
298.4211865617572
 20
-132.1460320058109
 30
0.0
 10
298.7412968601144
 20
-131.5014757789378
 30
0.0
 10
299.0085995666061
 20
-130.8713273748012
 30
0.0
 10
299.2247208661139
 20
-130.2543411370221
 30
0.0
 10
299.3918272923772
 20
-129.6488409562927
 30
0.0
 10
299.5124035831295
 20
-129.0531695962201
 30
0.0
 10
299.5890394893194
 20
-128.4661163013388
 30
0.0
 10
299.624255587032
 20
-127.8872470705706
 30
0.0
 10
299.6204110154094
 20
-127.3170268471474
 30
0.0
 10
299.5797241948902
 20
-126.7566513375832
 30
0.0
 10
299.5043874594689
 20
-126.2076319213566
 30
0.0
 10
299.3967047592909
 20
-125.6713077493683
 30
0.0
 10
299.2591765689225
 20
-125.1484731018162
 30
0.0
 10
299.0944955500302
 20
-124.639212749853
 30
0.0
 10
298.9054588604913
 20
-124.142935123198
 30
0.0
 10
298.6948211306822
 20
-123.6585488362381
 30
0.0
 10
298.4651162386589
 20
-123.1847189686015
 30
0.0
 10
298.2184748610578
 20
-122.7201461982731
 30
0.0
 10
297.9564629794231
 20
-122.2638235433114
 30
0.0
 10
297.6799651820467
 20
-121.8152365397577
 30
0.0
 10
297.389133072557
 20
-121.3744828880006
 30
0.0
 10
297.0834062802404
 20
-120.9423046486194
 30
0.0
 10
296.7615937174603
 20
-120.5200488264819
 30
0.0
 10
296.4219944209189
 20
-120.1095812119212
 30
0.0
 10
296.0625397354606
 20
-119.7131753736826
 30
0.0
 10
295.6809441229834
 20
-119.3333921240303
 30
0.0
 10
295.274855585727
 20
-118.9729593257461
 30
0.0
 10
294.8419968724243
 20
-118.6346593957487
 30
0.0
 10
294.3802872271255
 20
-118.3212312696502
 30
0.0
 10
293.8879354047072
 20
-118.0352923207445
 30
0.0
 10
293.3635004671483
 20
-117.7792818888324
 30
0.0
 10
292.8059226900941
 20
-117.5554244583045
 30
0.0
 10
292.2145297440052
 20
-117.365708870347
 30
0.0
 10
291.589026263098
 20
-117.2118781844262
 30
0.0
 10
290.9294758282708
 20
-117.09542427385
 30
0.0
 10
290.2362820700598
 20
-117.0175827247688
 30
0.0
 10
289.5101718403667
 20
-116.9793260224193
 30
0.0
 10
288.7521805307724
 20
-116.9813550485909
 30
0.0
 10
287.9636382943573
 20
-117.0240902784152
 30
0.0
 10
287.1461556271957
 20
-117.1076649547409
 30
0.0
 10
286.3016068228542
 20
-117.2319228569688
 30
0.0
 10
285.4321101450845
 20
-117.3964227265362
 30
0.0
 10
284.5400040734592
 20
-117.6004502904445
 30
0.0
 10
283.6278194321273
 20
-117.8430379442335
 30
0.0
 10
282.6982480251729
 20
-118.1229907968912
 30
0.0
 10
281.7541091891167
 20
-118.4389165037845
 30
0.0
 10
280.7983156541555
 20
-118.7892564013891
 30
0.0
 10
279.8338394901679
 20
-119.1723165187281
 30
0.0
 10
278.8636782620371
 20
-119.5862981451959
 30
0.0
 10
277.8908212206763
 20
-120.0293281603128
 30
0.0
 10
276.9182153716807
 20
-120.4994893437239
 30
0.0
 10
275.9487313257956
 20
-120.9948507598769
 30
0.0
 10
274.9851287907118
 20
-121.5134982827586
 30
0.0
 10
274.0300215274337
 20
-122.0535653073465
 30
0.0
 10
273.0858419334467
 20
-122.6132633566509
 30
0.0
 10
272.1548063575028
 20
-123.1909114679943
 30
0.0
 10
271.2388835972234
 20
-123.7849621545048
 30
0.0
 10
270.339769993516
 20
-124.3940211107805
 30
0.0
 10
269.4588743316842
 20
-125.0168584440431
 30
0.0
 10
268.5973140464609
 20
-125.6524115533192
 30
0.0
 10
267.755920840246
 20
-126.2997841601822
 30
0.0
 10
266.9352475368615
 20
-126.9582532667856
 30
0.0
 10
266.1355614651542
 20
-127.6273034070935
 30
0.0
 10
265.3568083830705
 20
-128.3067097542929
 30
0.0
 10
264.5985382988999
 20
-128.9966827246736
 30
0.0
 10
263.8598049589261
 20
-129.6980584878567
 30
0.0
 10
263.1390899082298
 20
-130.4124622947522
 30
0.0
 10
262.4343636122411
 20
-131.142277952805
 30
0.0
 10
261.7434741052221
 20
-131.8901346701935
 30
0.0
 10
261.0651209498842
 20
-132.6575106242573
 30
0.0
 10
260.4006658494217
 20
-133.4420442520515
 30
0.0
 10
259.7568457350481
 20
-134.2333990065245
 30
0.0
 10
259.1489318848954
 20
-135.0082882849715
 30
0.0
 10
258.6028977850237
 20
-135.7267379175866
 30
0.0
 10
258.1535651968976
 20
-136.3340961803276
 30
0.0
 10
257.8340594698375
 20
-136.7759239536731
 30
0.0
 10
257.6498624524274
 20
-137.0361806724716
 30
0.0
 10
257.5660886736117
 20
-137.158228510122
 30
0.0
 10
257.541930288032
 20
-137.1963142684817
 30
0.0
 10
257.5450719972431
 20
-137.1946073965741
 30
0.0
 10
257.5553372399136
 20
-137.1812865103939
 30
0.0
 10
257.56278238025
 20
-137.1706198474775
 30
0.0
 10
257.56420067726
 20
-137.1675141243543
 30
0.0
 10
257.5599144436639
 20
-137.1718501837396
 30
0.0
 10
257.5515552661526
 20
-137.1815521913546
 30
0.0
 10
257.5408320367151
 20
-137.1943306040016
 30
0.0
 10
257.5290230014273
 20
-137.2084289928798
 30
0.0
 10
257.5168911086586
 20
-137.2227755330132
 30
0.0
 10
257.5047896896409
 20
-137.2368580470652
 30
0.0
 10
257.4928148627561
 20
-137.2505234803452
 30
0.0
 10
257.4809352711496
 20
-137.2638016253558
 30
0.0
 10
257.4690778232461
 20
-137.2767860361851
 30
0.0
 10
257.4571728817582
 20
-137.289569715764
 30
0.0
 10
257.4451712127681
 20
-137.3022198315271
 30
0.0
 10
257.4330451894387
 20
-137.314774694098
 30
0.0
 10
257.4207834433634
 20
-137.3272503570466
 30
0.0
 10
257.4083843686251
 20
-137.3396492399766
 30
0.0
 10
257.3958509260496
 20
-137.3519672237161
 30
0.0
 10
257.3831873645592
 20
-137.3641982256438
 30
0.0
 10
257.3703975859674
 20
-137.3763365432283
 30
0.0
 10
257.3574846012209
 20
-137.3883776823223
 30
0.0
 10
257.3444505650709
 20
-137.4003183627428
 30
0.0
 10
257.3312970300769
 20
-137.4121561971749
 30
0.0
 10
257.3180252186994
 20
-137.4238893277878
 30
0.0
 10
257.304636228993
 20
-137.4355161444576
 30
0.0
 10
257.2911311584122
 20
-137.4470351115579
 30
0.0
 10
257.2775111617058
 20
-137.4584446846679
 30
0.0
 10
257.2637774670124
 20
-137.4697432855381
 30
0.0
 10
257.2499313709715
 20
-137.4809293070618
 30
0.0
 10
257.235974226745
 20
-137.4920011289729
 30
0.0
 10
257.2219074323504
 20
-137.5029571337473
 30
0.0
 10
257.207732422147
 20
-137.5137957184875
 30
0.0
 10
257.1934506617369
 20
-137.5245153022036
 30
0.0
 10
257.1790636454622
 20
-137.5351143294982
 30
0.0
 10
257.1645728954648
 20
-137.5455912720221
 30
0.0
 10
257.1499799614735
 20
-137.5559446288382
 30
0.0
 10
257.1352864207867
 20
-137.5661729264371
 30
0.0
 10
257.1204938781838
 20
-137.576274718786
 30
0.0
 10
257.1056039656718
 20
-137.5862485875519
 30
0.0
 10
257.0906183420709
 20
-137.5960931425001
 30
0.0
 10
257.0755386924802
 20
-137.6058070220209
 30
0.0
 10
257.0603667276652
 20
-137.6153888937232
 30
0.0
 10
257.0451041834044
 20
-137.6248374550499
 30
0.0
 10
257.02975281981
 20
-137.6341514338874
 30
0.0
 10
257.0143144206396
 20
-137.643329589153
 30
0.0
 10
256.9987907925965
 20
-137.6523707113563
 30
0.0
 10
256.9831837646219
 20
-137.6612736231346
 30
0.0
 10
256.9674951871759
 20
-137.6700371797637
 30
0.0
 10
256.9517269315081
 20
-137.6786602696471
 30
0.0
 10
256.9358808889149
 20
-137.6871418147829
 30
0.0
 10
256.9199589699845
 20
-137.6954807712118
 30
0.0
 10
256.90396310383
 20
-137.7036761294438
 30
0.0
 10
256.8878952373106
 20
-137.7117269148652
 30
0.0
 10
256.8717573342425
 20
-137.7196321881244
 30
0.0
 10
256.855551374599
 20
-137.7273910454962
 30
0.0
 10
256.8392793537012
 20
-137.7350026192249
 30
0.0
 10
256.8229432814011
 20
-137.742466077845
 30
0.0
 10
256.806545181256
 20
-137.7497806264801
 30
0.0
 10
256.7900870896954
 20
-137.7569455071184
 30
0.0
 10
256.7735710551823
 20
-137.7639599988664
 30
0.0
 10
256.7569991373678
 20
-137.7708234181792
 30
0.0
 10
256.7403734062418
 20
-137.7775351190673
 30
0.0
 10
256.7236959412784
 20
-137.7840944932816
 30
0.0
 10
256.7069688305783
 20
-137.7905009704733
 30
0.0
 10
256.6901941700088
 20
-137.7967540183326
 30
0.0
 10
256.67337406234
 20
-137.8028531427018
 30
0.0
 10
256.6565106163821
 20
-137.8087978876672
 30
0.0
 10
256.6396059461201
 20
-137.8145878356259
 30
0.0
 10
256.6226621698506
 20
-137.8202226073308
 30
0.0
 10
256.6056814093173
 20
-137.8257018619111
 30
0.0
 10
256.5886657888496
 20
-137.8310252968702
 30
0.0
 10
256.5716174345031
 20
-137.8361926480609
 30
0.0
 10
256.5545384732021
 20
-137.8412036896371
 30
0.0
 10
256.5374310318852
 20
-137.8460582339832
 30
0.0
 10
256.5202972366547
 20
-137.8507561316209
 30
0.0
 10
256.5031392119288
 20
-137.8552972710934
 30
0.0
 10
256.485959079599
 20
-137.8596815788273
 30
0.0
 10
256.468758958195
 20
-137.8639090189739
 30
0.0
 10
256.4515409620609
 20
-137.8679795932266
 30
0.0
 10
256.4343072005515
 20
-137.8718933406192
 30
0.0
 10
256.4170597772573
 20
-137.8756503373031
 30
0.0
 10
256.3998007892699
 20
-137.8792506963055
 30
0.0
 10
256.3825323264877
 20
-137.8826945672691
 30
0.0
 10
256.3652564709496
 20
-137.8859821361751
 30
0.0
 10
256.3479752961433
 20
-137.8891136250492
 30
0.0
 10
256.3306908661818
 20
-137.8920892916496
 30
0.0
 10
256.3134052346764
 20
-137.8949094291301
 30
0.0
 10
256.2961204430814
 20
-137.8975743656706
 30
0.0
 10
256.2788385183178
 20
-137.9000844640566
 30
0.0
 10
256.2615614696814
 20
-137.9024401211897
 30
0.0
 10
256.2442912855507
 20
-137.9046417675165
 30
0.0
 10
256.2270299313433
 20
-137.9066898663863
 30
0.0
 10
256.2097793515349
 20
-137.908584913402
 30
0.0
 10
256.1925414800992
 20
-137.9103274359203
 30
0.0
 10
256.1753182646415
 20
-137.9119179929819
 30
0.0
 10
256.1581117082255
 20
-137.9133571760785
 30
0.0
 10
256.1409239269336
 20
-137.9146456112031
 30
0.0
 10
256.1237572074724
 20
-137.9157839624249
 30
0.0
 10
256.1066140251408
 20
-137.9167729365516
 30
0.0
 10
256.0894969488896
 20
-137.9176132870172
 30
0.0
 10
256.0724083253324
 20
-137.9183058128139
 30
0.0
 10
256.0553496191061
 20
-137.9188513452651
 30
0.0
 10
256.0383203345629
 20
-137.9192507127195
 30
0.0
 10
256.0213166137818
 20
-137.9195046731692
 30
0.0
 10
256.0043299760248
 20
-137.9196138113273
 30
0.0
 10
255.9873472647305
 20
-137.9195784159422
 30
0.0
 10
255.9703537185749
 20
-137.919398389764
 30
0.0
 10
255.9533382995937
 20
-137.9190732840432
 30
0.0
 10
255.9362948902061
 20
-137.9186024144218
 30
0.0
 10
255.9192214640935
 20
-137.9179849777435
 30
0.0
 10
255.9021186529652
 20
-137.9172201379824
 30
0.0
 10
255.8849884690719
 20
-137.916307076865
 30
0.0
 10
255.8678334318038
 20
-137.9152450170213
 30
0.0
 10
255.8506560904655
 20
-137.9140332281607
 30
0.0
 10
255.8334588322446
 20
-137.9126710250105
 30
0.0
 10
255.8162438547234
 20
-137.9111577626911
 30
0.0
 10
255.7990132107146
 20
-137.9094928324629
 30
0.0
 10
255.7817688694295
 20
-137.907675658899
 30
0.0
 10
255.7645127674205
 20
-137.9057056985146
 30
0.0
 10
255.7472468415487
 20
-137.9035824394662
 30
0.0
 10
255.7299730457612
 20
-137.901305401876
 30
0.0
 10
255.7126933567541
 20
-137.8988741384312
 30
0.0
 10
255.6954097735219
 20
-137.8962882350431
 30
0.0
 10
255.6781243144227
 20
-137.893547311458
 30
0.0
 10
255.6608390138575
 20
-137.8906510217879
 30
0.0
 10
255.6435559194979
 20
-137.8875990549638
 30
0.0
 10
255.6262770902773
 20
-137.8843911351289
 30
0.0
 10
255.6090045950235
 20
-137.8810270219907
 30
0.0
 10
255.591740511507
 20
-137.8775065111445
 30
0.0
 10
255.5744869257011
 20
-137.8738294343763
 30
0.0
 10
255.557245931112
 20
-137.8699956599484
 30
0.0
 10
255.5400196281043
 20
-137.8660050928683
 30
0.0
 10
255.5228101231869
 20
-137.8618576751402
 30
0.0
 10
255.5056195282575
 20
-137.8575533859974
 30
0.0
 10
255.4884499598128
 20
-137.8530922421152
 30
0.0
 10
255.4713035381331
 20
-137.848474297803
 30
0.0
 10
255.4541823864531
 20
-137.8436996451753
 30
0.0
 10
255.4370886301218
 20
-137.8387684143005
 30
0.0
 10
255.4200243957573
 20
-137.833680773328
 30
0.0
 10
255.4029918103979
 20
-137.8284369285929
 30
0.0
 10
255.3859930006495
 20
-137.8230371246983
 30
0.0
 10
255.3690300918291
 20
-137.8174816445751
 30
0.0
 10
255.3521052071074
 20
-137.8117708095183
 30
0.0
 10
255.335220466647
 20
-137.8059049792016
 30
0.0
 10
255.3183779867403
 20
-137.7998845516671
 30
0.0
 10
255.3015798789451
 20
-137.7937099632939
 30
0.0
 10
255.2848282492208
 20
-137.7873816887421
 30
0.0
 10
255.2681251970637
 20
-137.7809002408735
 30
0.0
 10
255.2514728146436
 20
-137.7742661706498
 30
0.0
 10
255.2348731859424
 20
-137.7674800670063
 30
0.0
 10
255.2183283858945
 20
-137.7605425567035
 30
0.0
 10
255.2018404795313
 20
-137.7534543041545
 30
0.0
 10
255.1854115211285
 20
-137.7462160112295
 30
0.0
 10
255.169043553359
 20
-137.7388284170372
 30
0.0
 10
255.1527386064505
 20
-137.7312922976831
 30
0.0
 10
255.1364986973492
 20
-137.7236084660052
 30
0.0
 10
255.1203258288909
 20
-137.7157777712869
 30
0.0
 10
255.1042219889797
 20
-137.7078010989475
 30
0.0
 10
255.0881891497735
 20
-137.6996793702105
 30
0.0
 10
255.0722292668804
 20
-137.6914135417499
 30
0.0
 10
255.0563442785633
 20
-137.6830046053156
 30
0.0
 10
255.0405361049561
 20
-137.6744535873367
 30
0.0
 10
255.0248066472908
 20
-137.6657615485053
 30
0.0
 10
255.0091577871355
 20
-137.6569295833389
 30
0.0
 10
254.9935913856467
 20
-137.6479588197235
 30
0.0
 10
254.9781092828324
 20
-137.6388504184361
 30
0.0
 10
254.9627132968283
 20
-137.6296055726444
 30
0.0
 10
254.9474052231841
 20
-137.6202255073855
 30
0.0
 10
254.9321868341608
 20
-137.6107114790172
 30
0.0
 10
254.9170598780352
 20
-137.601064774644
 30
0.0
 10
254.9020260784161
 20
-137.5912867115177
 30
0.0
 10
254.8870871335754
 20
-137.5813786364223
 30
0.0
 10
254.8722447158104
 20
-137.5713419250632
 30
0.0
 10
254.8575004708634
 20
-137.5611779814973
 30
0.0
 10
254.8428560174376
 20
-137.5508882376591
 30
0.0
 10
254.8283129468569
 20
-137.54047415304
 30
0.0
 10
254.8138728228948
 20
-137.5299372145553
 30
0.0
 10
254.7995371817428
 20
-137.519278936544
 30
0.0
 10
254.7853075319555
 20
-137.5085008606635
 30
0.0
 10
254.7711853539885
 20
-137.4976045551389
 30
0.0
 10
254.75717209865
 20
-137.486591612432
 30
0.0
 10
254.7432691835082
 20
-137.4754636440365
 30
0.0
 10
254.7294779862348
 20
-137.4642222710833
 30
0.0
 10
254.715799834414
 20
-137.4528691102765
 30
0.0
 10
254.7022359930583
 20
-137.4414057571359
 30
0.0
 10
254.6887876545435
 20
-137.4298337733643
 30
0.0
 10
254.6754559412423
 20
-137.4181546927652
 30
0.0
 10
254.6622419381951
 20
-137.4063700695064
 30
0.0
 10
254.6491467791601
 20
-137.3944815999863
 30
0.0
 10
254.6361718086398
 20
-137.3824913470745
 30
0.0
 10
254.6233188251588
 20
-137.3704020695781
 30
0.0
 10
254.6105903636752
 20
-137.3582175923016
 30
0.0
 10
254.5979898839365
 20
-137.3459430255623
 30
0.0
 10
254.5855215922362
 20
-137.3335844536569
 30
0.0
 10
254.5731894577694
 20
-137.3211474927457
 30
0.0
 10
254.5609948639651
 20
-137.3086339741293
 30
0.0
 10
254.5489324117644
 20
-137.296036151514
 30
0.0
 10
254.5369839152291
 20
-137.2833286020475
 30
0.0
 10
254.5251119257272
 20
-137.2704598249032
 30
0.0
 10
254.5132564851705
 20
-137.257348810331
 30
0.0
 10
254.5013422602512
 20
-137.243896518044
 30
0.0
 10
254.4893070537021
 20
-137.2300272159659
 30
0.0
 10
254.4771649011096
 20
-137.2157770961909
 30
0.0
 10
254.4651135380507
 20
-137.2014419285491
 30
0.0
 10
254.4536806864535
 20
-137.1877731827068
 30
0.0
 10
254.4438686193499
 20
-137.1761628015301
 30
0.0
 10
254.4371956840144
 20
-137.1686731425567
 30
0.0
 10
254.4354489167454
 20
-137.1676549593368
 30
0.0
 10
254.4398751490899
 20
-137.1745846926901
 30
0.0
 10
254.4495043228124
 20
-137.1877212271594
 30
0.0
 10
254.4584243291108
 20
-137.198378855717
 30
0.0
 10
254.4522619864234
 20
-137.1862412924705
 30
0.0
 10
254.4050706320946
 20
-137.1154658331406
 30
0.0
 10
254.2793321721692
 20
-136.9353921532139
 30
0.0
 10
254.0339630083447
 20
-136.592589182215
 30
0.0
 10
253.6466490746511
 20
-136.0627369601522
 30
0.0
 10
253.1434165701388
 20
-135.3909888404746
 30
0.0
 10
252.5613863287756
 20
-134.6364552688742
 30
0.0
 10
251.9321468516662
 20
-133.8481075979058
 30
0.0
 10
251.2763208872183
 20
-133.0574959493712
 30
0.0
 10
250.6044651435419
 20
-132.2807152283908
 30
0.0
 10
249.9201132291016
 20
-131.5233181868114
 30
0.0
 10
249.2228905157709
 20
-130.785127175437
 30
0.0
 10
248.5108138277134
 20
-130.0636956998101
 30
0.0
 10
247.7816596713485
 20
-129.3563113625655
 30
0.0
 10
247.0336024531106
 20
-128.6608851233176
 30
0.0
 10
246.2654008459345
 20
-127.9761659155457
 30
0.0
 10
245.4763640822605
 20
-127.3016359808652
 30
0.0
 10
244.666249525905
 20
-126.6373139458684
 30
0.0
 10
243.8351699410857
 20
-125.9835803137401
 30
0.0
 10
242.983538226187
 20
-125.3410641834809
 30
0.0
 10
242.1120483872436
 20
-124.710588388784
 30
0.0
 10
241.2216785038789
 20
-124.0931530925776
 30
0.0
 10
240.3136990787026
 20
-123.4899356582872
 30
0.0
 10
239.3896747405298
 20
-122.9022905232463
 30
0.0
 10
238.4514546060288
 20
-122.3317412850335
 30
0.0
 10
237.5011514617054
 20
-121.7799632045993
 30
0.0
 10
236.5411123924524
 20
-121.2487576491175
 30
0.0
 10
235.5738844636701
 20
-120.7400214597298
 30
0.0
 10
234.6021785704268
 20
-120.2557140611778
 30
0.0
 10
233.6288332694331
 20
-119.7978240713431
 30
0.0
 10
232.6567791571083
 20
-119.3683360549993
 30
0.0
 10
231.689003707243
 20
-118.9691974469575
 30
0.0
 10
230.7285163771512
 20
-118.6022855419145
 30
0.0
 10
229.7783138688687
 20
-118.2693744658052
 30
0.0
 10
228.8413454170489
 20
-117.9721019417863
 30
0.0
 10
227.9204778917718
 20
-117.7119355330686
 30
0.0
 10
227.0184606510718
 20
-117.4901383684719
 30
0.0
 10
226.1378906544855
 20
-117.3077354698416
 30
0.0
 10
225.2811791954997
 20
-117.1654834246339
 30
0.0
 10
224.45052206974
 20
-117.0638470776673
 30
0.0
 10
223.6478745468934
 20
-117.0029861430252
 30
0.0
 10
222.874931417486
 20
-116.9827526017404
 30
0.0
 10
222.1331116803317
 20
-117.0026983676217
 30
0.0
 10
221.4235468274911
 20
-117.0620912635317
 30
0.0
 10
220.7470710711146
 20
-117.1599359309714
 30
0.0
 10
220.1042117178172
 20
-117.2949963488102
 30
0.0
 10
219.4951781387845
 20
-117.4658178182832
 30
0.0
 10
218.9198486005645
 20
-117.6707477150529
 30
0.0
 10
218.3777560949113
 20
-117.9079554529102
 30
0.0
 10
217.8680773760675
 20
-118.1754530282345
 30
0.0
 10
217.389632275061
 20
-118.4711181882054
 30
0.0
 10
216.9409011172751
 20
-118.7927224458203
 30
0.0
 10
216.5200659988761
 20
-119.1379656819786
 30
0.0
 10
216.125079265892
 20
-119.5045185053013
 30
0.0
 10
215.753759037322
 20
-119.8900725922025
 30
0.0
 10
215.4039056545748
 20
-120.2923975056523
 30
0.0
 10
215.0734300337286
 20
-120.7094015157828
 30
0.0
 10
214.7604857670324
 20
-121.1391938355726
 30
0.0
 10
214.4635983369475
 20
-121.5801454291126
 30
0.0
 10
214.181783825095
 20
-122.0309441699519
 30
0.0
 10
213.9146458505271
 20
-122.4906377085237
 30
0.0
 10
213.6624358575192
 20
-122.9586553178292
 30
0.0
 10
213.4260634389093
 20
-123.4348009360572
 30
0.0
 10
213.2070553096645
 20
-123.9192165321356
 30
0.0
 10
213.007475022734
 20
-124.4123226869583
 30
0.0
 10
212.8298186922418
 20
-124.9147450723272
 30
0.0
 10
212.6768988848248
 20
-125.4272336977362
 30
0.0
 10
212.5517247124944
 20
-125.9505796494636
 30
0.0
 10
212.4573840066092
 20
-126.4855335245806
 30
0.0
 10
212.3969337258263
 20
-127.0327310429671
 30
0.0
 10
212.3733053263737
 20
-127.5926324228183
 30
0.0
 10
212.3892301182249
 20
-128.165480690285
 30
0.0
 10
212.4471852207436
 20
-128.7512798784008
 30
0.0
 10
212.5493577384936
 20
-129.3497911201147
 30
0.0
 10
212.6976231043671
 20
-129.9605428757616
 30
0.0
 10
212.8935318855992
 20
-130.5828497724822
 30
0.0
 10
213.1382995160823
 20
-131.2158347062636
 30
0.0
 10
213.4327952494241
 20
-131.8584508117186
 30
0.0
 10
213.7775289917407
 20
-132.5095022182407
 30
0.0
 10
214.1726366711717
 20
-133.1676637827653
 30
0.0
 10
214.6178665036257
 20
-133.8315001264606
 30
0.0
 10
215.1125697934029
 20
-134.4994839260647
 30
0.0
 10
215.6557001434737
 20
-135.1700132048534
 30
0.0
 10
216.2458236213845
 20
-135.8414275032629
 30
0.0
 10
216.8811407752228
 20
-136.5120230236903
 30
0.0
 10
217.559519962619
 20
-137.1800669350323
 30
0.0
 10
218.2785391735673
 20
-137.843811093483
 30
0.0
 10
219.0355322508298
 20
-138.5015054501025
 30
0.0
 10
219.8276361716557
 20
-139.1514113549754
 30
0.0
 10
220.6518378551164
 20
-139.7918148876296
 30
0.0
 10
221.5050203699258
 20
-140.4210402813241
 30
0.0
 10
222.3840089157852
 20
-141.0374634704089
 30
0.0
 10
223.2856168362016
 20
-141.6395257763397
 30
0.0
 10
224.2066917935439
 20
-142.2257477782307
 30
0.0
 10
225.1441622761258
 20
-142.7947434731382
 30
0.0
 10
226.095084526567
 20
-143.3452348313396
 30
0.0
 10
227.0566892629522
 20
-143.8760666462115
 30
0.0
 10
228.0264260841363
 20
-144.3862210941146
 30
0.0
 10
229.0020018093604
 20
-144.874830812902
 30
0.0
 10
229.9814083460716
 20
-145.3411889019687
 30
0.0
 10
230.9629370472193
 20
-145.7847542854294
 30
0.0
 10
231.9451802015165
 20
-146.2051512940361
 30
0.0
 10
232.9270271373606
 20
-146.6021633400437
 30
0.0
 10
233.9076730849542
 20
-146.9757226047161
 30
0.0
 10
234.8866673312612
 20
-147.3258989782902
 30
0.0
 10
235.8640260179104
 20
-147.652890854448
 30
0.0
 10
236.8404169281018
 20
-147.9570179287404
 30
0.0
 10
237.8173785142507
 20
-148.238712087622
 30
0.0
 10
238.7974518832934
 20
-148.498496795981
 30
0.0
 10
239.7839782945327
 20
-148.7369385445935
 30
0.0
 10
240.7801656554231
 20
-148.9545480889093
 30
0.0
 10
241.7869197278562
 20
-149.1516095247473
 30
0.0
 10
242.7990126430386
 20
-149.3279314349192
 30
0.0
 10
243.7996302474463
 20
-149.482557833971
 30
0.0
 10
244.754555897759
 20
-149.6135656221098
 30
0.0
 10
245.609264970703
 20
-149.7181974382012
 30
0.0
 10
246.2957435508948
 20
-149.7937727135651
 30
0.0
 10
246.757851190259
 20
-149.8398212734594
 30
0.0
 10
247.0108622819994
 20
-149.8622161371456
 30
0.0
 10
247.1174847753803
 20
-149.8697203271993
 30
0.0
 10
247.1419910471817
 20
-149.8698564928666
 30
0.0
 10
247.1319949444621
 20
-149.8676308104054
 30
0.0
 10
247.115642075101
 20
-149.8657011018504
 30
0.0
 10
247.1057849054035
 20
-149.8650793683094
 30
0.0
 10
247.1057546068726
 20
-149.8658534479457
 30
0.0
 10
247.1142172785408
 20
-149.8677221308911
 30
0.0
 10
247.128353451069
 20
-149.8703117866377
 30
0.0
 10
247.1455169266064
 20
-149.8733211511062
 30
0.0
 10
247.1638439953373
 20
-149.8765590369357
 30
0.0
 10
247.1822831148899
 20
-149.8799295181314
 30
0.0
 10
247.2003873434193
 20
-149.8834003393326
 30
0.0
 10
247.2180689950718
 20
-149.8869732207056
 30
0.0
 10
247.2354055986116
 20
-149.8906629303755
 30
0.0
 10
247.2525185410519
 20
-149.8944854750872
 30
0.0
 10
247.2695132260741
 20
-149.8984530856992
 30
0.0
 10
247.2864597198563
 20
-149.902573243933
 30
0.0
 10
247.3033946357663
 20
-149.9068495701445
 30
0.0
 10
247.3203309103563
 20
-149.9112832073394
 30
0.0
 10
247.3372680609323
 20
-149.9158740276733
 30
0.0
 10
247.3541998641167
 20
-149.9206214429021
 30
0.0
 10
247.3711189413136
 20
-149.925524839296
 30
0.0
 10
247.3880188829297
 20
-149.9305837465347
 30
0.0
 10
247.4048948258228
 20
-149.9357978557328
 30
0.0
 10
247.4217432633001
 20
-149.9411669728788
 30
0.0
 10
247.4385616031161
 20
-149.9466909592585
 30
0.0
 10
247.4553477453725
 20
-149.952369682778
 30
0.0
 10
247.4720997824881
 20
-149.9582029867092
 30
0.0
 10
247.4888158286864
 20
-149.9641906737376
 30
0.0
 10
247.505493946976
 20
-149.9703325003494
 30
0.0
 10
247.5221321346344
 20
-149.9766281768082
 30
0.0
 10
247.5387283359807
 20
-149.9830773693406
 30
0.0
 10
247.5552804627222
 20
-149.9896797026024
 30
0.0
 10
247.5717864120349
 20
-149.9964347615941
 30
0.0
 10
247.5882440790968
 20
-150.0033420928512
 30
0.0
 10
247.6046513642756
 20
-150.0104012050421
 30
0.0
 10
247.6210061764935
 20
-150.0176115691937
 30
0.0
 10
247.6373064344035
 20
-150.0249726187368
 30
0.0
 10
247.6535500666125
 20
-150.0324837495027
 30
0.0
 10
247.6697350117
 20
-150.0401443197444
 30
0.0
 10
247.6858592183794
 20
-150.0479536502069
 30
0.0
 10
247.7019206459007
 20
-150.0559110242538
 30
0.0
 10
247.7179172646696
 20
-150.0640156880408
 30
0.0
 10
247.7338470570096
 20
-150.0722668507279
 30
0.0
 10
247.7497080179999
 20
-150.0806636847213
 30
0.0
 10
247.765498156341
 20
-150.0892053259403
 30
0.0
 10
247.7812154952169
 20
-150.0978908741071
 30
0.0
 10
247.7968580731437
 20
-150.1067193930575
 30
0.0
 10
247.8124239447989
 20
-150.1156899110722
 30
0.0
 10
247.8279111818328
 20
-150.1248014212294
 30
0.0
 10
247.8433178736665
 20
-150.134052881779
 30
0.0
 10
247.8586421282757
 20
-150.1434432165369
 30
0.0
 10
247.8738820729628
 20
-150.1529713153019
 30
0.0
 10
247.889035855118
 20
-150.1626360342921
 30
0.0
 10
247.9041016429693
 20
-150.1724361966025
 30
0.0
 10
247.9190776263196
 20
-150.182370592683
 30
0.0
 10
247.9339620172712
 20
-150.1924379808352
 30
0.0
 10
247.9487530509368
 20
-150.2026370877291
 30
0.0
 10
247.9634489861358
 20
-150.2129666089389
 30
0.0
 10
247.9780481060765
 20
-150.223425209496
 30
0.0
 10
247.9925487190216
 20
-150.2340115244611
 30
0.0
 10
248.0069491589384
 20
-150.2447241595128
 30
0.0
 10
248.0212477861319
 20
-150.2555616915534
 30
0.0
 10
248.0354429878612
 20
-150.2665226693301
 30
0.0
 10
248.0495331789378
 20
-150.2776056140734
 30
0.0
 10
248.0635168023063
 20
-150.2888090201491
 30
0.0
 10
248.0773923296063
 20
-150.3001313557256
 30
0.0
 10
248.0911582617154
 20
-150.311571063455
 30
0.0
 10
248.1048131292732
 20
-150.3231265611673
 30
0.0
 10
248.118355493185
 20
-150.334796242577
 30
0.0
 10
248.1317839451062
 20
-150.3465784780022
 30
0.0
 10
248.1450971079054
 20
-150.3584716150944
 30
0.0
 10
248.1582936361081
 20
-150.3704739795793
 30
0.0
 10
248.1713722163183
 20
-150.3825838760075
 30
0.0
 10
248.1843315676201
 20
-150.3947995885149
 30
0.0
 10
248.1971704419569
 20
-150.4071193815914
 30
0.0
 10
248.2098876244912
 20
-150.4195415008599
 30
0.0
 10
248.2224819339415
 20
-150.4320641738615
 30
0.0
 10
248.2349522228987
 20
-150.4446856108511
 30
0.0
 10
248.2472973781215
 20
-150.4574040055969
 30
0.0
 10
248.259516320807
 20
-150.4702175361854
 30
0.0
 10
248.2716080068371
 20
-150.483124365823
 30
0.0
 10
248.2835714269946
 20
-150.4961226436302
 30
0.0
 10
248.2954056071458
 20
-150.509210505416
 30
0.0
 10
248.3071096083868
 20
-150.5223860744265
 30
0.0
 10
248.318682527153
 20
-150.5356474620675
 30
0.0
 10
248.3301234953076
 20
-150.5489927686232
 30
0.0
 10
248.3414316802421
 20
-150.5624200840284
 30
0.0
 10
248.3526062850497
 20
-150.5759274888095
 30
0.0
 10
248.3636465488647
 20
-150.5895130553636
 30
0.0
 10
248.3745517474702
 20
-150.6031748497806
 30
0.0
 10
248.3853211942359
 20
-150.6169109343503
 30
0.0
 10
248.395954241303
 20
-150.6307193706469
 30
0.0
 10
248.4064502806247
 20
-150.6445982225266
 30
0.0
 10
248.4168087439496
 20
-150.65854555741
 30
0.0
 10
248.4270291001548
 20
-150.6725594429066
 30
0.0
 10
248.4371108476901
 20
-150.6866379345177
 30
0.0
 10
248.4470534998006
 20
-150.7007790497221
 30
0.0
 10
248.4568565615429
 20
-150.7149807258702
 30
0.0
 10
248.4665195016925
 20
-150.7292407664223
 30
0.0
 10
248.4760417308558
 20
-150.7435567949609
 30
0.0
 10
248.4854226101269
 20
-150.7579262607749
 30
0.0
 10
248.4946615309997
 20
-150.7723465715927
 30
0.0
 10
248.5037581207144
 20
-150.7868154575879
 30
0.0
 10
248.5127126246767
 20
-150.8013316725392
 30
0.0
 10
248.5215264746282
 20
-150.8158960679753
 30
0.0
 10
248.5302029409946
 20
-150.8305128819953
 30
0.0
 10
248.5387475439007
 20
-150.8451906764618
 30
0.0
 10
248.547167602546
 20
-150.8599417967071
 30
0.0
 10
248.5554698329673
 20
-150.8747783250639
 30
0.0
 10
248.5636584529249
 20
-150.889708649706
 30
0.0
 10
248.5717351282489
 20
-150.9047371275098
 30
0.0
 10
248.579699639197
 20
-150.919865021548
 30
0.0
 10
248.5875506586296
 20
-150.9350917014451
 30
0.0
 10
248.5952863624934
 20
-150.9504156201385
 30
0.0
 10
248.6029048099342
 20
-150.9658349395511
 30
0.0
 10
248.6104041296878
 20
-150.9813478482233
 30
0.0
 10
248.6177825797773
 20
-150.9969526715022
 30
0.0
 10
248.6250385411679
 20
-151.0126478699779
 30
0.0
 10
248.6321704872166
 20
-151.0284319942252
 30
0.0
 10
248.6391769519955
 20
-151.0443036345622
 30
0.0
 10
248.6460565069161
 20
-151.0602613824902
 30
0.0
 10
248.6528077471458
 20
-151.0763038072563
 30
0.0
 10
248.6594292857564
 20
-151.0924294448219
 30
0.0
 10
248.6659197527011
 20
-151.1086367948176
 30
0.0
 10
248.6722777961694
 20
-151.1249243215881
 30
0.0
 10
248.6785020847011
 20
-151.1412904566835
 30
0.0
 10
248.6845913092174
 20
-151.1577336013699
 30
0.0
 10
248.6905441846516
 20
-151.1742521285921
 30
0.0
 10
248.6963594511617
 20
-151.1908443843192
 30
0.0
 10
248.7020358750294
 20
-151.2075086884174
 30
0.0
 10
248.7075722493635
 20
-151.2242433352378
 30
0.0
 10
248.7129673947103
 20
-151.2410465940792
 30
0.0
 10
248.7182201596294
 20
-151.2579167096245
 30
0.0
 10
248.7233294212646
 20
-151.2748519024041
 30
0.0
 10
248.7282940859194
 20
-151.2918503693029
 30
0.0
 10
248.7331130896385
 20
-151.3089102841131
 30
0.0
 10
248.7377853987848
 20
-151.3260297981234
 30
0.0
 10
248.7423100106106
 20
-151.3432070407374
 30
0.0
 10
248.7466859538157
 20
-151.3604401201135
 30
0.0
 10
248.7509122890912
 20
-151.3777271238227
 30
0.0
 10
248.7549881096464
 20
-151.3950661195228
 30
0.0
 10
248.7589125417186
 20
-151.4124551556456
 30
0.0
 10
248.762684745064
 20
-151.4298922620993
 30
0.0
 10
248.7663039134316
 20
-151.4473754509844
 30
0.0
 10
248.769769275018
 20
-151.464902717323
 30
0.0
 10
248.773080092903
 20
-151.4824720398019
 30
0.0
 10
248.7762356654675
 20
-151.5000813815288
 30
0.0
 10
248.77923532679
 20
-151.5177286908006
 30
0.0
 10
248.7820784470241
 20
-151.5354119018834
 30
0.0
 10
248.7847644327557
 20
-151.5531289358051
 30
0.0
 10
248.7872927273385
 20
-151.5708777011568
 30
0.0
 10
248.7896628112096
 20
-151.5886560949057
 30
0.0
 10
248.7918742021819
 20
-151.6064620032166
 30
0.0
 10
248.7939264557164
 20
-151.6242933022819
 30
0.0
 10
248.7958191651713
 20
-151.6421478591607
 30
0.0
 10
248.7975519620292
 20
-151.6600235326239
 30
0.0
 10
248.7991245161005
 20
-151.6779181740064
 30
0.0
 10
248.8005365357059
 20
-151.6958296280656
 30
0.0
 10
248.8017877678341
 20
-151.7137557338447
 30
0.0
 10
248.8028779982767
 20
-151.7316943255398
 30
0.0
 10
248.8038070517401
 20
-151.7496432333721
 30
0.0
 10
248.8045747919338
 20
-151.7676002844623
 30
0.0
 10
248.8051811216352
 20
-151.7855633037063
 30
0.0
 10
248.8056259827304
 20
-151.8035301146533
 30
0.0
 10
248.8059093562325
 20
-151.8214985403833
 30
0.0
 10
248.8060312622757
 20
-151.8394664043849
 30
0.0
 10
248.8059917600854
 20
-151.8574315314321
 30
0.0
 10
248.8057909479248
 20
-151.8753917484609
 30
0.0
 10
248.8054289630157
 20
-151.8933448854468
 30
0.0
 10
248.8049059814342
 20
-151.9112887762852
 30
0.0
 10
248.8042222179782
 20
-151.9292212596757
 30
0.0
 10
248.8033779260083
 20
-151.9471401800132
 30
0.0
 10
248.8023733972636
 20
-151.9650433882792
 30
0.0
 10
248.8012089616583
 20
-151.982928742921
 30
0.0
 10
248.7998849870727
 20
-152.0007941106892
 30
0.0
 10
248.7984018791598
 20
-152.0186373673849
 30
0.0
 10
248.7967600811964
 20
-152.0364563984519
 30
0.0
 10
248.7949600740029
 20
-152.054249099351
 30
0.0
 10
248.7930023759339
 20
-152.0720133757008
 30
0.0
 10
248.790887542881
 20
-152.089747143302
 30
0.0
 10
248.7886161681127
 20
-152.1074483284115
 30
0.0
 10
248.7861888816124
 20
-152.1251148690189
 30
0.0
 10
248.7836063483777
 20
-152.1427447183351
 30
0.0
 10
248.7808692650235
 20
-152.160335852035
 30
0.0
 10
248.7779783541699
 20
-152.1778862805824
 30
0.0
 10
248.7749343567994
 20
-152.1953940665198
 30
0.0
 10
248.771738024425
 20
-152.2128573430233
 30
0.0
 10
248.7683901158414
 20
-152.2302743235021
 30
0.0
 10
248.7648914073802
 20
-152.2476432824996
 30
0.0
 10
248.7612427300001
 20
-152.2649624775651
 30
0.0
 10
248.7574450485802
 20
-152.2822299756921
 30
0.0
 10
248.7534995934506
 20
-152.2994433574253
 30
0.0
 10
248.749408033858
 20
-152.3165993141287
 30
0.0
 10
248.7451726386793
 20
-152.3336932505219
 30
0.0
 10
248.7407962947982
 20
-152.3507191723245
 30
0.0
 10
248.7362821526686
 20
-152.3676703719189
 30
0.0
 10
248.731632570834
 20
-152.3845416640579
 30
0.0
 10
248.7268470080854
 20
-152.4013340148287
 30
0.0
 10
248.7219186934327
 20
-152.4180620619671
 30
0.0
 10
248.7168304788797
 20
-152.434763811945
 30
0.0
 10
248.711551456912
 20
-152.451509220952
 30
0.0
 10
248.7060378203616
 20
-152.468400095872
 30
0.0
 10
248.7002438613829
 20
-152.4855481163585
 30
0.0
 10
248.6941510970296
 20
-152.5030125422349
 30
0.0
 10
248.6878233418762
 20
-152.5206785161958
 30
0.0
 10
248.6814897875061
 20
-152.5380682486958
 30
0.0
 10
248.6756421740856
 20
-152.5541114098141
 30
0.0
 10
248.6711012582312
 20
-152.5669691224236
 30
0.0
 10
248.6689602491826
 20
-152.5741136877952
 30
0.0
 10
248.6702558517374
 20
-152.573000342306
 30
0.0
 10
248.6751749285284
 20
-152.562777800694
 30
0.0
 10
248.6816294141479
 20
-152.5474558491517
 30
0.0
 10
248.6832041376142
 20
-152.5406000458832
 30
0.0
 10
248.6669292002107
 20
-152.570663520438
 30
0.0
 10
248.6120988257747
 20
-152.6843538560845
 30
0.0
 10
248.4926467601725
 20
-152.9425152537418
 30
0.0
 10
248.2865392534259
 20
-153.4006359397672
 30
0.0
 10
247.9976960368563
 20
-154.0612859305322
 30
0.0
 10
247.6551623096721
 20
-154.8722943828138
 30
0.0
 10
247.2897904610029
 20
-155.7747156000871
 30
0.0
 10
246.9249211019532
 20
-156.7228293358902
 30
0.0
 10
246.5746158780508
 20
-157.6887393217002
 30
0.0
 10
246.2455024021442
 20
-158.6593134076546
 30
0.0
 10
245.9395062269238
 20
-159.6310041925004
 30
0.0
 10
245.6562091104844
 20
-160.6051925313065
 30
0.0
 10
245.3944191854731
 20
-161.5849932509933
 30
0.0
 10
245.1530068800266
 20
-162.5734890899171
 30
0.0
 10
244.9312247134687
 20
-163.5729966898877
 30
0.0
 10
244.7287370402405
 20
-164.5849282239814
 30
0.0
 10
244.5455273639268
 20
-165.6099153279821
 30
0.0
 10
244.3817826296135
 20
-166.6479924180081
 30
0.0
 10
244.2377999907132
 20
-167.6987432686052
 30
0.0
 10
244.1139277963004
 20
-168.7613840455654
 30
0.0
 10
244.0105357366683
 20
-169.8347927626229
 30
0.0
 10
243.9280035070886
 20
-170.9175091953911
 30
0.0
 10
243.8667179309724
 20
-172.0077289748243
 30
0.0
 10
243.8270717292063
 20
-173.1033068182041
 30
0.0
 10
243.8094605578961
 20
-174.2017740323217
 30
0.0
 10
243.8142772828399
 20
-175.3003696190646
 30
0.0
 10
243.841903802293
 20
-176.3960812578082
 30
0.0
 10
243.8927012669175
 20
-177.4856915814788
 30
0.0
 10
243.9669995026538
 20
-178.5658261477433
 30
0.0
 10
244.065086127408
 20
-179.6330012708594
 30
0.0
 10
244.1871955493834
 20
-180.6836712882729
 30
0.0
 10
244.3334978805013
 20
-181.7142754350986
 30
0.0
 10
244.5040877697713
 20
-182.7212845102221
 30
0.0
 10
244.698973120915
 20
-183.7012474722904
 30
0.0
 10
244.9180635628972
 20
-184.6508382231818
 30
0.0
 10
245.161158528194
 20
-185.5669028982834
 30
0.0
 10
245.4279351467516
 20
-186.4465074544718
 30
0.0
 10
245.7179369908821
 20
-187.2869840460271
 30
0.0
 10
246.0305656416764
 20
-188.085973219092
 30
0.0
 10
246.3650773374387
 20
-188.8414585585734
 30
0.0
 10
246.7205861442037
 20
-189.5517917864146
 30
0.0
 10
247.0960739305365
 20
-190.2157081717176
 30
0.0
 10
247.4904066529796
 20
-190.8323332483552
 30
0.0
 10
247.9023553997067
 20
-191.4011832135866
 30
0.0
 10
248.3306200115357
 20
-191.9221622943334
 30
0.0
 10
248.7738535429382
 20
-192.3955601079416
 30
0.0
 10
249.2306868226359
 20
-192.8220510244794
 30
0.0
 10
249.6997529927764
 20
-193.2026958881682
 30
0.0
 10
250.1797116672717
 20
-193.5389439310977
 30
0.0
 10
250.6692714743451
 20
-193.8326294784561
 30
0.0
 10
251.1672090500661
 20
-194.0859557475883
 30
0.0
 10
251.6723826276864
 20
-194.3014582869053
 30
0.0
 10
252.1837391132568
 20
-194.481943060116
 30
0.0
 10
252.7003142253406
 20
-194.6303965388302
 30
0.0
 10
253.2212264564377
 20
-194.749869759453
 30
0.0
 10
253.7456669716946
 20
-194.8433439419378
 30
0.0
 10
254.2728877320232
 20
-194.9135867636017
 30
0.0
 10
254.802189359394
 20
-194.9630071085817
 30
0.0
 10
255.3329093158675
 20
-194.9935155953717
 30
0.0
 10
255.8644104140832
 20
-195.006400815272
 30
0.0
 10
256.3960695236154
 20
-195.002236016176
 30
0.0
 10
256.9272663663184
 20
-194.9808338840834
 30
0.0
 10
257.4573723277855
 20
-194.9412616402592
 30
0.0
 10
257.9857392198569
 20
-194.8819119748984
 30
0.0
 10
258.5116879072068
 20
-194.800613417202
 30
0.0
 10
259.0344966705928
 20
-194.694763317962
 30
0.0
 10
259.5533892063407
 20
-194.5614711555461
 30
0.0
 10
260.067522494175
 20
-194.397703919831
 30
0.0
 10
260.5759755384148
 20
-194.2004263454825
 30
0.0
 10
261.0777409525448
 20
-193.9667274029655
 30
0.0
 10
261.5717217482135
 20
-193.6939241522093
 30
0.0
 10
262.056734873787
 20
-193.3796378006407
 30
0.0
 10
262.5315215763524
 20
-193.0218427153768
 30
0.0
 10
262.9947638273019
 20
-192.6188922206705
 30
0.0
 10
263.4451053145218
 20
-192.1695274518814
 30
0.0
 10
263.8811749880742
 20
-191.6728772360424
 30
0.0
 10
264.3016114984024
 20
-191.1284558003203
 30
0.0
 10
264.7050877556131
 20
-190.5361621178233
 30
0.0
 10
265.0903354759714
 20
-189.8962816895281
 30
0.0
 10
265.456169389378
 20
-189.2094895099949
 30
0.0
 10
265.8015098633253
 20
-188.4768516323095
 30
0.0
 10
266.1254018764351
 20
-187.6998220585465
 30
0.0
 10
266.4270283305413
 20
-186.8802319617888
 30
0.0
 10
266.7057167037697
 20
-186.0202695845598
 30
0.0
 10
266.960938926644
 20
-185.1224503415428
 30
0.0
 10
267.1923052751261
 20
-184.1895780829715
 30
0.0
 10
267.3995542590355
 20
-183.2247004023857
 30
0.0
 10
267.5825407467083
 20
-182.2310613598865
 30
0.0
 10
267.7412238823468
 20
-181.2120539531377
 30
0.0
 10
267.8756553843598
 20
-180.1711731463542
 30
0.0
 10
267.9859682186877
 20
-179.1119693452331
 30
0.0
 10
268.0723654971763
 20
-178.0380020184819
 30
0.0
 10
268.1351095275766
 20
-176.9527932943617
 30
0.0
 10
268.174510981765
 20
-175.859781330826
 30
0.0
 10
268.1909181041756
 20
-174.7622730521811
 30
0.0
 10
268.1847058585177
 20
-173.6633958878167
 30
0.0
 10
268.1562650187016
 20
-172.5660489056889
 30
0.0
 10
268.105991446978
 20
-171.4728552599798
 30
0.0
 10
268.0342760500132
 20
-170.3861194963136
 30
0.0
 10
267.9414960384209
 20
-169.3077941955607
 30
0.0
 10
267.8280080877022
 20
-168.239460312544
 30
0.0
 10
267.694143873247
 20
-167.1823247361536
 30
0.0
 10
267.5402080477
 20
-166.1372356994325
 30
0.0
 10
267.3664780525302
 20
-165.1047118056852
 30
0.0
 10
267.173204852242
 20
-164.0849784088203
 30
0.0
 10
266.9606138023307
 20
-163.0780062644041
 30
0.0
 10
266.7289051626704
 20
-162.0835497768316
 30
0.0
 10
266.4782540579207
 20
-161.1011841021255
 30
0.0
 10
266.208809984275
 20
-160.1303415531581
 30
0.0
 10
265.9206964103528
 20
-159.1703486784237
 30
0.0
 10
265.6140117267424
 20
-158.2204665346836
 30
0.0
 10
265.2888338071173
 20
-157.2799380160123
 30
0.0
 10
264.9452312075711
 20
-156.348046582991
 30
0.0
 10
264.5832846843207
 20
-155.4241897289653
 30
0.0
 10
264.2031191564971
 20
-154.5079630398053
 30
0.0
 10
263.8049463673905
 20
-153.5992441905981
 30
0.0
 10
263.5277071881049
 20
-152.9985651060559
 30
0.0
 10
263.3862151104462
 20
-152.6995883700854
 30
0.0
  0
MTEXT
  5
1005B
330
1F
100
AcDbEntity
  8
0
  6
Continuous
100
AcDbMText
 10
277.3604362851234
 20
-244.6086724933496
 30
0.0
 40
0.2
 41
1.629999999999999
 46
0.0
 71
     1
 72
     1
  1
CVREBUILD
 73
     1
 44
1.0
  0
ENDSEC
  0
SECTION
  2
OBJECTS
  0
DICTIONARY
  5
C
330
0
100
AcDbDictionary
281
     1
  3
ACAD_CIP_PREVIOUS_PRODUCT_INFO
350
1005A
  3
ACAD_COLOR
350
10036
  3
ACAD_DETAILVIEWSTYLE
350
10051
  3
ACAD_GROUP
350
D
  3
ACAD_LAST_SAVED_VERSION_INFO
350
1005C
  3
ACAD_LAYOUT
350
10037
  3
ACAD_MATERIAL
350
10004
  3
ACAD_MLEADERSTYLE
350
1004D
  3
ACAD_MLINESTYLE
350
17
  3
ACAD_PLOTSETTINGS
350
10054
  3
ACAD_PLOTSTYLENAME
350
10002
  3
ACAD_SCALELIST
350
1003B
  3
ACAD_SECTIONVIEWSTYLE
350
1004F
  3
ACAD_TABLESTYLE
350
10038
  3
ACAD_VISUALSTYLE
350
1001D
  3
ACDB_RECOMPOSE_DATA
350
1006B
  3
AcDbVariableDictionary
350
1005F
  0
DICTIONARY
  5
1005D
330
50
100
AcDbDictionary
280
     1
281
     1
  3
ADSK_XREC_LAYER_RECONCILED
360
1005E
  0
XRECORD
  5
1005A
102
{ACAD_REACTORS
330
C
102
}
330
C
100
AcDbXrecord
280
     1
300
ACD
300
2027
300

  0
DICTIONARY
  5
10036
102
{ACAD_REACTORS
330
C
102
}
330
C
100
AcDbDictionary
281
     1
  0
DICTIONARY
  5
10051
102
{ACAD_REACTORS
330
C
102
}
330
C
100
AcDbDictionary
281
     1
  3
Imperial24
350
10052
  0
DICTIONARY
  5
D
330
C
100
AcDbDictionary
281
     1
  0
XRECORD
  5
1005C
102
{ACAD_REACTORS
330
C
102
}
330
C
100
AcDbXrecord
280
     1
300
{0D20B24D-6D0C-7641-9301-FD5C514CE2E5}
301
{94377FAE-8446-6E49-BA12-8D7AE5042EF7}
302
{0D20B24D-6D0C-7641-9301-FD5C514CE2E5}
303
C:\Users\sunwo\Downloads\장애물_4.dxf
  0
DICTIONARY
  5
10037
102
{ACAD_REACTORS
330
C
102
}
330
C
100
AcDbDictionary
281
     1
  3
Model
350
10055
  3
배치1
350
10056
  0
DICTIONARY
  5
10004
102
{ACAD_REACTORS
330
C
102
}
330
C
100
AcDbDictionary
281
     1
  3
ByBlock
350
1000D
  3
ByLayer
350
10005
  3
Global
350
10015
  0
DICTIONARY
  5
1004D
102
{ACAD_REACTORS
330
C
102
}
330
C
100
AcDbDictionary
281
     1
  3
Standard
350
1004E
  0
DICTIONARY
  5
17
330
C
100
AcDbDictionary
281
     1
  3
Standard
350
1003A
  0
DICTIONARY
  5
10054
102
{ACAD_REACTORS
330
C
102
}
330
C
100
AcDbDictionary
281
     1
  0
ACDBDICTIONARYWDFLT
  5
10002
102
{ACAD_REACTORS
330
C
102
}
330
C
100
AcDbDictionary
281
     1
  3
Normal
350
10003
100
AcDbDictionaryWithDefault
340
10003
  0
DICTIONARY
  5
1003B
102
{ACAD_REACTORS
330
C
102
}
330
C
100
AcDbDictionary
281
     1
  3
A0
350
1003C
  3
A1
350
1003D
  3
A2
350
1003E
  3
A3
350
1003F
  3
A4
350
10040
  3
A5
350
10041
  3
A6
350
10042
  3
A7
350
10043
  3
A8
350
10044
  3
A9
350
10045
  3
B0
350
10046
  3
B1
350
10047
  3
B2
350
10048
  3
B3
350
10049
  3
B4
350
1004A
  3
B5
350
1004B
  3
B6
350
1004C
  0
DICTIONARY
  5
1004F
102
{ACAD_REACTORS
330
C
102
}
330
C
100
AcDbDictionary
281
     1
  3
Imperial24
350
10050
  0
DICTIONARY
  5
10038
102
{ACAD_REACTORS
330
C
102
}
330
C
100
AcDbDictionary
281
     1
  3
Standard
350
10039
  0
DICTIONARY
  5
1001D
102
{ACAD_REACTORS
330
C
102
}
330
C
100
AcDbDictionary
281
     1
  3
2dWireframe
350
10023
  3
Basic
350
10022
  3
Brighten
350
10029
  3
ColorChange
350
1002D
  3
Conceptual
350
10026
  3
Dim
350
10028
  3
EdgeColorOff
350
10035
  3
Facepattern
350
1002C
  3
Flat
350
1001E
  3
FlatWithEdges
350
1001F
  3
Gouraud
350
10020
  3
GouraudWithEdges
350
10021
  3
Hidden
350
10025
  3
JitterOff
350
10033
  3
Linepattern
350
1002B
  3
OverhangOff
350
10034
  3
Realistic
350
10027
  3
Shaded
350
10032
  3
Shaded with edges
350
10031
  3
Shades of Gray
350
1002E
  3
Sketchy
350
1002F
  3
Thicken
350
1002A
  3
Wireframe
350
10024
  3
X-Ray
350
10030
  0
XRECORD
  5
1006B
102
{ACAD_REACTORS
330
C
102
}
330
C
100
AcDbXrecord
280
     1
 90
        1
330
10039
  0
DICTIONARY
  5
1005F
102
{ACAD_REACTORS
330
C
102
}
330
C
100
AcDbDictionary
281
     1
  3
CANNOSCALE
350
10065
  3
CMLEADERSTYLE
350
10061
  3
CTABLESTYLE
350
10060
  3
CVIEWDETAILSTYLE
350
10062
  3
CVIEWSECTIONSTYLE
350
10063
  3
LAYEREVAL
350
10067
  3
LAYERNOTIFY
350
10068
  3
LIGHTINGUNITS
350
10066
  3
MSLTSCALE
350
10064
  0
XRECORD
  5
1005E
102
{ACAD_REACTORS
330
1005D
102
}
330
1005D
100
AcDbXrecord
280
     1
290
     1
  0
ACDBDETAILVIEWSTYLE
  5
10052
102
{ACAD_REACTORS
330
10051
102
}
330
10051
100
AcDbModelDocViewStyle
 70
     0
  3
Imperial24
290
     0
300
Imperial24
 90
        0
100
AcDbDetailViewStyle
 70
     0
 71
     0
 90
        3
 71
     1
340
11
 62
   256
 40
0.24
340
0
 62
   256
 40
0.24
300

 40
0.36
280
     3
 71
     2
340
10001
 90
       25
 62
   256
 71
     3
340
11
 62
   256
 40
0.24
 90
        1
 40
0.75
 90
        1
300
%<\AcVar ViewType \f "%tc1">% %<\AcVar ViewDetailId>%\PSCALE %<\AcVar ViewScale \f "%sn">%
 71
     4
340
10001
 90
       25
 62
   256
340
10001
 90
       25
 62
   256
280
     0
  0
LAYOUT
  5
10055
102
{ACAD_REACTORS
330
10037
102
}
330
10037
100
AcDbPlotSettings
  1

  2
Samsung C56x Series
  4

  6

 40
0.0
 41
0.0
 42
0.0
 43
0.0
 44
0.0
 45
0.0
 46
0.0
 47
0.0
 48
0.0
 49
0.0
140
0.0
141
0.0
142
1.0
143
1.0
 70
  1712
 72
     0
 73
     0
 74
     0
  7

 75
     0
147
1.0
 76
     0
 77
     2
 78
   300
148
0.0
149
0.0
100
AcDbLayout
  1
Model
 70
     1
 71
     0
 10
0.0
 20
0.0
 11
12.0
 21
9.0
 12
0.0
 22
0.0
 32
0.0
 14
0.0
 24
0.0
 34
0.0
 15
0.0
 25
0.0
 35
0.0
146
0.0
 13
0.0
 23
0.0
 33
0.0
 16
1.0
 26
0.0
 36
0.0
 17
0.0
 27
1.0
 37
0.0
 76
     0
330
1F
331
10059
  0
LAYOUT
  5
10056
102
{ACAD_REACTORS
330
10037
102
}
330
10037
100
AcDbPlotSettings
  1

  2
Samsung C56x Series
  4

  6

 40
0.0
 41
0.0
 42
0.0
 43
0.0
 44
0.0
 45
0.0
 46
0.0
 47
0.0
 48
0.0
 49
0.0
140
0.0
141
0.0
142
1.0
143
1.0
 70
   688
 72
     0
 73
     0
 74
     5
  7

 75
    16
147
1.0
 76
     0
 77
     2
 78
   300
148
0.0
149
0.0
100
AcDbLayout
  1
배치1
 70
     1
 71
     1
 10
0.0
 20
0.0
 11
12.0
 21
9.0
 12
0.0
 22
0.0
 32
0.0
 14
1.000000000000000E+20
 24
1.000000000000000E+20
 34
1.000000000000000E+20
 15
-1.000000000000000E+20
 25
-1.000000000000000E+20
 35
-1.000000000000000E+20
146
0.0
 13
0.0
 23
0.0
 33
0.0
 16
1.0
 26
0.0
 36
0.0
 17
0.0
 27
1.0
 37
0.0
 76
     0
330
1B
  0
MATERIAL
  5
1000D
102
{ACAD_XDICTIONARY
360
1000E
102
}
102
{ACAD_REACTORS
330
10004
102
}
330
10004
100
AcDbMaterial
  1
ByBlock
 72
     0
 43
0.0008202099737533
 43
0.0
 43
0.0
 43
0.0
 43
0.0
 43
0.0008202099737533
 43
0.0
 43
0.0
 43
0.0
 43
0.0
 43
1.0
 43
0.0
 43
0.0
 43
0.0
 43
0.0
 43
1.0
 77
     0
 47
0.0008202099737533
 47
0.0
 47
0.0
 47
0.0
 47
0.0
 47
0.0008202099737533
 47
0.0
 47
0.0
 47
0.0
 47
0.0
 47
1.0
 47
0.0
 47
0.0
 47
0.0
 47
0.0
 47
1.0
171
     0
 49
0.0008202099737533
 49
0.0
 49
0.0
 49
0.0
 49
0.0
 49
0.0008202099737533
 49
0.0
 49
0.0
 49
0.0
 49
0.0
 49
1.0
 49
0.0
 49
0.0
 49
0.0
 49
0.0
 49
1.0
175
     0
142
0.0008202099737533
142
0.0
142
0.0
142
0.0
142
0.0
142
0.0008202099737533
142
0.0
142
0.0
142
0.0
142
0.0
142
1.0
142
0.0
142
0.0
142
0.0
142
0.0
142
1.0
179
     0
144
0.0008202099737533
144
0.0
144
0.0
144
0.0
144
0.0
144
0.0008202099737533
144
0.0
144
0.0
144
0.0
144
0.0
144
1.0
144
0.0
144
0.0
144
0.0
144
0.0
144
1.0
147
0.0008202099737533
147
0.0
147
0.0
147
0.0
147
0.0
147
0.0008202099737533
147
0.0
147
0.0
147
0.0
147
0.0
147
1.0
147
0.0
147
0.0
147
0.0
147
0.0
147
1.0
  0
MATERIAL
  5
10005
102
{ACAD_XDICTIONARY
360
10006
102
}
102
{ACAD_REACTORS
330
10004
102
}
330
10004
100
AcDbMaterial
  1
ByLayer
 72
     0
 43
0.0008202099737533
 43
0.0
 43
0.0
 43
0.0
 43
0.0
 43
0.0008202099737533
 43
0.0
 43
0.0
 43
0.0
 43
0.0
 43
1.0
 43
0.0
 43
0.0
 43
0.0
 43
0.0
 43
1.0
 77
     0
 47
0.0008202099737533
 47
0.0
 47
0.0
 47
0.0
 47
0.0
 47
0.0008202099737533
 47
0.0
 47
0.0
 47
0.0
 47
0.0
 47
1.0
 47
0.0
 47
0.0
 47
0.0
 47
0.0
 47
1.0
171
     0
 49
0.0008202099737533
 49
0.0
 49
0.0
 49
0.0
 49
0.0
 49
0.0008202099737533
 49
0.0
 49
0.0
 49
0.0
 49
0.0
 49
1.0
 49
0.0
 49
0.0
 49
0.0
 49
0.0
 49
1.0
175
     0
142
0.0008202099737533
142
0.0
142
0.0
142
0.0
142
0.0
142
0.0008202099737533
142
0.0
142
0.0
142
0.0
142
0.0
142
1.0
142
0.0
142
0.0
142
0.0
142
0.0
142
1.0
179
     0
144
0.0008202099737533
144
0.0
144
0.0
144
0.0
144
0.0
144
0.0008202099737533
144
0.0
144
0.0
144
0.0
144
0.0
144
1.0
144
0.0
144
0.0
144
0.0
144
0.0
144
1.0
147
0.0008202099737533
147
0.0
147
0.0
147
0.0
147
0.0
147
0.0008202099737533
147
0.0
147
0.0
147
0.0
147
0.0
147
1.0
147
0.0
147
0.0
147
0.0
147
0.0
147
1.0
  0
MATERIAL
  5
10015
102
{ACAD_XDICTIONARY
360
10016
102
}
102
{ACAD_REACTORS
330
10004
102
}
330
10004
100
AcDbMaterial
  1
Global
 72
     0
 43
0.0008202099737533
 43
0.0
 43
0.0
 43
0.0
 43
0.0
 43
0.0008202099737533
 43
0.0
 43
0.0
 43
0.0
 43
0.0
 43
1.0
 43
0.0
 43
0.0
 43
0.0
 43
0.0
 43
1.0
 77
     0
 47
0.0008202099737533
 47
0.0
 47
0.0
 47
0.0
 47
0.0
 47
0.0008202099737533
 47
0.0
 47
0.0
 47
0.0
 47
0.0
 47
1.0
 47
0.0
 47
0.0
 47
0.0
 47
0.0
 47
1.0
171
     0
 49
0.0008202099737533
 49
0.0
 49
0.0
 49
0.0
 49
0.0
 49
0.0008202099737533
 49
0.0
 49
0.0
 49
0.0
 49
0.0
 49
1.0
 49
0.0
 49
0.0
 49
0.0
 49
0.0
 49
1.0
175
     0
142
0.0008202099737533
142
0.0
142
0.0
142
0.0
142
0.0
142
0.0008202099737533
142
0.0
142
0.0
142
0.0
142
0.0
142
1.0
142
0.0
142
0.0
142
0.0
142
0.0
142
1.0
179
     0
144
0.0008202099737533
144
0.0
144
0.0
144
0.0
144
0.0
144
0.0008202099737533
144
0.0
144
0.0
144
0.0
144
0.0
144
1.0
144
0.0
144
0.0
144
0.0
144
0.0
144
1.0
147
0.0008202099737533
147
0.0
147
0.0
147
0.0
147
0.0
147
0.0008202099737533
147
0.0
147
0.0
147
0.0
147
0.0
147
1.0
147
0.0
147
0.0
147
0.0
147
0.0
147
1.0
  0
MLEADERSTYLE
  5
1004E
102
{ACAD_REACTORS
330
1004D
102
}
330
1004D
100
AcDbMLeaderStyle
179
     2
170
     2
171
     1
172
     0
 90
        2
 40
0.0
 41
0.0
173
     1
 91
-1056964608
340
14
 92
       -2
290
     1
 42
0.09
291
     1
 43
0.36
  3
Standard
 44
0.18
300

342
11
174
     1
178
     6
175
     1
176
     0
 93
-1056964608
 45
0.18
292
     0
297
     0
 46
0.18
 94
-1056964608
 47
1.0
 49
1.0
140
1.0
293
     1
141
0.0
294
     1
177
     0
142
1.0
295
     0
296
     0
143
0.125
271
     0
272
     9
273
     9
298
     0
  0
MLINESTYLE
  5
1003A
102
{ACAD_REACTORS
330
17
102
}
330
17
100
AcDbMlineStyle
  2
STANDARD
 70
     0
  3

 62
   256
 51
90.0
 52
90.0
 71
     2
 49
0.5
 62
   256
  6
BYLAYER
 49
-0.5
 62
   256
  6
BYLAYER
  0
ACDBPLACEHOLDER
  5
10003
102
{ACAD_REACTORS
330
10002
102
}
330
10002
  0
SCALE
  5
1003C
102
{ACAD_REACTORS
330
1003B
102
}
330
1003B
100
AcDbScale
 70
     0
300
1:1
140
1.0
141
1.0
290
     1
  0
SCALE
  5
1003D
102
{ACAD_REACTORS
330
1003B
102
}
330
1003B
100
AcDbScale
 70
     0
300
1/128" = 1'-0"
140
0.0078125
141
12.0
290
     0
  0
SCALE
  5
1003E
102
{ACAD_REACTORS
330
1003B
102
}
330
1003B
100
AcDbScale
 70
     0
300
1/64" = 1'-0"
140
0.015625
141
12.0
290
     0
  0
SCALE
  5
1003F
102
{ACAD_REACTORS
330
1003B
102
}
330
1003B
100
AcDbScale
 70
     0
300
1/32" = 1'-0"
140
0.03125
141
12.0
290
     0
  0
SCALE
  5
10040
102
{ACAD_REACTORS
330
1003B
102
}
330
1003B
100
AcDbScale
 70
     0
300
1/16" = 1'-0"
140
0.0625
141
12.0
290
     0
  0
SCALE
  5
10041
102
{ACAD_REACTORS
330
1003B
102
}
330
1003B
100
AcDbScale
 70
     0
300
3/32" = 1'-0"
140
0.09375
141
12.0
290
     0
  0
SCALE
  5
10042
102
{ACAD_REACTORS
330
1003B
102
}
330
1003B
100
AcDbScale
 70
     0
300
1/8" = 1'-0"
140
0.125
141
12.0
290
     0
  0
SCALE
  5
10043
102
{ACAD_REACTORS
330
1003B
102
}
330
1003B
100
AcDbScale
 70
     0
300
3/16" = 1'-0"
140
0.1875
141
12.0
290
     0
  0
SCALE
  5
10044
102
{ACAD_REACTORS
330
1003B
102
}
330
1003B
100
AcDbScale
 70
     0
300
1/4" = 1'-0"
140
0.25
141
12.0
290
     0
  0
SCALE
  5
10045
102
{ACAD_REACTORS
330
1003B
102
}
330
1003B
100
AcDbScale
 70
     0
300
3/8" = 1'-0"
140
0.375
141
12.0
290
     0
  0
SCALE
  5
10046
102
{ACAD_REACTORS
330
1003B
102
}
330
1003B
100
AcDbScale
 70
     0
300
1/2" = 1'-0"
140
0.5
141
12.0
290
     0
  0
SCALE
  5
10047
102
{ACAD_REACTORS
330
1003B
102
}
330
1003B
100
AcDbScale
 70
     0
300
3/4" = 1'-0"
140
0.75
141
12.0
290
     0
  0
SCALE
  5
10048
102
{ACAD_REACTORS
330
1003B
102
}
330
1003B
100
AcDbScale
 70
     0
300
1" = 1'-0"
140
1.0
141
12.0
290
     0
  0
SCALE
  5
10049
102
{ACAD_REACTORS
330
1003B
102
}
330
1003B
100
AcDbScale
 70
     0
300
1-1/2" = 1'-0"
140
1.5
141
12.0
290
     0
  0
SCALE
  5
1004A
102
{ACAD_REACTORS
330
1003B
102
}
330
1003B
100
AcDbScale
 70
     0
300
3" = 1'-0"
140
3.0
141
12.0
290
     0
  0
SCALE
  5
1004B
102
{ACAD_REACTORS
330
1003B
102
}
330
1003B
100
AcDbScale
 70
     0
300
6" = 1'-0"
140
6.0
141
12.0
290
     0
  0
SCALE
  5
1004C
102
{ACAD_REACTORS
330
1003B
102
}
330
1003B
100
AcDbScale
 70
     0
300
1'-0" = 1'-0"
140
12.0
141
12.0
290
     0
  0
ACDBSECTIONVIEWSTYLE
  5
10050
102
{ACAD_REACTORS
330
1004F
102
}
330
1004F
100
AcDbModelDocViewStyle
 70
     0
  3
Imperial24
290
     0
300
Imperial24
 90
        0
100
AcDbSectionViewStyle
 70
     0
 71
     0
 90
       78
 71
     1
340
11
 62
   256
 40
0.24
340
0
340
0
 62
   256
 40
0.24
300
I, O, Q, S, X, Z
 40
0.48
 90
        3
 40
0.18
 90
        1
 71
     2
340
10001
 90
       25
 62
   256
340
10001
 90
       50
 62
   256
 40
0.24
 40
0.0
 40
0.24
 71
     3
340
11
 62
   256
 40
0.24
 90
        1
 40
0.75
 90
        1
300
%<\AcVar ViewType \f "%tc1">% %<\AcVar ViewSectionStartId>%-%<\AcVar ViewSectionEndId>%\PSCALE %<\AcVar ViewScale \f "%sn">%
 71
     4
 62
   256
 62
   257
300
ANSI31
 40
1.0
 90
        0
290
     0
290
     0
 90
        6
 40
0.0
 40
1.570796326794896
 40
0.2617993877991494
 40
1.308996938995747
 40
-0.2617993877991494
 40
1.832595714594046
  0
TABLESTYLE
  5
10039
102
{ACAD_XDICTIONARY
360
10069
102
}
102
{ACAD_REACTORS
330
10038
102
}
330
10038
100
AcDbTableStyle
280
     0
  3
Standard
 70
     0
 71
     0
 40
0.06
 41
0.06
280
     0
281
     0
  7
STANDARD
140
0.18
170
     2
 62
     0
 63
     7
283
     0
 90
      512
 91
        0
  1

274
    -2
284
     1
 64
     0
275
    -2
285
     1
 65
     0
276
    -2
286
     1
 66
     0
277
    -2
287
     1
 67
     0
278
    -2
288
     1
 68
     0
279
    -2
289
     1
 69
     0
  7
STANDARD
140
0.25
170
     5
 62
     0
 63
     7
283
     0
 90
      512
 91
        0
  1

274
    -2
284
     1
 64
     0
275
    -2
285
     1
 65
     0
276
    -2
286
     1
 66
     0
277
    -2
287
     1
 67
     0
278
    -2
288
     1
 68
     0
279
    -2
289
     1
 69
     0
  7
STANDARD
140
0.18
170
     5
 62
     0
 63
     7
283
     0
 90
      512
 91
        0
  1

274
    -2
284
     1
 64
     0
275
    -2
285
     1
 65
     0
276
    -2
286
     1
 66
     0
277
    -2
287
     1
 67
     0
278
    -2
288
     1
 68
     0
279
    -2
289
     1
 69
     0
  0
VISUALSTYLE
  5
10023
102
{ACAD_REACTORS
330
1001D
102
}
330
1001D
100
AcDbVisualStyle
  2
2dWireframe
 70
     4
177
     3
291
     0
 70
    58
 90
        0
176
     1
 90
        2
176
     1
 90
        0
176
     1
 90
        0
176
     1
 40
0.6
176
     1
 40
30.0
176
     1
 62
     7
420
 16777215
176
     1
 90
        1
176
     1
 90
        4
176
     1
 62
     7
176
     1
 62
   257
176
     1
 90
        1
176
     1
 90
        1
176
     1
 40
1.0
176
     1
 90
        0
176
     1
 62
   257
176
     1
 40
1.0
176
     1
 90
        1
176
     1
 90
        6
176
     1
 90
        2
176
     1
 62
     7
176
     1
 90
        5
176
     1
 90
        0
176
     1
 90
        0
176
     1
290
     0
176
     1
 90
        1
176
     1
 40
0.0
176
     1
 90
        0
176
     1
290
     1
176
     1
290
     1
176
     1
290
     0
176
     1
290
     0
176
     1
290
     0
176
     1
290
     0
176
     1
290
     0
176
     1
290
     0
176
     1
290
     0
176
     1
 90
       50
176
     1
 40
0.0
176
     1
 40
1.0
176
     1
 90
        0
176
     1
 62
    18
420
        0
176
     1
 90
       50
176
     1
 90
        3
176
     1
 62
     5
420
      255
176
     1
290
     0
176
     1
 90
       50
176
     1
 90
       50
176
     1
 90
       50
176
     1
290
     0
176
     1
 90
       50
176
     1
 62
   256
176
     0
 40
1.0
176
     0
 90
        2
176
     1
  1
strokes_ogs.tif
176
     1
290
     0
176
     1
 40
1.0
176
     1
 40
1.0
176
     1
  0
VISUALSTYLE
  5
10022
102
{ACAD_REACTORS
330
1001D
102
}
330
1001D
100
AcDbVisualStyle
  2
Basic
 70
     7
177
     3
291
     1
 70
    58
 90
        1
176
     1
 90
        0
176
     1
 90
        1
176
     1
 90
        0
176
     1
 40
0.6
176
     1
 40
30.0
176
     1
 62
     7
420
 16777215
176
     1
 90
        0
176
     1
 90
        4
176
     1
 62
     7
176
     1
 62
   257
176
     1
 90
        1
176
     1
 90
        1
176
     1
 40
1.0
176
     1
 90
        8
176
     1
 62
     7
176
     1
 40
1.0
176
     1
 90
        1
176
     1
 90
        6
176
     1
 90
        2
176
     1
 62
     7
176
     1
 90
        5
176
     1
 90
        0
176
     1
 90
        0
176
     1
290
     0
176
     1
 90
        1
176
     1
 40
0.0
176
     1
 90
        0
176
     1
290
     0
176
     1
290
     1
176
     1
290
     1
176
     1
290
     0
176
     1
290
     0
176
     1
290
     0
176
     1
290
     0
176
     1
290
     0
176
     1
290
     0
176
     1
 90
       50
176
     1
 40
0.0
176
     1
 40
1.0
176
     1
 90
        0
176
     1
 62
    18
420
        0
176
     1
 90
       50
176
     1
 90
        3
176
     1
 62
     5
420
      255
176
     1
290
     0
176
     1
 90
       50
176
     1
 90
       50
176
     1
 90
       50
176
     1
290
     0
176
     1
 90
       50
176
     1
 62
   256
176
     0
 40
1.0
176
     0
 90
        2
176
     1
  1
strokes_ogs.tif
176
     1
290
     0
176
     1
 40
1.0
176
     1
 40
1.0
176
     1
  0
VISUALSTYLE
  5
10029
102
{ACAD_REACTORS
330
1001D
102
}
330
1001D
100
AcDbVisualStyle
  2
Brighten
 70
    12
177
     3
291
     1
 70
    58
 90
        2
176
     1
 90
        2
176
     1
 90
        0
176
     1
 90
        0
176
     1
 40
0.6
176
     1
 40
30.0
176
     1
 62
     7
420
 16777215
176
     1
 90
        1
176
     1
 90
        4
176
     1
 62
     7
176
     1
 62
   257
176
     1
 90
        1
176
     1
 90
        1
176
     1
 40
1.0
176
     1
 90
        8
176
     1
 62
     7
176
     1
 40
1.0
176
     1
 90
        1
176
     1
 90
        6
176
     1
 90
        2
176
     1
 62
     7
176
     1
 90
        5
176
     1
 90
        0
176
     1
 90
        0
176
     1
290
     0
176
     1
 90
        1
176
     1
 40
50.0
176
     1
 90
        0
176
     1
290
     0
176
     1
290
     1
176
     1
290
     1
176
     1
290
     0
176
     1
290
     0
176
     1
290
     0
176
     1
290
     0
176
     1
290
     0
176
     1
290
     0
176
     1
 90
       50
176
     1
 40
0.0
176
     1
 40
1.0
176
     1
 90
        0
176
     1
 62
    18
420
        0
176
     1
 90
       50
176
     1
 90
        3
176
     1
 62
     5
420
      255
176
     1
290
     0
176
     1
 90
       50
176
     1
 90
       50
176
     1
 90
       50
176
     1
290
     0
176
     1
 90
       50
176
     1
 62
   256
176
     0
 40
1.0
176
     0
 90
        2
176
     1
  1
strokes_ogs.tif
176
     1
290
     0
176
     1
 40
1.0
176
     1
 40
1.0
176
     1
  0
VISUALSTYLE
  5
1002D
102
{ACAD_REACTORS
330
1001D
102
}
330
1001D
100
AcDbVisualStyle
  2
ColorChange
 70
    16
177
     3
291
     1
 70
    58
 90
        2
176
     1
 90
        2
176
     1
 90
        3
176
     1
 90
        0
176
     1
 40
0.6
176
     1
 40
30.0
176
     1
 62
     8
420
  8421504
176
     1
 90
        1
176
     1
 90
        4
176
     1
 62
     7
176
     1
 62
   257
176
     1
 90
        1
176
     1
 90
        1
176
     1
 40
1.0
176
     1
 90
        8
176
     1
 62
     8
420
  8421504
176
     1
 40
1.0
176
     1
 90
        1
176
     1
 90
        6
176
     1
 90
        2
176
     1
 62
     7
176
     1
 90
        5
176
     1
 90
        0
176
     1
 90
        0
176
     1
290
     0
176
     1
 90
        1
176
     1
 40
0.0
176
     1
 90
        0
176
     1
290
     0
176
     1
290
     1
176
     1
290
     1
176
     1
290
     0
176
     1
290
     0
176
     1
290
     0
176
     1
290
     0
176
     1
290
     0
176
     1
290
     0
176
     1
 90
       50
176
     1
 40
0.0
176
     1
 40
1.0
176
     1
 90
        0
176
     1
 62
    18
420
        0
176
     1
 90
       50
176
     1
 90
        3
176
     1
 62
     5
420
      255
176
     1
290
     0
176
     1
 90
       50
176
     1
 90
       50
176
     1
 90
       50
176
     1
290
     0
176
     1
 90
       50
176
     1
 62
   256
176
     0
 40
1.0
176
     0
 90
        2
176
     1
  1
strokes_ogs.tif
176
     1
290
     0
176
     1
 40
1.0
176
     1
 40
1.0
176
     1
  0
VISUALSTYLE
  5
10026
102
{ACAD_REACTORS
330
1001D
102
}
330
1001D
100
AcDbVisualStyle
  2
Conceptual
 70
     9
177
     3
291
     0
 70
    58
 90
        3
176
     1
 90
        2
176
     1
 90
        0
176
     1
 90
        0
176
     1
 40
0.6
176
     1
 40
30.0
176
     1
 62
     7
420
 16777215
176
     1
 90
        2
176
     1
 90
        2
176
     1
 62
     7
176
     1
 62
   257
176
     1
 90
        1
176
     1
 90
        1
176
     1
 40
179.0
176
     1
 90
        8
176
     1
 62
     7
176
     1
 40
1.0
176
     1
 90
        1
176
     1
 90
        6
176
     1
 90
        2
176
     1
 62
     7
176
     1
 90
        3
176
     1
 90
        0
176
     1
 90
        0
176
     1
290
     0
176
     1
 90
        1
176
     1
 40
0.0
176
     1
 90
        0
176
     1
290
     0
176
     1
290
     1
176
     1
290
     1
176
     1
290
     0
176
     1
290
     0
176
     1
290
     0
176
     1
290
     0
176
     1
290
     0
176
     1
290
     0
176
     1
 90
       50
176
     1
 40
0.0
176
     1
 40
1.0
176
     1
 90
        0
176
     1
 62
    18
420
        0
176
     1
 90
       50
176
     1
 90
        3
176
     1
 62
     5
420
      255
176
     1
290
     0
176
     1
 90
       50
176
     1
 90
       50
176
     1
 90
       50
176
     1
290
     0
176
     1
 90
       50
176
     1
 62
   256
176
     0
 40
1.0
176
     0
 90
        2
176
     1
  1
strokes_ogs.tif
176
     1
290
     0
176
     1
 40
1.0
176
     1
 40
1.0
176
     1
  0
VISUALSTYLE
  5
10028
102
{ACAD_REACTORS
330
1001D
102
}
330
1001D
100
AcDbVisualStyle
  2
Dim
 70
    11
177
     3
291
     1
 70
    58
 90
        2
176
     1
 90
        2
176
     1
 90
        0
176
     1
 90
        0
176
     1
 40
0.6
176
     1
 40
30.0
176
     1
 62
     7
420
 16777215
176
     1
 90
        1
176
     1
 90
        4
176
     1
 62
     7
176
     1
 62
   257
176
     1
 90
        1
176
     1
 90
        1
176
     1
 40
1.0
176
     1
 90
        8
176
     1
 62
     7
176
     1
 40
1.0
176
     1
 90
        1
176
     1
 90
        6
176
     1
 90
        2
176
     1
 62
     7
176
     1
 90
        5
176
     1
 90
        0
176
     1
 90
        0
176
     1
290
     0
176
     1
 90
        1
176
     1
 40
-50.0
176
     1
 90
        0
176
     1
290
     0
176
     1
290
     1
176
     1
290
     1
176
     1
290
     0
176
     1
290
     0
176
     1
290
     0
176
     1
290
     0
176
     1
290
     0
176
     1
290
     0
176
     1
 90
       50
176
     1
 40
0.0
176
     1
 40
1.0
176
     1
 90
        0
176
     1
 62
    18
420
        0
176
     1
 90
       50
176
     1
 90
        3
176
     1
 62
     5
420
      255
176
     1
290
     0
176
     1
 90
       50
176
     1
 90
       50
176
     1
 90
       50
176
     1
290
     0
176
     1
 90
       50
176
     1
 62
   256
176
     0
 40
1.0
176
     0
 90
        2
176
     1
  1
strokes_ogs.tif
176
     1
290
     0
176
     1
 40
1.0
176
     1
 40
1.0
176
     1
  0
VISUALSTYLE
  5
10035
102
{ACAD_REACTORS
330
1001D
102
}
330
1001D
100
AcDbVisualStyle
  2
EdgeColorOff
 70
    22
177
     3
291
     1
 70
    58
 90
        2
176
     0
 90
        2
176
     0
 90
        0
176
     0
 90
        0
176
     0
 40
0.6
176
     0
 40
30.0
176
     0
 62
     7
420
 16777215
176
     0
 90
        1
176
     0
 90
        4
176
     0
 62
     7
176
     0
 62
   257
176
     0
 90
        1
176
     0
 90
        1
176
     0
 40
1.0
176
     0
 90
        8
176
     2
 62
     7
176
     0
 40
1.0
176
     0
 90
        1
176
     0
 90
        6
176
     0
 90
        2
176
     0
 62
     7
176
     0
 90
        5
176
     0
 90
        0
176
     0
 90
        0
176
     0
290
     0
176
     0
 90
        1
176
     0
 40
0.0
176
     0
 90
        0
176
     0
290
     0
176
     1
290
     1
176
     1
290
     1
176
     1
290
     0
176
     1
290
     0
176
     1
290
     0
176
     1
290
     0
176
     1
290
     0
176
     1
290
     0
176
     1
 90
       50
176
     0
 40
0.0
176
     0
 40
1.0
176
     0
 90
        0
176
     0
 62
    18
420
        0
176
     0
 90
       50
176
     0
 90
        3
176
     0
 62
     5
420
      255
176
     0
290
     0
176
     1
 90
       50
176
     0
 90
       50
176
     0
 90
       50
176
     0
290
     0
176
     1
 90
       50
176
     0
 62
   256
176
     0
 40
1.0
176
     0
 90
        2
176
     0
  1
strokes_ogs.tif
176
     0
290
     0
176
     1
 40
1.0
176
     0
 40
1.0
176
     0
  0
VISUALSTYLE
  5
1002C
102
{ACAD_REACTORS
330
1001D
102
}
330
1001D
100
AcDbVisualStyle
  2
Facepattern
 70
    15
177
     3
291
     1
 70
    58
 90
        2
176
     1
 90
        2
176
     1
 90
        0
176
     1
 90
        0
176
     1
 40
0.6
176
     1
 40
30.0
176
     1
 62
     7
420
 16777215
176
     1
 90
        1
176
     1
 90
        4
176
     1
 62
     7
176
     1
 62
   257
176
     1
 90
        1
176
     1
 90
        1
176
     1
 40
1.0
176
     1
 90
        8
176
     1
 62
     7
176
     1
 40
1.0
176
     1
 90
        1
176
     1
 90
        6
176
     1
 90
        2
176
     1
 62
     7
176
     1
 90
        5
176
     1
 90
        0
176
     1
 90
        0
176
     1
290
     0
176
     1
 90
        1
176
     1
 40
0.0
176
     1
 90
        0
176
     1
290
     0
176
     1
290
     1
176
     1
290
     1
176
     1
290
     0
176
     1
290
     0
176
     1
290
     0
176
     1
290
     0
176
     1
290
     0
176
     1
290
     0
176
     1
 90
       50
176
     1
 40
0.0
176
     1
 40
1.0
176
     1
 90
        0
176
     1
 62
    18
420
        0
176
     1
 90
       50
176
     1
 90
        3
176
     1
 62
     5
420
      255
176
     1
290
     0
176
     1
 90
       50
176
     1
 90
       50
176
     1
 90
       50
176
     1
290
     0
176
     1
 90
       50
176
     1
 62
   256
176
     0
 40
1.0
176
     0
 90
        2
176
     1
  1
strokes_ogs.tif
176
     1
290
     0
176
     1
 40
1.0
176
     1
 40
1.0
176
     1
  0
VISUALSTYLE
  5
1001E
102
{ACAD_REACTORS
330
1001D
102
}
330
1001D
100
AcDbVisualStyle
  2
Flat
 70
     0
177
     3
291
     1
 70
    58
 90
        2
176
     1
 90
        1
176
     1
 90
        1
176
     1
 90
        2
176
     1
 40
0.6
176
     1
 40
30.0
176
     1
 62
     7
420
 16777215
176
     1
 90
        0
176
     1
 90
        0
176
     1
 62
     7
176
     1
 62
   257
176
     1
 90
        1
176
     1
 90
        1
176
     1
 40
1.0
176
     1
 90
        8
176
     1
 62
     7
176
     1
 40
1.0
176
     1
 90
        1
176
     1
 90
        6
176
     1
 90
        2
176
     1
 62
     7
176
     1
 90
        5
176
     1
 90
        0
176
     1
 90
        0
176
     1
290
     0
176
     1
 90
       13
176
     1
 40
0.0
176
     1
 90
        0
176
     1
290
     0
176
     1
290
     1
176
     1
290
     1
176
     1
290
     0
176
     1
290
     0
176
     1
290
     0
176
     1
290
     0
176
     1
290
     0
176
     1
290
     0
176
     1
 90
       50
176
     1
 40
0.0
176
     1
 40
1.0
176
     1
 90
        0
176
     1
 62
    18
420
        0
176
     1
 90
       50
176
     1
 90
        3
176
     1
 62
     5
420
      255
176
     1
290
     0
176
     1
 90
       50
176
     1
 90
       50
176
     1
 90
       50
176
     1
290
     0
176
     1
 90
       50
176
     1
 62
   256
176
     0
 40
1.0
176
     0
 90
        2
176
     1
  1
strokes_ogs.tif
176
     1
290
     0
176
     1
 40
1.0
176
     1
 40
1.0
176
     1
  0
VISUALSTYLE
  5
1001F
102
{ACAD_REACTORS
330
1001D
102
}
330
1001D
100
AcDbVisualStyle
  2
FlatWithEdges
 70
     1
177
     3
291
     1
 70
    58
 90
        2
176
     1
 90
        1
176
     1
 90
        1
176
     1
 90
        2
176
     1
 40
0.6
176
     1
 40
30.0
176
     1
 62
     7
420
 16777215
176
     1
 90
        1
176
     1
 90
        0
176
     1
 62
     7
176
     1
 62
   257
176
     1
 90
        1
176
     1
 90
        1
176
     1
 40
1.0
176
     1
 90
        0
176
     1
 62
   257
176
     1
 40
1.0
176
     1
 90
        1
176
     1
 90
        6
176
     1
 90
        2
176
     1
 62
     7
176
     1
 90
        5
176
     1
 90
        0
176
     1
 90
        0
176
     1
290
     0
176
     1
 90
       13
176
     1
 40
0.0
176
     1
 90
        0
176
     1
290
     0
176
     1
290
     1
176
     1
290
     1
176
     1
290
     0
176
     1
290
     0
176
     1
290
     0
176
     1
290
     0
176
     1
290
     0
176
     1
290
     0
176
     1
 90
       50
176
     1
 40
0.0
176
     1
 40
1.0
176
     1
 90
        0
176
     1
 62
    18
420
        0
176
     1
 90
       50
176
     1
 90
        3
176
     1
 62
     5
420
      255
176
     1
290
     0
176
     1
 90
       50
176
     1
 90
       50
176
     1
 90
       50
176
     1
290
     0
176
     1
 90
       50
176
     1
 62
   256
176
     0
 40
1.0
176
     0
 90
        2
176
     1
  1
strokes_ogs.tif
176
     1
290
     0
176
     1
 40
1.0
176
     1
 40
1.0
176
     1
  0
VISUALSTYLE
  5
10020
102
{ACAD_REACTORS
330
1001D
102
}
330
1001D
100
AcDbVisualStyle
  2
Gouraud
 70
     2
177
     3
291
     1
 70
    58
 90
        2
176
     1
 90
        2
176
     1
 90
        1
176
     1
 90
        2
176
     1
 40
0.6
176
     1
 40
30.0
176
     1
 62
     7
420
 16777215
176
     1
 90
        0
176
     1
 90
        0
176
     1
 62
     7
176
     1
 62
   257
176
     1
 90
        1
176
     1
 90
        1
176
     1
 40
1.0
176
     1
 90
        0
176
     1
 62
     7
176
     1
 40
1.0
176
     1
 90
        1
176
     1
 90
        6
176
     1
 90
        2
176
     1
 62
     7
176
     1
 90
        5
176
     1
 90
        0
176
     1
 90
        0
176
     1
290
     0
176
     1
 90
       13
176
     1
 40
0.0
176
     1
 90
        0
176
     1
290
     0
176
     1
290
     1
176
     1
290
     1
176
     1
290
     0
176
     1
290
     0
176
     1
290
     0
176
     1
290
     0
176
     1
290
     0
176
     1
290
     0
176
     1
 90
       50
176
     1
 40
0.0
176
     1
 40
1.0
176
     1
 90
        0
176
     1
 62
    18
420
        0
176
     1
 90
       50
176
     1
 90
        3
176
     1
 62
     5
420
      255
176
     1
290
     0
176
     1
 90
       50
176
     1
 90
       50
176
     1
 90
       50
176
     1
290
     0
176
     1
 90
       50
176
     1
 62
   256
176
     0
 40
1.0
176
     0
 90
        2
176
     1
  1
strokes_ogs.tif
176
     1
290
     0
176
     1
 40
1.0
176
     1
 40
1.0
176
     1
  0
VISUALSTYLE
  5
10021
102
{ACAD_REACTORS
330
1001D
102
}
330
1001D
100
AcDbVisualStyle
  2
GouraudWithEdges
 70
     3
177
     3
291
     1
 70
    58
 90
        2
176
     1
 90
        2
176
     1
 90
        1
176
     1
 90
        2
176
     1
 40
0.6
176
     1
 40
30.0
176
     1
 62
     7
420
 16777215
176
     1
 90
        1
176
     1
 90
        0
176
     1
 62
     7
176
     1
 62
   257
176
     1
 90
        1
176
     1
 90
        1
176
     1
 40
1.0
176
     1
 90
        0
176
     1
 62
   257
176
     1
 40
1.0
176
     1
 90
        1
176
     1
 90
        6
176
     1
 90
        2
176
     1
 62
     7
176
     1
 90
        5
176
     1
 90
        0
176
     1
 90
        0
176
     1
290
     0
176
     1
 90
       13
176
     1
 40
0.0
176
     1
 90
        0
176
     1
290
     0
176
     1
290
     1
176
     1
290
     1
176
     1
290
     0
176
     1
290
     0
176
     1
290
     0
176
     1
290
     0
176
     1
290
     0
176
     1
290
     0
176
     1
 90
       50
176
     1
 40
0.0
176
     1
 40
1.0
176
     1
 90
        0
176
     1
 62
    18
420
        0
176
     1
 90
       50
176
     1
 90
        3
176
     1
 62
     5
420
      255
176
     1
290
     0
176
     1
 90
       50
176
     1
 90
       50
176
     1
 90
       50
176
     1
290
     0
176
     1
 90
       50
176
     1
 62
   256
176
     0
 40
1.0
176
     0
 90
        2
176
     1
  1
strokes_ogs.tif
176
     1
290
     0
176
     1
 40
1.0
176
     1
 40
1.0
176
     1
  0
VISUALSTYLE
  5
10025
102
{ACAD_REACTORS
330
1001D
102
}
330
1001D
100
AcDbVisualStyle
  2
Hidden
 70
     6
177
     3
291
     0
 70
    58
 90
        1
176
     1
 90
        2
176
     1
 90
        2
176
     1
 90
        0
176
     1
 40
0.6
176
     1
 40
30.0
176
     1
 62
     7
420
 16777215
176
     1
 90
        2
176
     1
 90
        2
176
     1
 62
     7
176
     1
 62
   257
176
     1
 90
        2
176
     1
 90
        1
176
     1
 40
40.0
176
     1
 90
        0
176
     1
 62
   257
176
     1
 40
1.0
176
     1
 90
        1
176
     1
 90
        6
176
     1
 90
        2
176
     1
 62
     7
176
     1
 90
        3
176
     1
 90
        0
176
     1
 90
        0
176
     1
290
     0
176
     1
 90
        1
176
     1
 40
0.0
176
     1
 90
        0
176
     1
290
     0
176
     1
290
     1
176
     1
290
     1
176
     1
290
     0
176
     1
290
     0
176
     1
290
     0
176
     1
290
     0
176
     1
290
     0
176
     1
290
     0
176
     1
 90
       50
176
     1
 40
0.0
176
     1
 40
1.0
176
     1
 90
        0
176
     1
 62
    18
420
        0
176
     1
 90
       50
176
     1
 90
        3
176
     1
 62
     5
420
      255
176
     1
290
     0
176
     1
 90
       50
176
     1
 90
       50
176
     1
 90
       50
176
     1
290
     0
176
     1
 90
       50
176
     1
 62
   256
176
     0
 40
1.0
176
     0
 90
        2
176
     1
  1
strokes_ogs.tif
176
     1
290
     0
176
     1
 40
1.0
176
     1
 40
1.0
176
     1
  0
VISUALSTYLE
  5
10033
102
{ACAD_REACTORS
330
1001D
102
}
330
1001D
100
AcDbVisualStyle
  2
JitterOff
 70
    20
177
     3
291
     1
 70
    58
 90
        2
176
     0
 90
        2
176
     0
 90
        0
176
     0
 90
        0
176
     0
 40
0.6
176
     0
 40
30.0
176
     0
 62
     7
420
 16777215
176
     0
 90
        1
176
     0
 90
        4
176
     0
 62
     7
176
     0
 62
   257
176
     0
 90
        1
176
     0
 90
        1
176
     0
 40
1.0
176
     0
 90
       10
176
     2
 62
     7
176
     0
 40
1.0
176
     0
 90
        1
176
     0
 90
        6
176
     0
 90
        2
176
     0
 62
     7
176
     0
 90
        5
176
     0
 90
        0
176
     0
 90
        0
176
     0
290
     0
176
     0
 90
        1
176
     0
 40
0.0
176
     0
 90
        0
176
     0
290
     0
176
     1
290
     1
176
     1
290
     1
176
     1
290
     0
176
     1
290
     0
176
     1
290
     0
176
     1
290
     0
176
     1
290
     0
176
     1
290
     0
176
     1
 90
       50
176
     0
 40
0.0
176
     0
 40
1.0
176
     0
 90
        0
176
     0
 62
    18
420
        0
176
     0
 90
       50
176
     0
 90
        3
176
     0
 62
     5
420
      255
176
     0
290
     0
176
     1
 90
       50
176
     0
 90
       50
176
     0
 90
       50
176
     0
290
     0
176
     1
 90
       50
176
     0
 62
   256
176
     0
 40
1.0
176
     0
 90
        2
176
     0
  1
strokes_ogs.tif
176
     0
290
     0
176
     1
 40
1.0
176
     0
 40
1.0
176
     0
  0
VISUALSTYLE
  5
1002B
102
{ACAD_REACTORS
330
1001D
102
}
330
1001D
100
AcDbVisualStyle
  2
Linepattern
 70
    14
177
     3
291
     1
 70
    58
 90
        2
176
     1
 90
        2
176
     1
 90
        0
176
     1
 90
        0
176
     1
 40
0.6
176
     1
 40
30.0
176
     1
 62
     7
420
 16777215
176
     1
 90
        1
176
     1
 90
        4
176
     1
 62
     7
176
     1
 62
   257
176
     1
 90
        7
176
     1
 90
        7
176
     1
 40
1.0
176
     1
 90
        8
176
     1
 62
     7
176
     1
 40
1.0
176
     1
 90
        1
176
     1
 90
        6
176
     1
 90
        2
176
     1
 62
     7
176
     1
 90
        5
176
     1
 90
        0
176
     1
 90
        0
176
     1
290
     0
176
     1
 90
        1
176
     1
 40
0.0
176
     1
 90
        0
176
     1
290
     0
176
     1
290
     1
176
     1
290
     1
176
     1
290
     0
176
     1
290
     0
176
     1
290
     0
176
     1
290
     0
176
     1
290
     0
176
     1
290
     0
176
     1
 90
       50
176
     1
 40
0.0
176
     1
 40
1.0
176
     1
 90
        0
176
     1
 62
    18
420
        0
176
     1
 90
       50
176
     1
 90
        3
176
     1
 62
     5
420
      255
176
     1
290
     0
176
     1
 90
       50
176
     1
 90
       50
176
     1
 90
       50
176
     1
290
     0
176
     1
 90
       50
176
     1
 62
   256
176
     0
 40
1.0
176
     0
 90
        2
176
     1
  1
strokes_ogs.tif
176
     1
290
     0
176
     1
 40
1.0
176
     1
 40
1.0
176
     1
  0
VISUALSTYLE
  5
10034
102
{ACAD_REACTORS
330
1001D
102
}
330
1001D
100
AcDbVisualStyle
  2
OverhangOff
 70
    21
177
     3
291
     1
 70
    58
 90
        2
176
     0
 90
        2
176
     0
 90
        0
176
     0
 90
        0
176
     0
 40
0.6
176
     0
 40
30.0
176
     0
 62
     7
420
 16777215
176
     0
 90
        1
176
     0
 90
        4
176
     0
 62
     7
176
     0
 62
   257
176
     0
 90
        1
176
     0
 90
        1
176
     0
 40
1.0
176
     0
 90
        9
176
     2
 62
     7
176
     0
 40
1.0
176
     0
 90
        1
176
     0
 90
        6
176
     0
 90
        2
176
     0
 62
     7
176
     0
 90
        5
176
     0
 90
        0
176
     0
 90
        0
176
     0
290
     0
176
     0
 90
        1
176
     0
 40
0.0
176
     0
 90
        0
176
     0
290
     0
176
     1
290
     1
176
     1
290
     1
176
     1
290
     0
176
     1
290
     0
176
     1
290
     0
176
     1
290
     0
176
     1
290
     0
176
     1
290
     0
176
     1
 90
       50
176
     0
 40
0.0
176
     0
 40
1.0
176
     0
 90
        0
176
     0
 62
    18
420
        0
176
     0
 90
       50
176
     0
 90
        3
176
     0
 62
     5
420
      255
176
     0
290
     0
176
     1
 90
       50
176
     0
 90
       50
176
     0
 90
       50
176
     0
290
     0
176
     1
 90
       50
176
     0
 62
   256
176
     0
 40
1.0
176
     0
 90
        2
176
     0
  1
strokes_ogs.tif
176
     0
290
     0
176
     1
 40
1.0
176
     0
 40
1.0
176
     0
  0
VISUALSTYLE
  5
10027
102
{ACAD_REACTORS
330
1001D
102
}
330
1001D
100
AcDbVisualStyle
  2
Realistic
 70
     8
177
     3
291
     0
 70
    58
 90
        2
176
     1
 90
        3
176
     1
 90
        0
176
     1
 90
        2
176
     1
 40
0.6
176
     1
 40
30.0
176
     1
 62
     7
420
 16777215
176
     1
 90
        0
176
     1
 90
        0
176
     1
 62
     7
176
     1
 62
   257
176
     1
 90
        1
176
     1
 90
        1
176
     1
 40
1.0
176
     1
 90
        8
176
     1
 62
   257
176
     1
 40
1.0
176
     1
 90
        1
176
     1
 90
        6
176
     1
 90
        2
176
     1
 62
     7
176
     1
 90
        3
176
     1
 90
        0
176
     1
 90
        0
176
     1
290
     0
176
     1
 90
       13
176
     1
 40
0.0
176
     1
 90
        0
176
     1
290
     0
176
     1
290
     1
176
     1
290
     1
176
     1
290
     0
176
     1
290
     0
176
     1
290
     0
176
     1
290
     0
176
     1
290
     0
176
     1
290
     0
176
     1
 90
       50
176
     1
 40
0.0
176
     1
 40
1.0
176
     1
 90
        0
176
     1
 62
    18
420
        0
176
     1
 90
       50
176
     1
 90
        3
176
     1
 62
     5
420
      255
176
     1
290
     0
176
     1
 90
       50
176
     1
 90
       50
176
     1
 90
       50
176
     1
290
     0
176
     1
 90
       50
176
     1
 62
   256
176
     0
 40
1.0
176
     0
 90
        2
176
     1
  1
strokes_ogs.tif
176
     1
290
     0
176
     1
 40
1.0
176
     1
 40
1.0
176
     1
  0
VISUALSTYLE
  5
10032
102
{ACAD_REACTORS
330
1001D
102
}
330
1001D
100
AcDbVisualStyle
  2
Shaded
 70
    27
177
     3
291
     0
 70
    58
 90
        2
176
     1
 90
        2
176
     1
 90
        1
176
     1
 90
        2
176
     1
 40
0.6
176
     1
 40
30.0
176
     1
 62
     7
420
 16777215
176
     1
 90
        0
176
     1
 90
        4
176
     1
 62
     7
176
     1
 62
   257
176
     1
 90
        1
176
     1
 90
        1
176
     1
 40
1.0
176
     1
 90
        8
176
     1
 62
   257
176
     1
 40
1.0
176
     1
 90
        1
176
     1
 90
        6
176
     1
 90
        2
176
     1
 62
     8
420
  7895160
176
     1
 90
        3
176
     1
 90
        0
176
     1
 90
        0
176
     1
290
     0
176
     1
 90
        5
176
     1
 40
0.0
176
     1
 90
        0
176
     1
290
     0
176
     1
290
     1
176
     1
290
     1
176
     1
290
     0
176
     1
290
     0
176
     1
290
     0
176
     1
290
     0
176
     1
290
     0
176
     1
290
     0
176
     1
 90
       50
176
     1
 40
0.0
176
     1
 40
1.0
176
     1
 90
        0
176
     1
 62
    18
420
        0
176
     1
 90
       50
176
     1
 90
        3
176
     1
 62
     5
420
      255
176
     1
290
     0
176
     1
 90
       50
176
     1
 90
       50
176
     1
 90
       50
176
     1
290
     0
176
     1
 90
       50
176
     1
 62
   256
176
     0
 40
1.0
176
     0
 90
        2
176
     1
  1
strokes_ogs.tif
176
     1
290
     0
176
     1
 40
1.0
176
     1
 40
1.0
176
     1
  0
VISUALSTYLE
  5
10031
102
{ACAD_REACTORS
330
1001D
102
}
330
1001D
100
AcDbVisualStyle
  2
Shaded with edges
 70
    26
177
     3
291
     0
 70
    58
 90
        2
176
     1
 90
        2
176
     1
 90
        1
176
     1
 90
        2
176
     1
 40
0.6
176
     1
 40
30.0
176
     1
 62
     7
420
 16777215
176
     1
 90
        1
176
     1
 90
        2
176
     1
 62
     7
176
     1
 62
   257
176
     1
 90
        2
176
     1
 90
        1
176
     1
 40
1.0
176
     1
 90
        8
176
     1
 62
   257
176
     1
 40
1.0
176
     1
 90
        1
176
     1
 90
        6
176
     1
 90
        2
176
     1
 62
     7
176
     1
 90
        3
176
     1
 90
        0
176
     1
 90
        0
176
     1
290
     0
176
     1
 90
        5
176
     1
 40
0.0
176
     1
 90
        0
176
     1
290
     0
176
     1
290
     1
176
     1
290
     1
176
     1
290
     0
176
     1
290
     0
176
     1
290
     0
176
     1
290
     0
176
     1
290
     0
176
     1
290
     0
176
     1
 90
       50
176
     1
 40
0.0
176
     1
 40
1.0
176
     1
 90
        0
176
     1
 62
    18
420
        0
176
     1
 90
       50
176
     1
 90
        3
176
     1
 62
     5
420
      255
176
     1
290
     0
176
     1
 90
       50
176
     1
 90
       50
176
     1
 90
       50
176
     1
290
     0
176
     1
 90
       50
176
     1
 62
   256
176
     0
 40
1.0
176
     0
 90
        2
176
     1
  1
strokes_ogs.tif
176
     1
290
     0
176
     1
 40
1.0
176
     1
 40
1.0
176
     1
  0
VISUALSTYLE
  5
1002E
102
{ACAD_REACTORS
330
1001D
102
}
330
1001D
100
AcDbVisualStyle
  2
Shades of Gray
 70
    23
177
     3
291
     0
 70
    58
 90
        2
176
     1
 90
        2
176
     1
 90
        3
176
     1
 90
        0
176
     1
 40
0.6
176
     1
 40
30.0
176
     1
 62
     7
420
 16777215
176
     1
 90
        2
176
     1
 90
        2
176
     1
 62
     7
176
     1
 62
     7
176
     1
 90
        1
176
     1
 90
        1
176
     1
 40
40.0
176
     1
 90
        8
176
     1
 62
     7
176
     1
 40
1.0
176
     1
 90
        1
176
     1
 90
        6
176
     1
 90
        2
176
     1
 62
     7
176
     1
 90
        3
176
     1
 90
        0
176
     1
 90
        0
176
     1
290
     0
176
     1
 90
        1
176
     1
 40
0.0
176
     1
 90
        0
176
     1
290
     0
176
     1
290
     1
176
     1
290
     1
176
     1
290
     0
176
     1
290
     0
176
     1
290
     0
176
     1
290
     0
176
     1
290
     0
176
     1
290
     0
176
     1
 90
       50
176
     1
 40
0.0
176
     1
 40
1.0
176
     1
 90
        0
176
     1
 62
    18
420
        0
176
     1
 90
       50
176
     1
 90
        3
176
     1
 62
     5
420
      255
176
     1
290
     0
176
     1
 90
       50
176
     1
 90
       50
176
     1
 90
       50
176
     1
290
     0
176
     1
 90
       50
176
     1
 62
   256
176
     0
 40
1.0
176
     0
 90
        2
176
     1
  1
strokes_ogs.tif
176
     1
290
     0
176
     1
 40
1.0
176
     1
 40
1.0
176
     1
  0
VISUALSTYLE
  5
1002F
102
{ACAD_REACTORS
330
1001D
102
}
330
1001D
100
AcDbVisualStyle
  2
Sketchy
 70
    24
177
     3
291
     0
 70
    58
 90
        1
176
     1
 90
        2
176
     1
 90
        2
176
     1
 90
        0
176
     1
 40
0.6
176
     1
 40
30.0
176
     1
 62
     7
420
 16777215
176
     1
 90
        2
176
     1
 90
        2
176
     1
 62
     7
176
     1
 62
     7
176
     1
 90
        1
176
     1
 90
        1
176
     1
 40
40.0
176
     1
 90
       11
176
     1
 62
     7
176
     1
 40
1.0
176
     1
 90
        1
176
     1
 90
        6
176
     1
 90
        2
176
     1
 62
     7
176
     1
 90
        6
176
     1
 90
        0
176
     1
 90
        0
176
     1
290
     0
176
     1
 90
        1
176
     1
 40
0.0
176
     1
 90
        0
176
     1
290
     0
176
     1
290
     1
176
     1
290
     1
176
     1
290
     0
176
     1
290
     0
176
     1
290
     0
176
     1
290
     0
176
     1
290
     0
176
     1
290
     0
176
     1
 90
       50
176
     1
 40
0.0
176
     1
 40
1.0
176
     1
 90
        0
176
     1
 62
    18
420
        0
176
     1
 90
       50
176
     1
 90
        3
176
     1
 62
     5
420
      255
176
     1
290
     0
176
     1
 90
       50
176
     1
 90
       50
176
     1
 90
       50
176
     1
290
     0
176
     1
 90
       50
176
     1
 62
   256
176
     0
 40
1.0
176
     0
 90
        2
176
     1
  1
strokes_ogs.tif
176
     1
290
     0
176
     1
 40
1.0
176
     1
 40
1.0
176
     1
  0
VISUALSTYLE
  5
1002A
102
{ACAD_REACTORS
330
1001D
102
}
330
1001D
100
AcDbVisualStyle
  2
Thicken
 70
    13
177
     3
291
     1
 70
    58
 90
        2
176
     1
 90
        2
176
     1
 90
        0
176
     1
 90
        0
176
     1
 40
0.6
176
     1
 40
30.0
176
     1
 62
     7
420
 16777215
176
     1
 90
        1
176
     1
 90
        4
176
     1
 62
     7
176
     1
 62
   257
176
     1
 90
        1
176
     1
 90
        1
176
     1
 40
1.0
176
     1
 90
       12
176
     1
 62
     7
176
     1
 40
1.0
176
     1
 90
        1
176
     1
 90
        6
176
     1
 90
        2
176
     1
 62
     7
176
     1
 90
        5
176
     1
 90
        0
176
     1
 90
        0
176
     1
290
     0
176
     1
 90
        1
176
     1
 40
0.0
176
     1
 90
        0
176
     1
290
     0
176
     1
290
     1
176
     1
290
     1
176
     1
290
     0
176
     1
290
     0
176
     1
290
     0
176
     1
290
     0
176
     1
290
     0
176
     1
290
     0
176
     1
 90
       50
176
     1
 40
0.0
176
     1
 40
1.0
176
     1
 90
        0
176
     1
 62
    18
420
        0
176
     1
 90
       50
176
     1
 90
        3
176
     1
 62
     5
420
      255
176
     1
290
     0
176
     1
 90
       50
176
     1
 90
       50
176
     1
 90
       50
176
     1
290
     0
176
     1
 90
       50
176
     1
 62
   256
176
     0
 40
1.0
176
     0
 90
        2
176
     1
  1
strokes_ogs.tif
176
     1
290
     0
176
     1
 40
1.0
176
     1
 40
1.0
176
     1
  0
VISUALSTYLE
  5
10024
102
{ACAD_REACTORS
330
1001D
102
}
330
1001D
100
AcDbVisualStyle
  2
Wireframe
 70
     5
177
     3
291
     0
 70
    58
 90
        0
176
     1
 90
        2
176
     1
 90
        0
176
     1
 90
        0
176
     1
 40
0.6
176
     1
 40
30.0
176
     1
 62
     7
420
 16777215
176
     1
 90
        1
176
     1
 90
        4
176
     1
 62
     7
176
     1
 62
   257
176
     1
 90
        1
176
     1
 90
        1
176
     1
 40
1.0
176
     1
 90
        0
176
     1
 62
   257
176
     1
 40
1.0
176
     1
 90
        1
176
     1
 90
        6
176
     1
 90
        2
176
     1
 62
     7
176
     1
 90
        3
176
     1
 90
        0
176
     1
 90
        0
176
     1
290
     0
176
     1
 90
        1
176
     1
 40
0.0
176
     1
 90
        0
176
     1
290
     0
176
     1
290
     1
176
     1
290
     1
176
     1
290
     0
176
     1
290
     0
176
     1
290
     0
176
     1
290
     0
176
     1
290
     0
176
     1
290
     0
176
     1
 90
       50
176
     1
 40
0.0
176
     1
 40
1.0
176
     1
 90
        0
176
     1
 62
    18
420
        0
176
     1
 90
       50
176
     1
 90
        3
176
     1
 62
     5
420
      255
176
     1
290
     0
176
     1
 90
       50
176
     1
 90
       50
176
     1
 90
       50
176
     1
290
     0
176
     1
 90
       50
176
     1
 62
   256
176
     0
 40
1.0
176
     0
 90
        2
176
     1
  1
strokes_ogs.tif
176
     1
290
     0
176
     1
 40
1.0
176
     1
 40
1.0
176
     1
  0
VISUALSTYLE
  5
10030
102
{ACAD_REACTORS
330
1001D
102
}
330
1001D
100
AcDbVisualStyle
  2
X-Ray
 70
    25
177
     3
291
     0
 70
    58
 90
        2
176
     1
 90
        2
176
     1
 90
        1
176
     1
 90
        1
176
     1
 40
0.5
176
     1
 40
30.0
176
     1
 62
     7
420
 16777215
176
     1
 90
        1
176
     1
 90
        0
176
     1
 62
     7
176
     1
 62
   257
176
     1
 90
        1
176
     1
 90
        1
176
     1
 40
1.0
176
     1
 90
        8
176
     1
 62
     7
176
     1
 40
1.0
176
     1
 90
        1
176
     1
 90
        6
176
     1
 90
        2
176
     1
 62
     7
176
     1
 90
        3
176
     1
 90
        0
176
     1
 90
        0
176
     1
290
     0
176
     1
 90
       13
176
     1
 40
0.0
176
     1
 90
        0
176
     1
290
     0
176
     1
290
     1
176
     1
290
     1
176
     1
290
     0
176
     1
290
     0
176
     1
290
     0
176
     1
290
     0
176
     1
290
     0
176
     1
290
     0
176
     1
 90
       50
176
     1
 40
0.0
176
     1
 40
1.0
176
     1
 90
        0
176
     1
 62
    18
420
        0
176
     1
 90
       50
176
     1
 90
        3
176
     1
 62
     5
420
      255
176
     1
290
     0
176
     1
 90
       50
176
     1
 90
       50
176
     1
 90
       50
176
     1
290
     0
176
     1
 90
       50
176
     1
 62
   256
176
     0
 40
1.0
176
     0
 90
        2
176
     1
  1
strokes_ogs.tif
176
     1
290
     0
176
     1
 40
1.0
176
     1
 40
1.0
176
     1
  0
DICTIONARYVAR
  5
10065
102
{ACAD_REACTORS
330
1005F
102
}
330
1005F
100
DictionaryVariables
280
     0
  1
1:1
  0
DICTIONARYVAR
  5
10061
102
{ACAD_REACTORS
330
1005F
102
}
330
1005F
100
DictionaryVariables
280
     0
  1
STANDARD
  0
DICTIONARYVAR
  5
10060
102
{ACAD_REACTORS
330
1005F
102
}
330
1005F
100
DictionaryVariables
280
     0
  1
STANDARD
  0
DICTIONARYVAR
  5
10062
102
{ACAD_REACTORS
330
1005F
102
}
330
1005F
100
DictionaryVariables
280
     0
  1
Imperial24
  0
DICTIONARYVAR
  5
10063
102
{ACAD_REACTORS
330
1005F
102
}
330
1005F
100
DictionaryVariables
280
     0
  1
Imperial24
  0
DICTIONARYVAR
  5
10067
102
{ACAD_REACTORS
330
1005F
102
}
330
1005F
100
DictionaryVariables
280
     0
  1
1
  0
DICTIONARYVAR
  5
10068
102
{ACAD_REACTORS
330
1005F
102
}
330
1005F
100
DictionaryVariables
280
     0
  1
15
  0
DICTIONARYVAR
  5
10066
102
{ACAD_REACTORS
330
1005F
102
}
330
1005F
100
DictionaryVariables
280
     0
  1
0
  0
DICTIONARYVAR
  5
10064
102
{ACAD_REACTORS
330
1005F
102
}
330
1005F
100
DictionaryVariables
280
     0
  1
0
  0
DICTIONARY
  5
1000E
330
1000D
100
AcDbDictionary
280
     1
281
     1
  3
BUMPTILE
360
10010
  3
DIFFUSETILE
360
1000F
  3
OPACITYTILE
360
10013
  3
REFLECTIONTILE
360
10012
  3
REFRACTIONTILE
360
10014
  3
SPECULARTILE
360
10011
  0
DICTIONARY
  5
10006
330
10005
100
AcDbDictionary
280
     1
281
     1
  3
BUMPTILE
360
10008
  3
DIFFUSETILE
360
10007
  3
OPACITYTILE
360
1000B
  3
REFLECTIONTILE
360
1000A
  3
REFRACTIONTILE
360
1000C
  3
SPECULARTILE
360
10009
  0
DICTIONARY
  5
10016
330
10015
100
AcDbDictionary
280
     1
281
     1
  3
BUMPTILE
360
10018
  3
DIFFUSETILE
360
10017
  3
OPACITYTILE
360
1001B
  3
REFLECTIONTILE
360
1001A
  3
REFRACTIONTILE
360
1001C
  3
SPECULARTILE
360
10019
  0
DICTIONARY
  5
10069
330
10039
100
AcDbDictionary
280
     1
281
     1
  3
ACAD_ROUNDTRIP_2008_TABLESTYLE_CELLSTYLEMAP
360
1006A
  0
XRECORD
  5
10010
102
{ACAD_REACTORS
330
1000E
102
}
330
1000E
100
AcDbXrecord
280
     1
270
     1
271
     1
  0
XRECORD
  5
1000F
102
{ACAD_REACTORS
330
1000E
102
}
330
1000E
100
AcDbXrecord
280
     1
270
     1
271
     1
  0
XRECORD
  5
10013
102
{ACAD_REACTORS
330
1000E
102
}
330
1000E
100
AcDbXrecord
280
     1
270
     1
271
     1
  0
XRECORD
  5
10012
102
{ACAD_REACTORS
330
1000E
102
}
330
1000E
100
AcDbXrecord
280
     1
270
     1
271
     1
  0
XRECORD
  5
10014
102
{ACAD_REACTORS
330
1000E
102
}
330
1000E
100
AcDbXrecord
280
     1
270
     1
271
     1
  0
XRECORD
  5
10011
102
{ACAD_REACTORS
330
1000E
102
}
330
1000E
100
AcDbXrecord
280
     1
270
     1
271
     1
  0
XRECORD
  5
10008
102
{ACAD_REACTORS
330
10006
102
}
330
10006
100
AcDbXrecord
280
     1
270
     1
271
     1
  0
XRECORD
  5
10007
102
{ACAD_REACTORS
330
10006
102
}
330
10006
100
AcDbXrecord
280
     1
270
     1
271
     1
  0
XRECORD
  5
1000B
102
{ACAD_REACTORS
330
10006
102
}
330
10006
100
AcDbXrecord
280
     1
270
     1
271
     1
  0
XRECORD
  5
1000A
102
{ACAD_REACTORS
330
10006
102
}
330
10006
100
AcDbXrecord
280
     1
270
     1
271
     1
  0
XRECORD
  5
1000C
102
{ACAD_REACTORS
330
10006
102
}
330
10006
100
AcDbXrecord
280
     1
270
     1
271
     1
  0
XRECORD
  5
10009
102
{ACAD_REACTORS
330
10006
102
}
330
10006
100
AcDbXrecord
280
     1
270
     1
271
     1
  0
XRECORD
  5
10018
102
{ACAD_REACTORS
330
10016
102
}
330
10016
100
AcDbXrecord
280
     1
270
     1
271
     1
  0
XRECORD
  5
10017
102
{ACAD_REACTORS
330
10016
102
}
330
10016
100
AcDbXrecord
280
     1
270
     1
271
     1
  0
XRECORD
  5
1001B
102
{ACAD_REACTORS
330
10016
102
}
330
10016
100
AcDbXrecord
280
     1
270
     1
271
     1
  0
XRECORD
  5
1001A
102
{ACAD_REACTORS
330
10016
102
}
330
10016
100
AcDbXrecord
280
     1
270
     1
271
     1
  0
XRECORD
  5
1001C
102
{ACAD_REACTORS
330
10016
102
}
330
10016
100
AcDbXrecord
280
     1
270
     1
271
     1
  0
XRECORD
  5
10019
102
{ACAD_REACTORS
330
10016
102
}
330
10016
100
AcDbXrecord
280
     1
270
     1
271
     1
  0
CELLSTYLEMAP
  5
1006A
102
{ACAD_REACTORS
330
10069
102
}
330
10069
100
AcDbCellStyleMap
 90
        3
300
CELLSTYLE
  1
TABLEFORMAT_BEGIN
 90
        5
170
     1
 91
        0
 92
    32768
 62
   257
 93
        1
300
CONTENTFORMAT
  1
CONTENTFORMAT_BEGIN
 90
        0
 91
        0
 92
      512
 93
        0
300

 40
0.0
140
1.0
 94
        5
 62
     0
340
11
144
0.25
309
CONTENTFORMAT_END
171
     0
 94
        0
309
TABLEFORMAT_END
  1
CELLSTYLE_BEGIN
 90
        1
 91
        1
300
_TITLE
309
CELLSTYLE_END
300
CELLSTYLE
  1
TABLEFORMAT_BEGIN
 90
        5
170
     1
 91
        0
 92
        0
 62
   257
 93
        1
300
CONTENTFORMAT
  1
CONTENTFORMAT_BEGIN
 90
        0
 91
        0
 92
      512
 93
        0
300

 40
0.0
140
1.0
 94
        5
 62
     0
340
11
144
0.18
309
CONTENTFORMAT_END
171
     0
 94
        0
309
TABLEFORMAT_END
  1
CELLSTYLE_BEGIN
 90
        2
 91
        1
300
_HEADER
309
CELLSTYLE_END
300
CELLSTYLE
  1
TABLEFORMAT_BEGIN
 90
        5
170
     1
 91
        0
 92
        0
 62
   257
 93
        1
300
CONTENTFORMAT
  1
CONTENTFORMAT_BEGIN
 90
        0
 91
        0
 92
      512
 93
        0
300

 40
0.0
140
1.0
 94
        2
 62
     0
340
11
144
0.18
309
CONTENTFORMAT_END
171
     0
 94
        0
309
TABLEFORMAT_END
  1
CELLSTYLE_BEGIN
 90
        3
 91
        2
300
_DATA
309
CELLSTYLE_END
  0
ENDSEC
  0
EOF
