  0
SECTION
  2
HEADER
  9
$ACADVER
  1
AC1032
  9
$ACADMAINTVER
 90
      427
  9
$DWGCODEPAGE
  3
ANSI_949
  9
$LASTSAVEDBY
  1
sunwo
  9
$REQUIREDVERSIONS
160
                 0
  9
$INSBASE
 10
0.0
 20
0.0
 30
0.0
  9
$EXTMIN
 10
114.0000035194857
 20
-84.70033599994776
 30
0.0
  9
$EXTMAX
 10
181.0000035194857
 20
-29.84936693736542
 30
0.0
  9
$LIMMIN
 10
0.0
 20
0.0
  9
$LIMMAX
 10
12.0
 20
9.0
  9
$ORTHOMODE
 70
     0
  9
$REGENMODE
 70
     1
  9
$FILLMODE
 70
     1
  9
$QTEXTMODE
 70
     0
  9
$MIRRTEXT
 70
     0
  9
$LTSCALE
 40
1.0
  9
$ATTMODE
 70
     1
  9
$TEXTSIZE
 40
0.2
  9
$TRACEWID
 40
0.05
  9
$TEXTSTYLE
  7
STANDARD
  9
$CLAYER
  8
0
  9
$CELTYPE
  6
Continuous
  9
$CECOLOR
 62
   256
  9
$CELTSCALE
 40
1.0
  9
$DISPSILH
 70
     0
  9
$DIMSCALE
 40
1.0
  9
$DIMASZ
 40
0.18
  9
$DIMEXO
 40
0.0625
  9
$DIMDLI
 40
0.38
  9
$DIMRND
 40
0.0
  9
$DIMDLE
 40
0.0
  9
$DIMEXE
 40
0.18
  9
$DIMTP
 40
0.0
  9
$DIMTM
 40
0.0
  9
$DIMTXT
 40
0.18
  9
$DIMCEN
 40
0.09
  9
$DIMTSZ
 40
0.0
  9
$DIMTOL
 70
     0
  9
$DIMLIM
 70
     0
  9
$DIMTIH
 70
     1
  9
$DIMTOH
 70
     1
  9
$DIMSE1
 70
     0
  9
$DIMSE2
 70
     0
  9
$DIMTAD
 70
     0
  9
$DIMZIN
 70
     0
  9
$DIMBLK
  1

  9
$DIMASO
 70
     1
  9
$DIMSHO
 70
     1
  9
$DIMPOST
  1

  9
$DIMAPOST
  1

  9
$DIMALT
 70
     0
  9
$DIMALTD
 70
     2
  9
$DIMALTF
 40
25.4
  9
$DIMLFAC
 40
1.0
  9
$DIMTOFL
 70
     0
  9
$DIMTVP
 40
0.0
  9
$DIMTIX
 70
     0
  9
$DIMSOXD
 70
     0
  9
$DIMSAH
 70
     0
  9
$DIMBLK1
  1

  9
$DIMBLK2
  1

  9
$DIMSTYLE
  2
Standard
  9
$DIMCLRD
 70
     0
  9
$DIMCLRE
 70
     0
  9
$DIMCLRT
 70
     0
  9
$DIMTFAC
 40
1.0
  9
$DIMGAP
 40
0.09
  9
$DIMJUST
 70
     0
  9
$DIMSD1
 70
     0
  9
$DIMSD2
 70
     0
  9
$DIMTOLJ
 70
     1
  9
$DIMTZIN
 70
     0
  9
$DIMALTZ
 70
     0
  9
$DIMALTTZ
 70
     0
  9
$DIMUPT
 70
     0
  9
$DIMDEC
 70
     4
  9
$DIMTDEC
 70
     4
  9
$DIMALTU
 70
     2
  9
$DIMALTTD
 70
     2
  9
$DIMTXSTY
  7
STANDARD
  9
$DIMAUNIT
 70
     0
  9
$DIMADEC
 70
     0
  9
$DIMALTRND
 40
0.0
  9
$DIMAZIN
 70
     0
  9
$DIMDSEP
 70
    46
  9
$DIMATFIT
 70
     3
  9
$DIMFRAC
 70
     0
  9
$DIMLDRBLK
  1

  9
$DIMLUNIT
 70
     2
  9
$DIMLWD
 70
    -2
  9
$DIMLWE
 70
    -2
  9
$DIMTMOVE
 70
     0
  9
$DIMFXL
 40
1.0
  9
$DIMFXLON
 70
     0
  9
$DIMJOGANG
 40
0.7853981633974483
  9
$DIMTFILL
 70
     0
  9
$DIMTFILLCLR
 70
     0
  9
$DIMARCSYM
 70
     0
  9
$DIMLTYPE
  6

  9
$DIMLTEX1
  6

  9
$DIMLTEX2
  6

  9
$DIMTXTDIRECTION
 70
     0
  9
$LUNITS
 70
     2
  9
$LUPREC
 70
     4
  9
$SKETCHINC
 40
0.1
  9
$FILLETRAD
 40
0.0
  9
$AUNITS
 70
     0
  9
$AUPREC
 70
     0
  9
$MENU
  1
.
  9
$ELEVATION
 40
0.0
  9
$PELEVATION
 40
0.0
  9
$THICKNESS
 40
0.0
  9
$LIMCHECK
 70
     0
  9
$CHAMFERA
 40
0.0
  9
$CHAMFERB
 40
0.0
  9
$CHAMFERC
 40
0.0
  9
$CHAMFERD
 40
0.0
  9
$SKPOLY
 70
     0
  9
$TDCREATE
 40
2461201.099722222
  9
$TDUCREATE
 40
2461200.724722222
  9
$TDUPDATE
 40
2461201.111516204
  9
$TDUUPDATE
 40
2461200.736516204
  9
$TDINDWG
 40
0.0117939815
  9
$TDUSRTIMER
 40
0.0117939815
  9
$USRTIMER
 70
     1
  9
$ANGBASE
 50
0.0
  9
$ANGDIR
 70
     0
  9
$PDMODE
 70
     0
  9
$PDSIZE
 40
0.0
  9
$PLINEWID
 40
0.0
  9
$SPLFRAME
 70
     0
  9
$SPLINETYPE
 70
     6
  9
$SPLINESEGS
 70
     8
  9
$HANDSEED
  5
10087
  9
$SURFTAB1
 70
     6
  9
$SURFTAB2
 70
     6
  9
$SURFTYPE
 70
     6
  9
$SURFU
 70
     6
  9
$SURFV
 70
     6
  9
$UCSBASE
  2

  9
$UCSNAME
  2

  9
$UCSORG
 10
0.0
 20
0.0
 30
0.0
  9
$UCSXDIR
 10
1.0
 20
0.0
 30
0.0
  9
$UCSYDIR
 10
0.0
 20
1.0
 30
0.0
  9
$UCSORTHOREF
  2

  9
$UCSORTHOVIEW
 70
     0
  9
$UCSORGTOP
 10
0.0
 20
0.0
 30
0.0
  9
$UCSORGBOTTOM
 10
0.0
 20
0.0
 30
0.0
  9
$UCSORGLEFT
 10
0.0
 20
0.0
 30
0.0
  9
$UCSORGRIGHT
 10
0.0
 20
0.0
 30
0.0
  9
$UCSORGFRONT
 10
0.0
 20
0.0
 30
0.0
  9
$UCSORGBACK
 10
0.0
 20
0.0
 30
0.0
  9
$PUCSBASE
  2

  9
$PUCSNAME
  2

  9
$PUCSORG
 10
0.0
 20
0.0
 30
0.0
  9
$PUCSXDIR
 10
1.0
 20
0.0
 30
0.0
  9
$PUCSYDIR
 10
0.0
 20
1.0
 30
0.0
  9
$PUCSORTHOREF
  2

  9
$PUCSORTHOVIEW
 70
     0
  9
$PUCSORGTOP
 10
0.0
 20
0.0
 30
0.0
  9
$PUCSORGBOTTOM
 10
0.0
 20
0.0
 30
0.0
  9
$PUCSORGLEFT
 10
0.0
 20
0.0
 30
0.0
  9
$PUCSORGRIGHT
 10
0.0
 20
0.0
 30
0.0
  9
$PUCSORGFRONT
 10
0.0
 20
0.0
 30
0.0
  9
$PUCSORGBACK
 10
0.0
 20
0.0
 30
0.0
  9
$USERI1
 70
     0
  9
$USERI2
 70
     0
  9
$USERI3
 70
     0
  9
$USERI4
 70
     0
  9
$USERI5
 70
     0
  9
$USERR1
 40
0.0
  9
$USERR2
 40
0.0
  9
$USERR3
 40
0.0
  9
$USERR4
 40
0.0
  9
$USERR5
 40
0.0
  9
$WORLDVIEW
 70
     1
  9
$SHADEDGE
 70
     3
  9
$SHADEDIF
 70
    70
  9
$TILEMODE
 70
     1
  9
$MAXACTVP
 70
    64
  9
$PINSBASE
 10
0.0
 20
0.0
 30
0.0
  9
$PLIMCHECK
 70
     0
  9
$PEXTMIN
 10
1.000000000000000E+20
 20
1.000000000000000E+20
 30
1.000000000000000E+20
  9
$PEXTMAX
 10
-1.000000000000000E+20
 20
-1.000000000000000E+20
 30
-1.000000000000000E+20
  9
$PLIMMIN
 10
0.0
 20
0.0
  9
$PLIMMAX
 10
12.0
 20
9.0
  9
$UNITMODE
 70
     0
  9
$VISRETAIN
 70
     1
  9
$PLINEGEN
 70
     0
  9
$PSLTSCALE
 70
     1
  9
$TREEDEPTH
 70
  3020
  9
$CMLSTYLE
  2
Standard
  9
$CMLJUST
 70
     0
  9
$CMLSCALE
 40
1.0
  9
$PROXYGRAPHICS
 70
     1
  9
$MEASUREMENT
 70
     0
  9
$CELWEIGHT
370
    -1
  9
$ENDCAPS
280
     0
  9
$JOINSTYLE
280
     0
  9
$LWDISPLAY
290
     0
  9
$INSUNITS
 70
     4
  9
$HYPERLINKBASE
  1

  9
$STYLESHEET
  1

  9
$XEDIT
290
     1
  9
$CEPSNTYPE
380
     0
  9
$PSTYLEMODE
290
     1
  9
$FINGERPRINTGUID
  2
{5D36A92F-A133-FB43-B33A-C0F148BBCC9D}
  9
$VERSIONGUID
  2
{6A30F127-D586-FD47-AFB0-22E431F89E14}
  9
$EXTNAMES
290
     1
  9
$PSVPSCALE
 40
0.0
  9
$OLESTARTUP
290
     0
  9
$SORTENTS
280
   127
  9
$INDEXCTL
280
     0
  9
$HIDETEXT
280
     0
  9
$XCLIPFRAME
280
     2
  9
$HALOGAP
280
     0
  9
$OBSCOLOR
 70
   257
  9
$OBSLTYPE
280
     0
  9
$INTERSECTIONDISPLAY
280
     0
  9
$INTERSECTIONCOLOR
 70
   257
  9
$DIMASSOC
280
     1
  9
$PROJECTNAME
  1

  9
$CAMERADISPLAY
290
     0
  9
$LENSLENGTH
 40
50.0
  9
$CAMERAHEIGHT
 40
0.0
  9
$STEPSPERSEC
 40
2.0
  9
$STEPSIZE
 40
6.0
  9
$3DDWFPREC
 40
2.0
  9
$PSOLWIDTH
 40
0.25
  9
$PSOLHEIGHT
 40
4.0
  9
$LOFTANG1
 40
1.570796326794896
  9
$LOFTANG2
 40
1.570796326794896
  9
$LOFTMAG1
 40
0.0
  9
$LOFTMAG2
 40
0.0
  9
$LOFTPARAM
 70
     7
  9
$LOFTNORMALS
280
     1
  9
$LATITUDE
 40
37.795
  9
$LONGITUDE
 40
-122.394
  9
$NORTHDIRECTION
 40
0.0
  9
$TIMEZONE
 70
 -8000
  9
$LIGHTGLYPHDISPLAY
280
     1
  9
$TILEMODELIGHTSYNCH
280
     1
  9
$CMATERIAL
347
10005
  9
$SOLIDHIST
280
     0
  9
$SHOWHIST
280
     1
  9
$DWFFRAME
280
     2
  9
$DGNFRAME
280
     0
  9
$REALWORLDSCALE
290
     1
  9
$INTERFERECOLOR
 62
     1
  9
$INTERFEREOBJVS
345
10027
  9
$INTERFEREVPVS
346
10024
  9
$CSHADOW
280
     0
  9
$SHADOWPLANELOCATION
 40
0.0
  0
ENDSEC
  0
SECTION
  2
CLASSES
  0
CLASS
  1
ACDBDICTIONARYWDFLT
  2
AcDbDictionaryWithDefault
  3
ObjectDBX Classes
 90
        0
 91
        1
280
     0
281
     0
  0
CLASS
  1
MATERIAL
  2
AcDbMaterial
  3
ObjectDBX Classes
 90
     1153
 91
        3
280
     0
281
     0
  0
CLASS
  1
VISUALSTYLE
  2
AcDbVisualStyle
  3
ObjectDBX Classes
 90
     4095
 91
       24
280
     0
281
     0
  0
CLASS
  1
TABLESTYLE
  2
AcDbTableStyle
  3
ObjectDBX Classes
 90
     4095
 91
        1
280
     0
281
     0
  0
CLASS
  1
SCALE
  2
AcDbScale
  3
ObjectDBX Classes
 90
     1153
 91
       17
280
     0
281
     0
  0
CLASS
  1
MLEADERSTYLE
  2
AcDbMLeaderStyle
  3
ACDB_MLEADERSTYLE_CLASS
 90
     4095
 91
        1
280
     0
281
     0
  0
CLASS
  1
ACDBSECTIONVIEWSTYLE
  2
AcDbSectionViewStyle
  3
ObjectDBX Classes
 90
     1025
 91
        1
280
     0
281
     0
  0
CLASS
  1
ACDBDETAILVIEWSTYLE
  2
AcDbDetailViewStyle
  3
ObjectDBX Classes
 90
     1025
 91
        1
280
     0
281
     0
  0
CLASS
  1
DICTIONARYVAR
  2
AcDbDictionaryVar
  3
ObjectDBX Classes
 90
        0
 91
       27
280
     0
281
     0
  0
CLASS
  1
CELLSTYLEMAP
  2
AcDbCellStyleMap
  3
ObjectDBX Classes
 90
     1152
 91
        2
280
     0
281
     0
  0
ENDSEC
  0
SECTION
  2
TABLES
  0
TABLE
  2
VPORT
  5
8
330
0
100
AcDbSymbolTable
 70
     1
  0
VPORT
  5
10059
330
8
100
AcDbSymbolTableRecord
100
AcDbViewportTableRecord
  2
*Active
 70
     0
 10
0.0
 20
0.0
 11
1.0
 21
1.0
 12
151.3238204288647
 22
-56.88642615832896
 13
0.0
 23
0.0
 14
1.0
 24
1.0
 15
0.0
 25
0.0
 16
0.0
 26
0.0
 36
1.0
 17
0.0
 27
0.0
 37
0.0
 40
96.88144505593209
 41
2.570850202429149
 42
50.0
 43
0.0
 44
0.0
 50
0.0
 51
0.0
 71
     0
 72
  1000
 73
     1
 74
     3
 75
     0
 76
     0
 77
     0
 78
     0
281
     0
 65
     1
110
0.0
120
0.0
130
0.0
111
1.0
121
0.0
131
0.0
112
0.0
122
1.0
132
0.0
 79
     0
146
0.0
348
10023
 60
     3
 61
     5
292
     1
282
     1
141
0.0
142
0.0
 63
   250
421
  3355443
1001
ACAD_NAV_VCDISPLAY
1070
     1
  0
ENDTAB
  0
TABLE
  2
LTYPE
  5
5
330
0
100
AcDbSymbolTable
 70
     2
  0
LTYPE
  5
14
330
5
100
AcDbSymbolTableRecord
100
AcDbLinetypeTableRecord
  2
BYBLOCK
 70
     0
  3

 72
    65
 73
     0
 40
0.0
  0
LTYPE
  5
15
330
5
100
AcDbSymbolTableRecord
100
AcDbLinetypeTableRecord
  2
BYLAYER
 70
     0
  3

 72
    65
 73
     0
 40
0.0
  0
LTYPE
  5
10001
330
5
100
AcDbSymbolTableRecord
100
AcDbLinetypeTableRecord
  2
Continuous
 70
     0
  3
Solid line
 72
    65
 73
     0
 40
0.0
  0
LTYPE
  5
16
330
5
100
AcDbSymbolTableRecord
100
AcDbLinetypeTableRecord
  2
DASHED
 70
     0
  3
Dashed __ __ __ __ __ __ __ __ __ __ __ __ __ _
 72
    65
 73
     2
 40
0.75
 49
0.5
 74
     0
 49
-0.25
 74
     0
  0
ENDTAB
  0
TABLE
  2
LAYER
  5
2
330
0
100
AcDbSymbolTable
 70
     1
  0
LAYER
  5
50
102
{ACAD_XDICTIONARY
360
10078
102
}
330
2
100
AcDbSymbolTableRecord
100
AcDbLayerTableRecord
  2
0
 70
     0
 62
     7
  6
Continuous
370
    -3
390
10003
347
10015
348
0
  0
ENDTAB
  0
TABLE
  2
STYLE
  5
3
330
0
100
AcDbSymbolTable
 70
     1
  0
STYLE
  5
11
330
3
100
AcDbSymbolTableRecord
100
AcDbTextStyleTableRecord
  2
STANDARD
 70
     0
 40
0.0
 41
1.0
 50
0.0
 71
     0
 42
0.2
  3

  4

  0
ENDTAB
  0
TABLE
  2
VIEW
  5
6
330
0
100
AcDbSymbolTable
 70
     0
  0
ENDTAB
  0
TABLE
  2
UCS
  5
7
330
0
100
AcDbSymbolTable
 70
     0
  0
ENDTAB
  0
TABLE
  2
APPID
  5
9
330
0
100
AcDbSymbolTable
 70
     2
  0
APPID
  5
12
330
9
100
AcDbSymbolTableRecord
100
AcDbRegAppTableRecord
  2
ACAD
 70
     0
  0
APPID
  5
10058
330
9
100
AcDbSymbolTableRecord
100
AcDbRegAppTableRecord
  2
ACAD_NAV_VCDISPLAY
 70
     0
  0
ENDTAB
  0
TABLE
  2
DIMSTYLE
  5
A
330
0
100
AcDbSymbolTable
 70
     1
100
AcDbDimStyleTable
 71
     0
  0
DIMSTYLE
105
10053
330
A
100
AcDbSymbolTableRecord
100
AcDbDimStyleTableRecord
  2
Standard
 70
     0
340
11
  0
ENDTAB
  0
TABLE
  2
BLOCK_RECORD
  5
1
330
0
100
AcDbSymbolTable
 70
     0
  0
BLOCK_RECORD
  5
1F
330
1
100
AcDbSymbolTableRecord
100
AcDbBlockTableRecord
  2
*MODEL_SPACE
340
10055
 70
     0
280
     1
281
     0
  0
BLOCK_RECORD
  5
1B
330
1
100
AcDbSymbolTableRecord
100
AcDbBlockTableRecord
  2
*PAPER_SPACE
340
10056
 70
     0
280
     1
281
     0
  0
ENDTAB
  0
ENDSEC
  0
SECTION
  2
BLOCKS
  0
BLOCK
  5
20
330
1F
100
AcDbEntity
  8
0
100
AcDbBlockBegin
  2
*MODEL_SPACE
 70
     0
 10
0.0
 20
0.0
 30
0.0
  3
*MODEL_SPACE
  1

  0
ENDBLK
  5
21
330
1F
100
AcDbEntity
  8
0
100
AcDbBlockEnd
  0
BLOCK
  5
1C
330
1B
100
AcDbEntity
 67
     1
  8
0
100
AcDbBlockBegin
  2
*PAPER_SPACE
 70
     0
 10
0.0
 20
0.0
 30
0.0
  3
*PAPER_SPACE
  1

  0
ENDBLK
  5
1D
330
1B
100
AcDbEntity
 67
     1
  8
0
100
AcDbBlockEnd
  0
ENDSEC
  0
SECTION
  2
ENTITIES
  0
SPLINE
  5
103
330
1F
100
AcDbEntity
  8
0
100
AcDbSpline
210
0.0
220
0.0
230
1.0
 70
     9
 71
     3
 72
  1005
 73
  1001
 74
     0
 42
0.000000001
 43
0.0000000001
 40
0.0
 40
0.0
 40
0.0
 40
0.0
 40
0.0107481425450618
 40
0.0214962850901236
 40
0.0322444276351853
 40
0.0429925701802471
 40
0.0537407127253089
 40
0.0644888552703706
 40
0.0752369978154324
 40
0.0859851403604942
 40
0.096733282905556
 40
0.1074814254506177
 40
0.1182295679956795
 40
0.1289777105407412
 40
0.139725853085803
 40
0.1504739956308648
 40
0.1612221381759266
 40
0.1719702807209884
 40
0.1827184232660501
 40
0.1934665658111119
 40
0.2042147083561737
 40
0.2149628509012355
 40
0.2257109934462972
 40
0.236459135991359
 40
0.2472072785364208
 40
0.2579554210814825
 40
0.2687035636265443
 40
0.2794517061716061
 40
0.2901998487166679
 40
0.3009479912617296
 40
0.3116961338067914
 40
0.3224442763518532
 40
0.3331924188969149
 40
0.3439405614419767
 40
0.3546887039870385
 40
0.3654368465321002
 40
0.376184989077162
 40
0.3869331316222238
 40
0.3976812741672855
 40
0.4084294167123474
 40
0.4191775592574091
 40
0.429925701802471
 40
0.4406738443475327
 40
0.4514219868925945
 40
0.4621701294376562
 40
0.472918271982718
 40
0.4836664145277798
 40
0.4944145570728416
 40
0.5051626996179034
 40
0.515910842162965
 40
0.5266589847080269
 40
0.5374071272530886
 40
0.5481552697981505
 40
0.5589034123432122
 40
0.5696515548882739
 40
0.5803996974333358
 40
0.5911478399783975
 40
0.6018959825234593
 40
0.6126441250685211
 40
0.6233922676135828
 40
0.6341404101586445
 40
0.6448885527037064
 40
0.6556366952487682
 40
0.6663848377938299
 40
0.6771329803388917
 40
0.6878811228839535
 40
0.6986292654290152
 40
0.7093774079740771
 40
0.7201255505191388
 40
0.7308736930642005
 40
0.7416218356092623
 40
0.7523699781543241
 40
0.7631181206993859
 40
0.7738662632444476
 40
0.7846144057895094
 40
0.7953625483345711
 40
0.8061106908796329
 40
0.8168588334246946
 40
0.8276069759697563
 40
0.8383551185148181
 40
0.84910326105988
 40
0.8598514036049419
 40
0.8705995461500036
 40
0.8813476886950653
 40
0.8920958312401271
 40
0.9028439737851888
 40
0.9135921163302505
 40
0.9243402588753124
 40
0.9350884014203742
 40
0.9458365439654359
 40
0.9565846865104978
 40
0.9673328290555595
 40
0.9780809716006212
 40
0.988829114145683
 40
0.9995772566907447
 40
1.010325399235806
 40
1.021073541780868
 40
1.03182168432593
 40
1.042569826870991
 40
1.053317969416053
 40
1.064066111961115
 40
1.074814254506177
 40
1.085562397051238
 40
1.0963105395963
 40
1.107058682141362
 40
1.117806824686424
 40
1.128554967231486
 40
1.139303109776547
 40
1.150051252321609
 40
1.160799394866671
 40
1.171547537411733
 40
1.182295679956794
 40
1.193043822501856
 40
1.203791965046918
 40
1.21454010759198
 40
1.225288250137042
 40
1.236036392682103
 40
1.246784535227165
 40
1.257532677772227
 40
1.268280820317289
 40
1.27902896286235
 40
1.289777105407412
 40
1.300525247952474
 40
1.311273390497536
 40
1.322021533042597
 40
1.332769675587659
 40
1.343517818132721
 40
1.354265960677783
 40
1.365014103222845
 40
1.375762245767906
 40
1.386510388312968
 40
1.39725853085803
 40
1.408006673403092
 40
1.418754815948154
 40
1.429502958493215
 40
1.440251101038277
 40
1.450999243583339
 40
1.4617473861284
 40
1.472495528673462
 40
1.483243671218524
 40
1.493991813763586
 40
1.504739956308648
 40
1.515488098853709
 40
1.526236241398771
 40
1.536984383943833
 40
1.547732526488895
 40
1.558480669033956
 40
1.569228811579018
 40
1.57997695412408
 40
1.590725096669142
 40
1.601473239214204
 40
1.612221381759265
 40
1.622969524304327
 40
1.633717666849389
 40
1.644465809394451
 40
1.655213951939512
 40
1.665962094484574
 40
1.676710237029636
 40
1.687458379574698
 40
1.698206522119759
 40
1.708954664664821
 40
1.719702807209883
 40
1.730450949754945
 40
1.741199092300007
 40
1.751947234845068
 40
1.76269537739013
 40
1.773443519935192
 40
1.784191662480254
 40
1.794939805025316
 40
1.805687947570377
 40
1.816436090115439
 40
1.827184232660501
 40
1.837932375205562
 40
1.848680517750624
 40
1.859428660295686
 40
1.870176802840748
 40
1.88092494538581
 40
1.891673087930871
 40
1.902421230475933
 40
1.913169373020995
 40
1.923917515566057
 40
1.934665658111119
 40
1.94541380065618
 40
1.956161943201242
 40
1.966910085746304
 40
1.977658228291366
 40
1.988406370836427
 40
1.999154513381489
 40
2.009902655926551
 40
2.020650798471613
 40
2.031398941016675
 40
2.042147083561736
 40
2.052895226106798
 40
2.06364336865186
 40
2.074391511196921
 40
2.085139653741983
 40
2.095887796287045
 40
2.106635938832107
 40
2.117384081377168
 40
2.12813222392223
 40
2.138880366467292
 40
2.149628509012354
 40
2.160376651557416
 40
2.171124794102477
 40
2.181872936647539
 40
2.192621079192601
 40
2.203369221737663
 40
2.214117364282725
 40
2.224865506827786
 40
2.235613649372848
 40
2.24636179191791
 40
2.257109934462972
 40
2.267858077008034
 40
2.278606219553095
 40
2.289354362098157
 40
2.300102504643219
 40
2.310850647188281
 40
2.321598789733342
 40
2.332346932278404
 40
2.343095074823466
 40
2.353843217368527
 40
2.364591359913589
 40
2.375339502458651
 40
2.386087645003713
 40
2.396835787548775
 40
2.407583930093836
 40
2.418332072638898
 40
2.42908021518396
 40
2.439828357729022
 40
2.450576500274084
 40
2.461324642819145
 40
2.472072785364207
 40
2.482820927909269
 40
2.493569070454331
 40
2.504317212999393
 40
2.515065355544454
 40
2.525813498089516
 40
2.536561640634578
 40
2.54730978317964
 40
2.558057925724701
 40
2.568806068269763
 40
2.579554210814825
 40
2.590302353359887
 40
2.601050495904948
 40
2.61179863845001
 40
2.622546780995072
 40
2.633294923540134
 40
2.644043066085195
 40
2.654791208630257
 40
2.665539351175319
 40
2.676287493720381
 40
2.687035636265442
 40
2.697783778810504
 40
2.708531921355566
 40
2.719280063900628
 40
2.73002820644569
 40
2.740776348990751
 40
2.751524491535813
 40
2.762272634080875
 40
2.773020776625937
 40
2.783768919170999
 40
2.79451706171606
 40
2.805265204261122
 40
2.816013346806184
 40
2.826761489351246
 40
2.837509631896308
 40
2.848257774441369
 40
2.859005916986431
 40
2.869754059531492
 40
2.880502202076554
 40
2.891250344621616
 40
2.901998487166678
 40
2.91274662971174
 40
2.923494772256801
 40
2.934242914801863
 40
2.944991057346925
 40
2.955739199891987
 40
2.966487342437049
 40
2.97723548498211
 40
2.987983627527172
 40
2.998731770072234
 40
3.009479912617296
 40
3.020228055162358
 40
3.030976197707419
 40
3.041724340252481
 40
3.052472482797543
 40
3.063220625342605
 40
3.073968767887667
 40
3.084716910432728
 40
3.09546505297779
 40
3.106213195522852
 40
3.116961338067913
 40
3.127709480612975
 40
3.138457623158037
 40
3.149205765703099
 40
3.15995390824816
 40
3.170702050793222
 40
3.181450193338284
 40
3.192198335883346
 40
3.202946478428408
 40
3.213694620973469
 40
3.224442763518531
 40
3.235190906063593
 40
3.245939048608655
 40
3.256687191153717
 40
3.267435333698778
 40
3.27818347624384
 40
3.288931618788902
 40
3.299679761333964
 40
3.310427903879025
 40
3.321176046424087
 40
3.331924188969149
 40
3.342672331514211
 40
3.353420474059273
 40
3.364168616604334
 40
3.374916759149396
 40
3.385664901694458
 40
3.396413044239519
 40
3.407161186784581
 40
3.417909329329643
 40
3.428657471874705
 40
3.439405614419767
 40
3.450153756964828
 40
3.46090189950989
 40
3.471650042054952
 40
3.482398184600014
 40
3.493146327145075
 40
3.503894469690137
 40
3.514642612235199
 40
3.525390754780261
 40
3.536138897325323
 40
3.546887039870384
 40
3.557635182415446
 40
3.568383324960508
 40
3.57913146750557
 40
3.589879610050632
 40
3.600627752595693
 40
3.611375895140755
 40
3.622124037685817
 40
3.632872180230878
 40
3.64362032277594
 40
3.654368465321002
 40
3.665116607866064
 40
3.675864750411125
 40
3.686612892956187
 40
3.697361035501249
 40
3.708109178046311
 40
3.718857320591373
 40
3.729605463136434
 40
3.740353605681496
 40
3.751101748226558
 40
3.76184989077162
 40
3.772598033316682
 40
3.783346175861743
 40
3.794094318406805
 40
3.804842460951867
 40
3.815590603496929
 40
3.826338746041991
 40
3.837086888587052
 40
3.847835031132114
 40
3.858583173677176
 40
3.869331316222238
 40
3.880079458767299
 40
3.890827601312361
 40
3.901575743857423
 40
3.912323886402484
 40
3.923072028947546
 40
3.933820171492608
 40
3.94456831403767
 40
3.955316456582732
 40
3.966064599127793
 40
3.976812741672855
 40
3.987560884217917
 40
3.998309026762979
 40
4.00905716930804
 40
4.019805311853103
 40
4.030553454398164
 40
4.041301596943226
 40
4.052049739488287
 40
4.06279788203335
 40
4.073546024578411
 40
4.084294167123473
 40
4.095042309668535
 40
4.105790452213597
 40
4.116538594758658
 40
4.12728673730372
 40
4.138034879848782
 40
4.148783022393843
 40
4.159531164938905
 40
4.170279307483967
 40
4.181027450029029
 40
4.19177559257409
 40
4.202523735119153
 40
4.213271877664214
 40
4.224020020209276
 40
4.234768162754337
 40
4.2455163052994
 40
4.256264447844461
 40
4.267012590389523
 40
4.277760732934585
 40
4.288508875479647
 40
4.299257018024708
 40
4.31000516056977
 40
4.320753303114832
 40
4.331501445659894
 40
4.342249588204955
 40
4.352997730750018
 40
4.363745873295079
 40
4.374494015840141
 40
4.385242158385203
 40
4.395990300930264
 40
4.406738443475326
 40
4.417486586020388
 40
4.42823472856545
 40
4.438982871110511
 40
4.449731013655573
 40
4.460479156200635
 40
4.471227298745697
 40
4.481975441290758
 40
4.49272358383582
 40
4.503471726380882
 40
4.514219868925944
 40
4.524968011471005
 40
4.535716154016068
 40
4.546464296561129
 40
4.557212439106191
 40
4.567960581651253
 40
4.578708724196315
 40
4.589456866741376
 40
4.600205009286438
 40
4.6109531518315
 40
4.621701294376562
 40
4.632449436921623
 40
4.643197579466685
 40
4.653945722011747
 40
4.664693864556809
 40
4.67544200710187
 40
4.686190149646932
 40
4.696938292191994
 40
4.707686434737055
 40
4.718434577282118
 40
4.729182719827179
 40
4.739930862372241
 40
4.750679004917302
 40
4.761427147462365
 40
4.772175290007426
 40
4.782923432552488
 40
4.79367157509755
 40
4.804419717642612
 40
4.815167860187673
 40
4.825916002732736
 40
4.836664145277797
 40
4.847412287822859
 40
4.85816043036792
 40
4.868908572912983
 40
4.879656715458044
 40
4.890404858003106
 40
4.901153000548168
 40
4.91190114309323
 40
4.922649285638291
 40
4.933397428183353
 40
4.944145570728415
 40
4.954893713273476
 40
4.965641855818538
 40
4.9763899983636
 40
4.987138140908662
 40
4.997886283453723
 40
5.008634425998786
 40
5.019382568543847
 40
5.030130711088909
 40
5.04087885363397
 40
5.051626996179033
 40
5.062375138724094
 40
5.073123281269156
 40
5.083871423814218
 40
5.09461956635928
 40
5.105367708904341
 40
5.116115851449403
 40
5.126863993994465
 40
5.137612136539527
 40
5.148360279084588
 40
5.15910842162965
 40
5.169856564174712
 40
5.180604706719774
 40
5.191352849264836
 40
5.202100991809897
 40
5.212849134354959
 40
5.22359727690002
 40
5.234345419445083
 40
5.245093561990144
 40
5.255841704535206
 40
5.266589847080268
 40
5.27733798962533
 40
5.288086132170391
 40
5.298834274715453
 40
5.309582417260515
 40
5.320330559805577
 40
5.331078702350638
 40
5.341826844895701
 40
5.352574987440762
 40
5.363323129985824
 40
5.374071272530885
 40
5.384819415075948
 40
5.395567557621009
 40
5.406315700166071
 40
5.417063842711133
 40
5.427811985256195
 40
5.438560127801256
 40
5.449308270346318
 40
5.46005641289138
 40
5.470804555436441
 40
5.481552697981503
 40
5.492300840526565
 40
5.503048983071627
 40
5.513797125616688
 40
5.524545268161751
 40
5.535293410706812
 40
5.546041553251874
 40
5.556789695796935
 40
5.567537838341998
 40
5.578285980887059
 40
5.589034123432121
 40
5.599782265977183
 40
5.610530408522245
 40
5.621278551067306
 40
5.632026693612369
 40
5.64277483615743
 40
5.653522978702492
 40
5.664271121247553
 40
5.675019263792616
 40
5.685767406337677
 40
5.696515548882739
 40
5.707263691427801
 40
5.718011833972862
 40
5.728759976517924
 40
5.739508119062985
 40
5.750256261608048
 40
5.761004404153109
 40
5.771752546698171
 40
5.782500689243233
 40
5.793248831788295
 40
5.803996974333356
 40
5.814745116878418
 40
5.82549325942348
 40
5.836241401968542
 40
5.846989544513603
 40
5.857737687058666
 40
5.868485829603727
 40
5.879233972148789
 40
5.889982114693851
 40
5.900730257238913
 40
5.911478399783974
 40
5.922226542329036
 40
5.932974684874098
 40
5.94372282741916
 40
5.954470969964221
 40
5.965219112509283
 40
5.975967255054345
 40
5.986715397599406
 40
5.997463540144468
 40
6.00821168268953
 40
6.018959825234592
 40
6.029707967779653
 40
6.040456110324716
 40
6.051204252869777
 40
6.061952395414839
 40
6.072700537959901
 40
6.083448680504963
 40
6.094196823050024
 40
6.104944965595086
 40
6.115693108140148
 40
6.12644125068521
 40
6.137189393230271
 40
6.147937535775334
 40
6.158685678320395
 40
6.169433820865457
 40
6.180181963410518
 40
6.190930105955581
 40
6.201678248500642
 40
6.212426391045704
 40
6.223174533590766
 40
6.233922676135827
 40
6.244670818680889
 40
6.255418961225951
 40
6.266167103771013
 40
6.276915246316074
 40
6.287663388861136
 40
6.298411531406198
 40
6.30915967395126
 40
6.319907816496321
 40
6.330655959041384
 40
6.341404101586445
 40
6.352152244131507
 40
6.362900386676568
 40
6.373648529221631
 40
6.384396671766692
 40
6.395144814311754
 40
6.405892956856816
 40
6.416641099401878
 40
6.427389241946939
 40
6.438137384492001
 40
6.448885527037063
 40
6.459633669582125
 40
6.470381812127186
 40
6.481129954672248
 40
6.49187809721731
 40
6.502626239762371
 40
6.513374382307434
 40
6.524122524852495
 40
6.534870667397557
 40
6.545618809942618
 40
6.556366952487681
 40
6.567115095032742
 40
6.577863237577804
 40
6.588611380122866
 40
6.599359522667928
 40
6.610107665212989
 40
6.620855807758051
 40
6.631603950303113
 40
6.642352092848175
 40
6.653100235393236
 40
6.663848377938299
 40
6.67459652048336
 40
6.685344663028422
 40
6.696092805573484
 40
6.706840948118546
 40
6.717589090663607
 40
6.728337233208669
 40
6.739085375753731
 40
6.749833518298792
 40
6.760581660843854
 40
6.771329803388916
 40
6.782077945933978
 40
6.792826088479039
 40
6.803574231024101
 40
6.814322373569163
 40
6.825070516114225
 40
6.835818658659286
 40
6.846566801204349
 40
6.85731494374941
 40
6.868063086294472
 40
6.878811228839534
 40
6.889559371384596
 40
6.900307513929657
 40
6.911055656474719
 40
6.921803799019781
 40
6.932551941564843
 40
6.943300084109904
 40
6.954048226654967
 40
6.964796369200028
 40
6.97554451174509
 40
6.986292654290151
 40
6.997040796835213
 40
7.007788939380275
 40
7.018537081925336
 40
7.029285224470399
 40
7.04003336701546
 40
7.050781509560522
 40
7.061529652105583
 40
7.072277794650646
 40
7.083025937195707
 40
7.093774079740769
 40
7.104522222285831
 40
7.115270364830893
 40
7.126018507375954
 40
7.136766649921017
 40
7.147514792466078
 40
7.15826293501114
 40
7.169011077556201
 40
7.179759220101264
 40
7.190507362646325
 40
7.201255505191387
 40
7.212003647736449
 40
7.222751790281511
 40
7.233499932826572
 40
7.244248075371634
 40
7.254996217916696
 40
7.265744360461757
 40
7.276492503006819
 40
7.287240645551881
 40
7.297988788096943
 40
7.308736930642004
 40
7.319485073187067
 40
7.330233215732128
 40
7.34098135827719
 40
7.351729500822251
 40
7.362477643367314
 40
7.373225785912375
 40
7.383973928457437
 40
7.394722071002499
 40
7.405470213547561
 40
7.416218356092622
 40
7.426966498637684
 40
7.437714641182746
 40
7.448462783727808
 40
7.459210926272869
 40
7.469959068817932
 40
7.480707211362993
 40
7.491455353908055
 40
7.502203496453116
 40
7.512951638998178
 40
7.52369978154324
 40
7.534447924088301
 40
7.545196066633364
 40
7.555944209178425
 40
7.566692351723487
 40
7.577440494268549
 40
7.588188636813611
 40
7.598936779358672
 40
7.609684921903734
 40
7.620433064448796
 40
7.631181206993858
 40
7.641929349538919
 40
7.652677492083982
 40
7.663425634629043
 40
7.674173777174105
 40
7.684921919719166
 40
7.695670062264229
 40
7.70641820480929
 40
7.717166347354352
 40
7.727914489899414
 40
7.738662632444476
 40
7.749410774989537
 40
7.760158917534599
 40
7.770907060079661
 40
7.781655202624722
 40
7.792403345169784
 40
7.803151487714846
 40
7.813899630259908
 40
7.824647772804969
 40
7.835395915350032
 40
7.846144057895093
 40
7.856892200440155
 40
7.867640342985216
 40
7.878388485530279
 40
7.88913662807534
 40
7.899884770620402
 40
7.910632913165464
 40
7.921381055710526
 40
7.932129198255587
 40
7.94287734080065
 40
7.953625483345711
 40
7.964373625890773
 40
7.975121768435834
 40
7.985869910980897
 40
7.996618053525958
 40
8.00736619607102
 40
8.018114338616081
 40
8.028862481161143
 40
8.039610623706206
 40
8.050358766251267
 40
8.061106908796329
 40
8.07185505134139
 40
8.082603193886452
 40
8.093351336431513
 40
8.104099478976575
 40
8.114847621521638
 40
8.1255957640667
 40
8.136343906611761
 40
8.147092049156823
 40
8.157840191701884
 40
8.168588334246946
 40
8.179336476792007
 40
8.190084619337071
 40
8.200832761882132
 40
8.211580904427194
 40
8.222329046972255
 40
8.233077189517317
 40
8.243825332062378
 40
8.25457347460744
 40
8.265321617152503
 40
8.276069759697564
 40
8.286817902242626
 40
8.297566044787687
 40
8.308314187332749
 40
8.319062329877811
 40
8.329810472422874
 40
8.340558614967935
 40
8.351306757512997
 40
8.362054900058058
 40
8.37280304260312
 40
8.383551185148181
 40
8.394299327693243
 40
8.405047470238306
 40
8.415795612783368
 40
8.426543755328429
 40
8.437291897873491
 40
8.448040040418552
 40
8.458788182963614
 40
8.469536325508675
 40
8.480284468053739
 40
8.4910326105988
 40
8.501780753143862
 40
8.512528895688923
 40
8.523277038233985
 40
8.534025180779046
 40
8.544773323324108
 40
8.555521465869171
 40
8.566269608414232
 40
8.577017750959294
 40
8.587765893504355
 40
8.598514036049417
 40
8.609262178594478
 40
8.62001032113954
 40
8.630758463684603
 40
8.641506606229665
 40
8.652254748774726
 40
8.663002891319788
 40
8.673751033864849
 40
8.684499176409911
 40
8.695247318954974
 40
8.705995461500036
 40
8.716743604045097
 40
8.727491746590159
 40
8.73823988913522
 40
8.748988031680282
 40
8.759736174225343
 40
8.770484316770406
 40
8.781232459315468
 40
8.791980601860529
 40
8.802728744405591
 40
8.813476886950653
 40
8.824225029495714
 40
8.834973172040776
 40
8.845721314585839
 40
8.8564694571309
 40
8.867217599675962
 40
8.877965742221023
 40
8.888713884766085
 40
8.899462027311146
 40
8.910210169856208
 40
8.920958312401271
 40
8.931706454946333
 40
8.942454597491394
 40
8.953202740036456
 40
8.963950882581517
 40
8.974699025126579
 40
8.98544716767164
 40
8.996195310216704
 40
9.006943452761765
 40
9.017691595306827
 40
9.028439737851888
 40
9.03918788039695
 40
9.049936022942011
 40
9.060684165487073
 40
9.071432308032136
 40
9.082180450577197
 40
9.092928593122259
 40
9.10367673566732
 40
9.114424878212382
 40
9.125173020757443
 40
9.135921163302507
 40
9.146669305847568
 40
9.15741744839263
 40
9.168165590937691
 40
9.178913733482753
 40
9.189661876027814
 40
9.200410018572876
 40
9.211158161117939
 40
9.221906303663001
 40
9.232654446208062
 40
9.243402588753124
 40
9.254150731298185
 40
9.264898873843247
 40
9.275647016388308
 40
9.286395158933371
 40
9.297143301478433
 40
9.307891444023494
 40
9.318639586568556
 40
9.329387729113618
 40
9.340135871658679
 40
9.350884014203741
 40
9.361632156748804
 40
9.372380299293865
 40
9.383128441838927
 40
9.393876584383988
 40
9.40462472692905
 40
9.415372869474111
 40
9.426121012019173
 40
9.436869154564236
 40
9.447617297109298
 40
9.458365439654359
 40
9.469113582199421
 40
9.479861724744482
 40
9.490609867289544
 40
9.501358009834605
 40
9.512106152379669
 40
9.52285429492473
 40
9.533602437469792
 40
9.544350580014853
 40
9.555098722559915
 40
9.565846865104976
 40
9.576595007650039
 40
9.587343150195101
 40
9.598091292740162
 40
9.608839435285224
 40
9.619587577830285
 40
9.630335720375347
 40
9.641083862920408
 40
9.651832005465472
 40
9.662580148010533
 40
9.673328290555595
 40
9.684076433100656
 40
9.694824575645718
 40
9.705572718190779
 40
9.716320860735841
 40
9.727069003280904
 40
9.737817145825966
 40
9.748565288371027
 40
9.759313430916089
 40
9.77006157346115
 40
9.780809716006212
 40
9.791557858551273
 40
9.802306001096336
 40
9.813054143641398
 40
9.82380228618646
 40
9.834550428731521
 40
9.845298571276583
 40
9.856046713821644
 40
9.866794856366706
 40
9.877542998911769
 40
9.88829114145683
 40
9.899039284001892
 40
9.909787426546953
 40
9.920535569092015
 40
9.931283711637076
 40
9.942031854182138
 40
9.952779996727201
 40
9.963528139272263
 40
9.974276281817324
 40
9.985024424362386
 40
9.995772566907447
 40
10.00652070945251
 40
10.01726885199757
 40
10.02801699454263
 40
10.03876513708769
 40
10.04951327963276
 40
10.06026142217782
 40
10.07100956472288
 40
10.08175770726794
 40
10.092505849813
 40
10.10325399235806
 40
10.11400213490313
 40
10.12475027744819
 40
10.13549841999325
 40
10.14624656253831
 40
10.15699470508337
 40
10.16774284762844
 40
10.1784909901735
 40
10.18923913271856
 40
10.19998727526362
 40
10.21073541780868
 40
10.22148356035374
 40
10.2322317028988
 40
10.24297984544387
 40
10.25372798798893
 40
10.26447613053399
 40
10.27522427307905
 40
10.28597241562411
 40
10.29672055816917
 40
10.30746870071424
 40
10.3182168432593
 40
10.32896498580436
 40
10.33971312834942
 40
10.35046127089448
 40
10.36120941343955
 40
10.37195755598461
 40
10.38270569852967
 40
10.39345384107473
 40
10.40420198361979
 40
10.41495012616485
 40
10.42569826870992
 40
10.43644641125498
 40
10.44719455380004
 40
10.4579426963451
 40
10.46869083889016
 40
10.47943898143523
 40
10.49018712398029
 40
10.50093526652535
 40
10.51168340907041
 40
10.52243155161547
 40
10.53317969416053
 40
10.5439278367056
 40
10.55467597925066
 40
10.56542412179572
 40
10.57617226434078
 40
10.58692040688584
 40
10.5976685494309
 40
10.60841669197597
 40
10.61916483452103
 40
10.62991297706609
 40
10.64066111961115
 40
10.65140926215621
 40
10.66215740470128
 40
10.67290554724634
 40
10.6836536897914
 40
10.69440183233646
 40
10.70514997488152
 40
10.71589811742658
 40
10.72664625997165
 40
10.72664625997165
 40
10.72664625997165
 40
10.72664625997165
 10
124.9733223015384
 20
-79.1227189370192
 30
0.0
 10
125.0159618268226
 20
-79.17343305720369
 30
0.0
 10
125.100565466462
 20
-79.2754988215315
 30
0.0
 10
125.2224681634307
 20
-79.42696549369287
 30
0.0
 10
125.3375334528655
 20
-79.57461403692774
 30
0.0
 10
125.44483867169
 20
-79.71733936332785
 30
0.0
 10
125.5441190657327
 20
-79.8548110565079
 30
0.0
 10
125.6354262976964
 20
-79.98706275536311
 30
0.0
 10
125.7189228261388
 20
-80.11424336598061
 30
0.0
 10
125.7947788131696
 20
-80.23649043644004
 30
0.0
 10
125.8631443748871
 20
-80.35389325656431
 30
0.0
 10
125.9241570256115
 20
-80.46649772942894
 30
0.0
 10
125.9779604830295
 20
-80.57432449259229
 30
0.0
 10
126.0247224902837
 20
-80.67738550116596
 30
0.0
 10
126.0646480417638
 20
-80.7756946870043
 30
0.0
 10
126.0979883995172
 20
-80.86927310819238
 30
0.0
 10
126.1250472803429
 20
-80.95815067561344
 30
0.0
 10
126.1461845696392
 20
-81.04236676065829
 30
0.0
 10
126.1618160151742
 20
-81.12197190367671
 30
0.0
 10
126.1724060852748
 20
-81.19703254628531
 30
0.0
 10
126.1784522657647
 20
-81.26763971209996
 30
0.0
 10
126.1804620654085
 20
-81.33392105049908
 30
0.0
 10
126.1789251201516
 20
-81.39605518237043
 30
0.0
 10
126.1742821991938
 20
-81.45428768246732
 30
0.0
 10
126.1668921913343
 20
-81.50894840819363
 30
0.0
 10
126.1569983053482
 20
-81.5604695216116
 30
0.0
 10
126.1446961583059
 20
-81.60940220953643
 30
0.0
 10
126.129908160117
 20
-81.65642862160348
 30
0.0
 10
126.1123692311952
 20
-81.70236501006161
 30
0.0
 10
126.0916281611326
 20
-81.74815262583413
 30
0.0
 10
126.0670675184095
 20
-81.79483404430474
 30
0.0
 10
126.0379401707524
 20
-81.84351643799841
 30
0.0
 10
126.0034155235825
 20
-81.89532720124164
 30
0.0
 10
125.9626290830311
 20
-81.95136685840507
 30
0.0
 10
125.9147325970663
 20
-82.01266120610759
 30
0.0
 10
125.8589445751812
 20
-82.08011272762709
 30
0.0
 10
125.7946003424672
 20
-82.15445232675472
 30
0.0
 10
125.7211980401131
 20
-82.23619535943473
 30
0.0
 10
125.6384352254401
 20
-82.32560777659223
 30
0.0
 10
125.5462317368249
 20
-82.42268710234386
 30
0.0
 10
125.4447365550821
 20
-82.52716076829935
 30
0.0
 10
125.334318569981
 20
-82.63850195722115
 30
0.0
 10
125.2155455939559
 20
-82.75595825464444
 30
0.0
 10
125.0891581491583
 20
-82.87858600310963
 30
0.0
 10
124.95604277218
 20
-83.00528518218881
 30
0.0
 10
124.8172064599092
 20
-83.13483303490082
 30
0.0
 10
124.6737520209771
 20
-83.26591669333224
 30
0.0
 10
124.5268538118667
 20
-83.39716538459354
 30
0.0
 10
124.3777337023318
 20
-83.52718241410075
 30
0.0
 10
124.227637296631
 20
-83.65457691710819
 30
0.0
 10
124.0778103355042
 20
-83.77799546170889
 30
0.0
 10
123.9294750522903
 20
-83.89615379746148
 30
0.0
 10
123.7838061771273
 20
-84.00786926696921
 30
0.0
 10
123.6419063115388
 20
-84.11209446628383
 30
0.0
 10
123.5047806608485
 20
-84.20795223714364
 30
0.0
 10
123.3733117755142
 20
-84.29477064444418
 30
0.0
 10
123.2482358812254
 20
-84.37211459133676
 30
0.0
 10
123.130123209228
 20
-84.43980898293744
 30
0.0
 10
123.0193651681155
 20
-84.49794749748988
 30
0.0
 10
122.9161710448512
 20
-84.5468813541724
 30
0.0
 10
122.8205747192893
 20
-84.58718701629676
 30
0.0
 10
122.7324483935403
 20
-84.61961896215141
 30
0.0
 10
122.6515195140515
 20
-84.64505532152704
 30
0.0
 10
122.5773883590676
 20
-84.6644415082253
 30
0.0
 10
122.509545343105
 20
-84.6787337074881
 30
0.0
 10
122.4473879401172
 20
-84.6888422792192
 30
0.0
 10
122.3902372917169
 20
-84.69557509625603
 30
0.0
 10
122.3373544408492
 20
-84.69958255234999
 30
0.0
 10
122.2879559622701
 20
-84.7013093204117
 30
0.0
 10
122.2412286307672
 20
-84.70096137530227
 30
0.0
 10
122.1963427781018
 20
-84.69849649778003
 30
0.0
 10
122.1524643325502
 20
-84.69363907261394
 30
0.0
 10
122.1087658905179
 20
-84.68591289898055
 30
0.0
 10
122.064437276298
 20
-84.67468490665241
 30
0.0
 10
122.0186960439159
 20
-84.65921410825814
 30
0.0
 10
121.970798094738
 20
-84.63870159300521
 30
0.0
 10
121.9200479177654
 20
-84.61233776634241
 30
0.0
 10
121.8658072087291
 20
-84.57934250845365
 30
0.0
 10
121.8075004774356
 20
-84.53899420438295
 30
0.0
 10
121.7446171069976
 20
-84.49064634167482
 30
0.0
 10
121.6767102679843
 20
-84.43373311039293
 30
0.0
 10
121.6033935944637
 20
-84.3677668528363
 30
0.0
 10
121.5243370899314
 20
-84.29233205941994
 30
0.0
 10
121.4392639197489
 20
-84.20708142399309
 30
0.0
 10
121.3479493091504
 20
-84.11173857683818
 30
0.0
 10
121.25022163075
 20
-84.00610956649158
 30
0.0
 10
121.1459636506674
 20
-83.89010011914168
 30
0.0
 10
121.035108238264
 20
-83.76372568790674
 30
0.0
 10
120.9176176905255
 20
-83.62708455037964
 30
0.0
 10
120.7934310871482
 20
-83.48024334590768
 30
0.0
 10
120.6623659211729
 20
-83.32297396180415
 30
0.0
 10
120.5239779715459
 20
-83.15430730146131
 30
0.0
 10
120.3774359783402
 20
-82.97199308247044
 30
0.0
 10
120.2215508492642
 20
-82.77219140070769
 30
0.0
 10
120.0552561094294
 20
-82.55022172513132
 30
0.0
 10
119.8788290389111
 20
-82.30340923268839
 30
0.0
 10
119.696423652294
 20
-82.03814132383971
 30
0.0
 10
119.5121641750529
 20
-81.76183316580951
 30
0.0
 10
119.3288130523295
 20
-81.47980208264131
 30
0.0
 10
119.1477476673064
 20
-81.19484702600473
 30
0.0
 10
118.9694286428703
 20
-80.90797493003021
 30
0.0
 10
118.7938662936451
 20
-80.61924789827983
 30
0.0
 10
118.6209322707682
 20
-80.32839281754325
 30
0.0
 10
118.450512280526
 20
-80.03512210523666
 30
0.0
 10
118.2825533877227
 20
-79.73924841306322
 30
0.0
 10
118.1170593460375
 20
-79.44069023805744
 30
0.0
 10
117.9540698149037
 20
-79.13943853588404
 30
0.0
 10
117.7936410850561
 20
-78.83552130670577
 30
0.0
 10
117.6358338155363
 20
-78.52897945210509
 30
0.0
 10
117.4807072866221
 20
-78.21985462141611
 30
0.0
 10
117.3283178008637
 20
-77.90818524612759
 30
0.0
 10
117.1787190249378
 20
-77.59400670237265
 30
0.0
 10
117.0319628651983
 20
-77.27735282472202
 30
0.0
 10
116.8881002173195
 20
-76.95825736880184
 30
0.0
 10
116.7471814077713
 20
-76.63675496190818
 30
0.0
 10
116.6092563690023
 20
-76.31288155709524
 30
0.0
 10
116.4743746524324
 20
-75.98667456323378
 30
0.0
 10
116.3425853694246
 20
-75.65817281878185
 30
0.0
 10
116.213937115233
 20
-75.32741651875681
 30
0.0
 10
116.0884779003918
 20
-74.99444714758837
 30
0.0
 10
115.9662550953661
 20
-74.65930743339197
 30
0.0
 10
115.8473153859862
 20
-74.32204132130106
 30
0.0
 10
115.7317047352113
 20
-73.98269395819456
 30
0.0
 10
115.6194683476156
 20
-73.64131168193333
 30
0.0
 10
115.5106506345146
 20
-73.29794201080829
 30
0.0
 10
115.4052951788852
 20
-72.95263363123442
 30
0.0
 10
115.3034446999604
 20
-72.60543638318271
 30
0.0
 10
115.2051410176806
 20
-72.25640124350988
 30
0.0
 10
115.1104250172464
 20
-71.90558030752244
 30
0.0
 10
115.0193366139679
 20
-71.55302676905812
 30
0.0
 10
114.9319147185467
 20
-71.19879489925842
 30
0.0
 10
114.8481972028722
 20
-70.84294002411337
 30
0.0
 10
114.7682208663895
 20
-70.48551850080473
 30
0.0
 10
114.692021403081
 20
-70.12658769285185
 30
0.0
 10
114.6196333691075
 20
-69.76620594406184
 30
0.0
 10
114.5510901511506
 20
-69.40443255128996
 30
0.0
 10
114.4864239355051
 20
-69.04132773602502
 30
0.0
 10
114.4256656779698
 20
-68.67695261481912
 30
0.0
 10
114.3688450745836
 20
-68.31136916858636
 30
0.0
 10
114.3159905332576
 20
-67.94464021079841
 30
0.0
 10
114.2671291463488
 20
-67.57682935460692
 30
0.0
 10
114.2222866642215
 20
-67.20800097892494
 30
0.0
 10
114.1814874698424
 20
-66.83822019350166
 30
0.0
 10
114.1447545544527
 20
-66.46755280302674
 30
0.0
 10
114.1121094943575
 20
-66.09606527030225
 30
0.0
 10
114.0835724288757
 20
-65.72382467852268
 30
0.0
 10
114.0591620394868
 20
-65.35089869270473
 30
0.0
 10
114.0388955302132
 20
-64.97735552031153
 30
0.0
 10
114.0227886092721
 20
-64.60326387111686
 30
0.0
 10
114.0108554720321
 20
-64.22869291635713
 30
0.0
 10
114.0031087853036
 20
-63.85371224722012
 30
0.0
 10
113.9995596729941
 20
-63.47839183272181
 30
0.0
 10
114.0002177031538
 20
-63.10280197702301
 30
0.0
 10
114.0050908764371
 20
-62.72701327623937
 30
0.0
 10
114.0141856160022
 20
-62.35109657480009
 30
0.0
 10
114.0275067588681
 20
-61.97512292141071
 30
0.0
 10
114.0450575487481
 20
-61.59916352467674
 30
0.0
 10
114.0668396303716
 20
-61.22328970844637
 30
0.0
 10
114.0928530453098
 20
-60.84757286692997
 30
0.0
 10
114.123096229313
 20
-60.47208441965599
 30
0.0
 10
114.1575660111666
 20
-60.09689576632221
 30
0.0
 10
114.1962576130713
 20
-59.72207824160285
 30
0.0
 10
114.2391646525479
 20
-59.34770306997069
 30
0.0
 10
114.2862791458667
 20
-58.97384132059471
 30
0.0
 10
114.3375915129961
 20
-58.60056386237313
 30
0.0
 10
114.3930905840667
 20
-58.22794131916163
 30
0.0
 10
114.4527636073384
 20
-57.85604402525614
 30
0.0
 10
114.5165962586623
 20
-57.48494198118883
 30
0.0
 10
114.5845726524198
 20
-57.114704809896
 30
0.0
 10
114.6566753539238
 20
-56.74540171331507
 30
0.0
 10
114.7328853932618
 20
-56.37710142946732
 30
0.0
 10
114.8131822805591
 20
-56.00987219008221
 30
0.0
 10
114.897544022638
 20
-55.64378167881763
 30
0.0
 10
114.9859471410447
 20
-55.2788969901293
 30
0.0
 10
115.0783666914165
 20
-54.91528458884118
 30
0.0
 10
115.1747762841569
 20
-54.55301027046753
 30
0.0
 10
115.2751481063853
 20
-54.1921391223348
 30
0.0
 10
115.379452945126
 20
-53.83273548555136
 30
0.0
 10
115.4876602116984
 20
-53.47486291786971
 30
0.0
 10
115.59973796727
 20
-53.118584157485
 30
0.0
 10
115.7156529495296
 20
-52.76396108781115
 30
0.0
 10
115.8353706004398
 20
-52.41105470327438
 30
0.0
 10
115.9588550950224
 20
-52.05992507616103
 30
0.0
 10
116.0860693711327
 20
-51.71063132455558
 30
0.0
 10
116.2169751601748
 20
-51.36323158140132
 30
0.0
 10
116.3515330187097
 20
-51.01778296471462
 30
0.0
 10
116.4897023609073
 20
-50.67434154898124
 30
0.0
 10
116.6314414917913
 20
-50.33296233776069
 30
0.0
 10
116.776707641227
 20
-49.99369923752234
 30
0.0
 10
116.9254569985989
 20
-49.65660503273447
 30
0.0
 10
117.0776447481274
 20
-49.32173136222529
 30
0.0
 10
117.2332251047701
 20
-48.98912869683217
 30
0.0
 10
117.3921513506565
 20
-48.65884631835299
 30
0.0
 10
117.5543758720009
 20
-48.33093229981137
 30
0.0
 10
117.7198501964413
 20
-48.00543348704495
 30
0.0
 10
117.888525030751
 20
-47.68239548162345
 30
0.0
 10
118.0603502988669
 20
-47.36186262510186
 30
0.0
 10
118.2352751801841
 20
-47.04387798461114
 30
0.0
 10
118.41324814806
 20
-46.72848333978714
 30
0.0
 10
118.5942170084779
 20
-46.41571917103514
 30
0.0
 10
118.7781289388191
 20
-46.10562464912331
 30
0.0
 10
118.9649305267016
 20
-45.79823762609189
 30
0.0
 10
119.1545678088484
 20
-45.49359462745694
 30
0.0
 10
119.346986309959
 20
-45.19173084567984
 30
0.0
 10
119.5421310815567
 20
-44.89268013487323
 30
0.0
 10
119.7399467407651
 20
-44.59647500673196
 30
0.0
 10
119.9403775089019
 20
-44.30314662773226
 30
0.0
 10
120.1433672496576
 20
-44.01272481774383
 30
0.0
 10
120.3488595064472
 20
-43.72523805034231
 30
0.0
 10
120.5567975383689
 20
-43.44071345522543
 30
0.0
 10
120.7671243542604
 20
-43.15917682305816
 30
0.0
 10
120.9797827449722
 20
-42.88065261250141
 30
0.0
 10
121.1947153156693
 20
-42.60516395772358
 30
0.0
 10
121.4118645230956
 20
-42.33273267208634
 30
0.0
 10
121.6311727269835
 20
-42.06337924028324
 30
0.0
 10
121.852582268112
 20
-41.79712278881891
 30
0.0
 10
122.0760355828554
 20
-41.53398102769163
 30
0.0
 10
122.3014753464467
 20
-41.27397017192173
 30
0.0
 10
122.5288445931418
 20
-41.01710488929718
 30
0.0
 10
122.7580866835084
 20
-40.76339838548233
 30
0.0
 10
122.9891448887696
 20
-40.51286281760869
 30
0.0
 10
123.2219612956948
 20
-40.26551027280216
 30
0.0
 10
123.4564748343134
 20
-40.02135444681713
 30
0.0
 10
123.6926187166715
 20
-39.78041272660734
 30
0.0
 10
123.9303187157341
 20
-39.54270740788378
 30
0.0
 10
124.1694956466171
 20
-39.30826318043776
 30
0.0
 10
124.4100777545954
 20
-39.07709616371278
 30
0.0
 10
124.6520299388484
 20
-38.84918901790262
 30
0.0
 10
124.8954034624043
 20
-38.62444986081669
 30
0.0
 10
125.140396577329
 20
-38.40266437184528
 30
0.0
 10
125.387387093784
 20
-38.18347539529352
 30
0.0
 10
125.6368504768101
 20
-37.96646345695116
 30
0.0
 10
125.8891427843833
 20
-37.75133830529379
 30
0.0
 10
126.1444564647764
 20
-37.53796970197611
 30
0.0
 10
126.4028593681353
 20
-37.32634465298622
 30
0.0
 10
126.6643499250345
 20
-37.11651310709401
 30
0.0
 10
126.9288989055429
 20
-36.90854831490714
 30
0.0
 10
127.1964725918964
 20
-36.70252547557861
 30
0.0
 10
127.4670417672815
 20
-36.49851383469687
 30
0.0
 10
127.7405828421277
 20
-36.29657601457023
 30
0.0
 10
128.0170759159948
 20
-36.09677002564496
 30
0.0
 10
128.2965024471378
 20
-35.89915150078268
 30
0.0
 10
128.5788435718417
 20
-35.70377524035612
 30
0.0
 10
128.8640792097087
 20
-35.51069598972617
 30
0.0
 10
129.1521877362
 20
-35.31996868140011
 30
0.0
 10
129.4431459567954
 20
-35.13164840151987
 30
0.0
 10
129.7369291907946
 20
-34.94579026202503
 30
0.0
 10
130.0335113627104
 20
-34.76244927194592
 30
0.0
 10
130.3328650642877
 20
-34.58168023980778
 30
0.0
 10
130.6349615848447
 20
-34.40353770740121
 30
0.0
 10
130.9397709202249
 20
-34.22807590429414
 30
0.0
 10
131.2472617714725
 20
-34.05534871235369
 30
0.0
 10
131.5574015408797
 20
-33.88540963314651
 30
0.0
 10
131.8701563293025
 20
-33.71831175473332
 30
0.0
 10
132.1854909360503
 20
-33.55410771680693
 30
0.0
 10
132.5033688613419
 20
-33.39284967432084
 30
0.0
 10
132.823752310878
 20
-33.23458926012911
 30
0.0
 10
133.146602202088
 20
-33.07937754712507
 30
0.0
 10
133.471878171765
 20
-32.92726501020675
 30
0.0
 10
133.7995385849557
 20
-32.77830148824734
 30
0.0
 10
134.1295405450725
 20
-32.63253614615471
 30
0.0
 10
134.4618399052428
 20
-32.49001743706035
 30
0.0
 10
134.7963912809228
 20
-32.3507930646662
 30
0.0
 10
135.1331480637991
 20
-32.21490994578144
 30
0.0
 10
135.4720624369926
 20
-32.08241417308929
 30
0.0
 10
135.8130853915713
 20
-31.95335097819037
 30
0.0
 10
136.1561667443696
 20
-31.82776469497298
 30
0.0
 10
136.501255157111
 20
-31.70569872336321
 30
0.0
 10
136.8482981568271
 20
-31.58719549350781
 30
0.0
 10
137.1972421575615
 20
-31.47229643044319
 30
0.0
 10
137.5480324833485
 20
-31.361041919303
 30
0.0
 10
137.9006133924531
 20
-31.25347127111667
 30
0.0
 10
138.2549281028537
 20
-31.14962268925114
 30
0.0
 10
138.6109188189532
 20
-31.04953323654679
 30
0.0
 10
138.9685267594942
 20
-30.95323880319878
 30
0.0
 10
139.3276921866565
 20
-30.86077407543398
 30
0.0
 10
139.6883544363131
 20
-30.77217250503316
 30
0.0
 10
140.0504519494131
 20
-30.68746627974693
 30
0.0
 10
140.4139223044662
 20
-30.60668629465332
 30
0.0
 10
140.7787022510917
 20
-30.52986212450335
 30
0.0
 10
141.1447277446017
 20
-30.45702199710014
 30
0.0
 10
141.5119339815782
 20
-30.38819276775523
 30
0.0
 10
141.8802554364074
 20
-30.32339989486476
 30
0.0
 10
142.2496258987299
 20
-30.2626674166464
 30
0.0
 10
142.6199785117642
 20
-30.2060179290762
 30
0.0
 10
142.9912458114569
 20
-30.15347256506264
 30
0.0
 10
143.3633597664165
 20
-30.10505097489356
 30
0.0
 10
143.7362518185799
 20
-30.06077130798939
 30
0.0
 10
144.1098529245616
 20
-30.02065019599391
 30
0.0
 10
144.4840935976373
 20
-29.98470273723216
 30
0.0
 10
144.8589039503047
 20
-29.9529424825621
 30
0.0
 10
145.2342137373715
 20
-29.92538142264484
 30
0.0
 10
145.6099523995133
 20
-29.90202997665575
 30
0.0
 10
145.9860491072448
 20
-29.88289698245599
 30
0.0
 10
146.3624328052483
 20
-29.8679896882421
 30
0.0
 10
146.7390322570013
 20
-29.85731374568798
 30
0.0
 10
147.1157760896435
 20
-29.85087320459167
 30
0.0
 10
147.4925928390251
 20
-29.8486705090362
 30
0.0
 10
147.8694109948761
 20
-29.85070649507133
 30
0.0
 10
148.2461590460367
 20
-29.85698038992028
 30
0.0
 10
148.6227655256892
 20
-29.86748981271297
 30
0.0
 10
148.9991590565306
 20
-29.88223077674437
 30
0.0
 10
149.375268395827
 20
-29.90119769325387
 30
0.0
 10
149.7510224802889
 20
-29.92438337671924
 30
0.0
 10
150.1263504707089
 20
-29.95177905165557
 30
0.0
 10
150.5011817963032
 20
-29.98337436090729
 30
0.0
 10
150.8754461986985
 20
-30.01915737541883
 30
0.0
 10
151.2490737755067
 20
-30.05911460546637
 30
0.0
 10
151.6219950234324
 20
-30.1032310133314
 30
0.0
 10
151.9941408808559
 20
-30.15149002739362
 30
0.0
 10
152.3654427698398
 20
-30.20387355761886
 30
0.0
 10
152.7358326375048
 20
-30.26036201241497
 30
0.0
 10
153.1052429967239
 20
-30.32093431682654
 30
0.0
 10
153.4736069660854
 20
-30.38556793203732
 30
0.0
 10
153.8408583090753
 20
-30.45423887614667
 30
0.0
 10
154.2069314724345
 20
-30.52692174618482
 30
0.0
 10
154.5717616236433
 20
-30.6035897413294
 30
0.0
 10
154.9352846874927
 20
-30.68421468728443
 30
0.0
 10
155.297437381701
 20
-30.76876706178069
 30
0.0
 10
155.6581572515353
 20
-30.85721602115507
 30
0.0
 10
156.0173827034029
 20
-30.94952942796526
 30
0.0
 10
156.3750530373774
 20
-31.04567387959409
 30
0.0
 10
156.7311084786263
 20
-31.14561473779752
 30
0.0
 10
157.0854902077114
 20
-31.24931615914817
 30
0.0
 10
157.4381403897327
 20
-31.35674112632614
 30
0.0
 10
157.7890022022905
 20
-31.46785148020724
 30
0.0
 10
158.1380198622438
 20
-31.58260795269868
 30
0.0
 10
158.4851386512423
 20
-31.70097020027114
 30
0.0
 10
158.8303049400153
 20
-31.82289683813583
 30
0.0
 10
159.1734662114
 20
-31.94834547501458
 30
0.0
 10
159.5145710820963
 20
-32.07727274845076
 30
0.0
 10
159.8535693231362
 20
-32.20963436060829
 30
0.0
 10
160.1904118790578
 20
-32.34538511450546
 30
0.0
 10
160.5250508857762
 20
-32.48447895063069
 30
0.0
 10
160.8574396871472
 20
-32.62686898388736
 30
0.0
 10
161.1875328502226
 20
-32.772507540817
 30
0.0
 10
161.5152861792035
 20
-32.9213461970542
 30
0.0
 10
161.8406567281036
 20
-33.07333581497302
 30
0.0
 10
162.1636028121482
 20
-33.22842658149243
 30
0.0
 10
162.4840840179343
 20
-33.38656804601228
 30
0.0
 10
162.8020612123691
 20
-33.54770915844055
 30
0.0
 10
163.117496550356
 20
-33.71179830723054
 30
0.0
 10
163.4303534811004
 20
-33.87878335725427
 30
0.0
 10
163.7405967527563
 20
-34.04861168719068
 30
0.0
 10
164.0481924149737
 20
-34.2212302259462
 30
0.0
 10
164.3531078188942
 20
-34.39658548758216
 30
0.0
 10
164.6553116145514
 20
-34.57462360457414
 30
0.0
 10
164.9547737469121
 20
-34.75529036038574
 30
0.0
 10
165.2514654543241
 20
-34.9385312247202
 30
0.0
 10
165.5453592768681
 20
-35.12429139842844
 30
0.0
 10
165.8364290856421
 20
-35.31251587870718
 30
0.0
 10
166.1246501434756
 20
-35.5031495553743
 30
0.0
 10
166.4099991956248
 20
-35.69613733872975
 30
0.0
 10
166.6924545553937
 20
-35.89142428879423
 30
0.0
 10
166.9719960857413
 20
-36.08895565545038
 30
0.0
 10
167.2486048884527
 20
-36.28867665170842
 30
0.0
 10
167.5222624365652
 20
-36.49053170220707
 30
0.0
 10
167.7929489248414
 20
-36.69446292935107
 30
0.0
 10
168.0606409513915
 20
-36.90040793477245
 30
0.0
 10
168.325309523661
 20
-37.1082977425604
 30
0.0
 10
168.5869209848639
 20
-37.31805728934661
 30
0.0
 10
168.8454455780161
 20
-37.52961293031543
 30
0.0
 10
169.1008799559044
 20
-37.74291315457345
 30
0.0
 10
169.3532882313972
 20
-37.95796750684019
 30
0.0
 10
169.6028570290704
 20
-38.17490065624635
 30
0.0
 10
169.8499361543981
 20
-38.39399654929798
 30
0.0
 10
170.094999812081
 20
-38.61567252095512
 30
0.0
 10
170.3384323173997
 20
-38.84029066776428
 30
0.0
 10
170.5804387525833
 20
-39.06807089551933
 30
0.0
 10
170.8210750578926
 20
-39.29910905451401
 30
0.0
 10
171.060308490049
 20
-39.5334245677136
 30
0.0
 10
171.2980680726232
 20
-39.77100207210763
 30
0.0
 10
171.5342746004942
 20
-40.0118169420662
 30
0.0
 10
171.7688535642556
 20
-40.25584670492261
 30
0.0
 10
172.0017379018969
 20
-40.50307379059815
 30
0.0
 10
172.2328663667343
 20
-40.75348439644744
 30
0.0
 10
172.4621809631913
 20
-41.00706640717331
 30
0.0
 10
172.6896249412334
 20
-41.26380769064313
 30
0.0
 10
172.9151416688705
 20
-41.52369509286535
 30
0.0
 10
173.1386741953453
 20
-41.78671400651596
 30
0.0
 10
173.3601652082245
 20
-42.05284827690529
 30
0.0
 10
173.5795571505336
 20
-42.32208025135946
 30
0.0
 10
173.7967923644474
 20
-42.59439085783735
 30
0.0
 10
174.0118132072907
 20
-42.86975966435871
 30
0.0
 10
174.2245621309025
 20
-43.14816490957584
 30
0.0
 10
174.4349817338518
 20
-43.42958351129606
 30
0.0
 10
174.6430147990625
 20
-43.71399106308672
 30
0.0
 10
174.8486043261951
 20
-44.00136182681471
 30
0.0
 10
175.0516935638726
 20
-44.29166872555486
 30
0.0
 10
175.2522260436579
 20
-44.5848833386484
 30
0.0
 10
175.4501456159453
 20
-44.88097589919563
 30
0.0
 10
175.6453964872691
 20
-45.17991529366842
 30
0.0
 10
175.8379232584578
 20
-45.48166906323745
 30
0.0
 10
176.0276709632174
 20
-45.78620340652105
 30
0.0
 10
176.2145851069029
 20
-46.09348318360552
 30
0.0
 10
176.3986117053642
 20
-46.403471921291
 30
0.0
 10
176.5796973238172
 20
-46.71613181957288
 30
0.0
 10
176.7577891157128
 20
-47.03142375938771
 30
0.0
 10
176.9328348615772
 20
-47.34930731165259
 30
0.0
 10
177.1047830077873
 20
-47.6697407476197
 30
0.0
 10
177.2735827052399
 20
-47.9926810505593
 30
0.0
 10
177.4391838478632
 20
-48.31808392877831
 30
0.0
 10
177.6015371109193
 20
-48.64590382997678
 30
0.0
 10
177.7605939890457
 20
-48.97609395694239
 30
0.0
 10
177.9163068339794
 20
-49.30860628457971
 30
0.0
 10
178.0686288919114
 20
-49.64339157826987
 30
0.0
 10
178.217514340418
 20
-49.98039941355343
 30
0.0
 10
178.3629183249149
 20
-50.31957819712754
 30
0.0
 10
178.5047969945805
 20
-50.66087518914571
 30
0.0
 10
178.6431075376966
 20
-51.0042365268065
 30
0.0
 10
178.7778082163523
 20
-51.34960724921471
 30
0.0
 10
178.9088584004597
 20
-51.69693132349644
 30
0.0
 10
179.0362186010292
 20
-52.04615167214662
 30
0.0
 10
179.1598505026535
 20
-52.39721020158575
 30
0.0
 10
179.2797169951496
 20
-52.7500478318996
 30
0.0
 10
179.3957822043106
 20
-53.10460452773372
 30
0.0
 10
179.5080115217177
 20
-53.46081933031205
 30
0.0
 10
179.6163716335652
 20
-53.81863039054667
 30
0.0
 10
179.7208305484548
 20
-54.17797500320356
 30
0.0
 10
179.8213576241118
 20
-54.53878964208715
 30
0.0
 10
179.9179235929831
 20
-54.90100999620423
 30
0.0
 10
180.010500586674
 20
-55.26457100686554
 30
0.0
 10
180.0990621591845
 20
-55.6294069056821
 30
0.0
 10
180.1835833089094
 20
-55.99545125341049
 30
0.0
 10
180.2640404993636
 20
-56.3626369796005
 30
0.0
 10
180.3404116786013
 20
-56.73089642299592
 30
0.0
 10
180.4126762972966
 20
-57.10016137263866
 30
0.0
 10
180.4808153254568
 20
-57.47036310962393
 30
0.0
 10
180.5448112677408
 20
-57.84143244945354
 30
0.0
 10
180.6046481773583
 20
-58.21329978493285
 30
0.0
 10
180.6603116685289
 20
-58.58589512955568
 30
0.0
 10
180.7117889274786
 20
-58.95914816132081
 30
0.0
 10
180.7590687219597
 20
-59.33298826692222
 30
0.0
 10
180.8021414092777
 20
-59.70734458625523
 30
0.0
 10
180.8409989428138
 20
-60.08214605717947
 30
0.0
 10
180.8756348770342
 20
-60.45732146047917
 30
0.0
 10
180.9060443709789
 20
-60.83279946496134
 30
0.0
 10
180.9322241902263
 20
-61.20850867263166
 30
0.0
 10
180.9541727073334
 20
-61.58437766388827
 30
0.0
 10
180.9718899007522
 20
-61.96033504267313
 30
0.0
 10
180.9853773522261
 20
-62.33630948152143
 30
0.0
 10
180.9946382426747
 20
-62.71222976644961
 30
0.0
 10
180.9996773465757
 20
-63.08802484162264
 30
0.0
 10
181.000501024855
 20
-63.46362385374238
 30
0.0
 10
180.9971172163029
 20
-63.83895619609923
 30
0.0
 10
180.9895354275295
 20
-64.21395155223028
 30
0.0
 10
180.9777667214834
 20
-64.58853993912786
 30
0.0
 10
180.9618237045518
 20
-64.96265174994379
 30
0.0
 10
180.9417205122705
 20
-65.33621779613591
 30
0.0
 10
180.9174727936672
 20
-65.70916934900402
 30
0.0
 10
180.8890976942697
 20
-66.08143818056517
 30
0.0
 10
180.8566138378089
 20
-66.45295660371826
 30
0.0
 10
180.8200413066503
 20
-66.82365751165072
 30
0.0
 10
180.7794016209888
 20
-67.19347441644098
 30
0.0
 10
180.7347177168446
 20
-67.56234148681286
 30
0.0
 10
180.686013922898
 20
-67.93019358499957
 30
0.0
 10
180.6333159362042
 20
-68.29696630267671
 30
0.0
 10
180.5766507968298
 20
-68.66259599592638
 30
0.0
 10
180.5160468614549
 20
-69.02701981919605
 30
0.0
 10
180.4515337759841
 20
-69.39017575821775
 30
0.0
 10
180.3831424472146
 20
-69.75200266185517
 30
0.0
 10
180.3109050136072
 20
-70.11244027284901
 30
0.0
 10
180.234854815209
 20
-70.47142925743215
 30
0.0
 10
180.1550263627762
 20
-70.82891123379017
 30
0.0
 10
180.0714553061459
 20
-71.18482879934711
 30
0.0
 10
179.984178401903
 20
-71.53912555686237
 30
0.0
 10
179.8932334803879
 20
-71.89174613933136
 30
0.0
 10
179.7986594120874
 20
-72.24263623368961
 30
0.0
 10
179.7004960734519
 20
-72.59174260331613
 30
0.0
 10
179.5987843121962
 20
-72.93901310931167
 30
0.0
 10
179.4935659121622
 20
-73.28439673047438
 30
0.0
 10
179.3848835578781
 20
-73.62784358180402
 30
0.0
 10
179.2727807990074
 20
-73.96930493125251
 30
0.0
 10
179.1573020149331
 20
-74.3087332143799
 30
0.0
 10
179.0384923796711
 20
-74.64608204673144
 30
0.0
 10
178.9163978270149
 20
-74.98130623439116
 30
0.0
 10
178.7910650151114
 20
-75.31436178459131
 30
0.0
 10
178.6625412884369
 20
-75.64520592057556
 30
0.0
 10
178.5308746336066
 20
-75.97379710756404
 30
0.0
 10
178.3961136245059
 20
-76.30009509766101
 30
0.0
 10
178.2583073539992
 20
-76.62406099670288
 30
0.0
 10
178.1175053574062
 20
-76.94565733885757
 30
0.0
 10
177.9737575511503
 20
-77.26484811840878
 30
0.0
 10
177.8271142402854
 20
-77.58159867148752
 30
0.0
 10
177.6776262844053
 20
-77.89587524044181
 30
0.0
 10
177.5253455278499
 20
-78.20764404300795
 30
0.0
 10
177.3703255433807
 20
-78.51686981381405
 30
0.0
 10
177.2126225232348
 20
-78.82351424468016
 30
0.0
 10
177.0522956841356
 20
-79.1275356749028
 30
0.0
 10
176.8894058087867
 20
-79.42889275811506
 30
0.0
 10
176.7240097269431
 20
-79.72755616860656
 30
0.0
 10
176.5561483119553
 20
-80.02353230393181
 30
0.0
 10
176.3858273004638
 20
-80.31689871614286
 30
0.0
 10
176.212996025662
 20
-80.60783883925013
 30
0.0
 10
176.0375410434398
 20
-80.89664028529924
 30
0.0
 10
175.8593298498359
 20
-81.18358767843885
 30
0.0
 10
175.6783580006719
 20
-81.46865273933798
 30
0.0
 10
175.4950549415801
 20
-81.75089407921838
 30
0.0
 10
175.310749282873
 20
-82.02760713479811
 30
0.0
 10
175.128152372182
 20
-82.29355759100778
 30
0.0
 10
174.9513777863797
 20
-82.54130591305676
 30
0.0
 10
174.7847096103362
 20
-82.7641209307591
 30
0.0
 10
174.6284757848358
 20
-82.96459783542443
 30
0.0
 10
174.4816195323255
 20
-83.14744536605834
 30
0.0
 10
174.3429434506986
 20
-83.31656131983347
 30
0.0
 10
174.2116051037437
 20
-83.47424343178287
 30
0.0
 10
174.087152057366
 20
-83.62148860369288
 30
0.0
 10
173.969397698322
 20
-83.75853623657516
 30
0.0
 10
173.8582801345224
 20
-83.88532112285981
 30
0.0
 10
173.7537625013904
 20
-84.00174205811264
 30
0.0
 10
173.6557793092066
 20
-84.10777958046962
 30
0.0
 10
173.5642152114615
 20
-84.20352427730588
 30
0.0
 10
173.4789004995418
 20
-84.28916703099737
 30
0.0
 10
173.3996123257804
 20
-84.3649815673187
 30
0.0
 10
173.3260758471991
 20
-84.43131265949038
 30
0.0
 10
173.2579631918486
 20
-84.4885731316129
 30
0.0
 10
173.1948902921382
 20
-84.53724767544636
 30
0.0
 10
173.1364127800103
 20
-84.57789891439521
 30
0.0
 10
173.0820225947178
 20
-84.61117020705795
 30
0.0
 10
173.0311467864856
 20
-84.63778043684978
 30
0.0
 10
172.9831494411367
 20
-84.65850788303393
 30
0.0
 10
172.9373371510579
 20
-84.67416167673968
 30
0.0
 10
172.8929675407968
 20
-84.68554201033986
 30
0.0
 10
172.8492594713904
 20
-84.69339308960712
 30
0.0
 10
172.8054036582164
 20
-84.69835317381813
 30
0.0
 10
172.7605731773056
 20
-84.70090551035509
 30
0.0
 10
172.7139340148314
 20
-84.70133431659771
 30
0.0
 10
172.6646561095864
 20
-84.69969141339969
 30
0.0
 10
172.6119253465671
 20
-84.6957805787569
 30
0.0
 10
172.5549568590001
 20
-84.68916603699893
 30
0.0
 10
172.4930096505474
 20
-84.67920464362107
 30
0.0
 10
172.4254021953586
 20
-84.66509370334884
 30
0.0
 10
172.3515286533693
 20
-84.64592581874269
 30
0.0
 10
172.2708754660408
 20
-84.62074553610685
 30
0.0
 10
172.1830382663108
 20
-84.58860595076446
 30
0.0
 10
172.0877391670586
 20
-84.54862521817336
 30
0.0
 10
171.9848443471257
 20
-84.50004294486475
 30
0.0
 10
171.8743810356069
 20
-84.44227470370211
 30
0.0
 10
171.7565514348541
 20
-84.37495968220739
 30
0.0
 10
171.6317397835275
 20
-84.29799371535889
 30
0.0
 10
171.5005094671297
 20
-84.21154137757291
 30
0.0
 10
171.363590518743
 20
-84.11602790240744
 30
0.0
 10
171.2218601632337
 20
-84.01211646980241
 30
0.0
 10
171.0763192548076
 20
-83.9006768184268
 30
0.0
 10
170.9280670447826
 20
-83.7827503240077
 30
0.0
 10
170.7782758963217
 20
-83.65951496976647
 30
0.0
 10
170.6281666310931
 20
-83.53225162910325
 30
0.0
 10
170.4789845132044
 20
-83.40231161509525
 30
0.0
 10
170.3319755975282
 20
-83.271084916963
 30
0.0
 10
170.1883631349027
 20
-83.13996859835079
 30
0.0
 10
170.0493238030906
 20
-83.01033505449584
 30
0.0
 10
169.9159636816659
 20
-82.88350003764497
 30
0.0
 10
169.7892939978681
 20
-82.7606904612041
 30
0.0
 10
169.6702065010482
 20
-82.64301179958986
 30
0.0
 10
169.5594479548108
 20
-82.53141451280701
 30
0.0
 10
169.4575934740352
 20
-82.42665920182231
 30
0.0
 10
169.3650202237227
 20
-82.32928215801734
 30
0.0
 10
169.2818861056418
 20
-82.23956635487677
 30
0.0
 10
169.2081199505045
 20
-82.15752497881805
 30
0.0
 10
169.1434277257039
 20
-82.08290238470775
 30
0.0
 10
169.087314803695
 20
-82.01519247203862
 30
0.0
 10
169.0391220878903
 20
-81.95367203114857
 30
0.0
 10
168.9980717478867
 20
-81.89744442742616
 30
0.0
 10
168.9633172000792
 20
-81.84548779274086
 30
0.0
 10
168.9339936399399
 20
-81.7967036347151
 30
0.0
 10
168.9092681956147
 20
-81.74996472005021
 30
0.0
 10
168.8883895404137
 20
-81.70416221119204
 30
0.0
 10
168.870734364949
 20
-81.65825022359676
 30
0.0
 10
168.8558444245526
 20
-81.61128296332087
 30
0.0
 10
168.8434471849619
 20
-81.56243897709783
 30
0.0
 10
168.8334578704508
 20
-81.51103080200059
 30
0.0
 10
168.8259657153813
 20
-81.45650226288093
 30
0.0
 10
168.8212086892637
 20
-81.39841684386279
 30
0.0
 10
168.8195417203259
 20
-81.336441145906
 30
0.0
 10
168.8214028848864
 20
-81.270326942437
 30
0.0
 10
168.8272803264536
 20
-81.19989384078905
 30
0.0
 10
168.8376812080689
 20
-81.12501312689154
 30
0.0
 10
168.8531038157068
 20
-81.0455929020024
 30
0.0
 10
168.8740146391647
 20
-80.96156495958833
 30
0.0
 10
168.9008328239485
 20
-80.87287440205427
 30
0.0
 10
168.9339232098299
 20
-80.77947303872708
 30
0.0
 10
168.97359587579
 20
-80.6813170764093
 30
0.0
 10
169.0201084515414
 20
-80.5783700472657
 30
0.0
 10
169.0736682352201
 20
-80.47061309998403
 30
0.0
 10
169.1344331433566
 20
-80.358064769187
 30
0.0
 10
169.2025130595264
 20
-80.2408084025709
 30
0.0
 10
169.2779764002519
 20
-80.1190145267703
 30
0.0
 10
169.3608705459278
 20
-79.99292577803831
 30
0.0
 10
169.4512675075857
 20
-79.86274611449823
 30
0.0
 10
169.5493426829846
 20
-79.72835878593176
 30
0.0
 10
169.6554775349559
 20
-79.58881828976112
 30
0.0
 10
169.7703324862771
 20
-79.44168852766374
 30
0.0
 10
169.8947714413221
 20
-79.28256074326269
 30
0.0
 10
170.0294040403712
 20
-79.10565680725465
 30
0.0
 10
170.173549032921
 20
-78.90674677022005
 30
0.0
 10
170.3232386009871
 20
-78.6908944483513
 30
0.0
 10
170.4746829503376
 20
-78.46472409838321
 30
0.0
 10
170.6253978845889
 20
-78.23320937498896
 30
0.0
 10
170.7741735485238
 20
-77.99907291475969
 30
0.0
 10
170.9206260714324
 20
-77.76336100677747
 30
0.0
 10
171.0647682154841
 20
-77.52620001207731
 30
0.0
 10
171.2067285854351
 20
-77.28736657140075
 30
0.0
 10
171.3466170898829
 20
-77.04659975358855
 30
0.0
 10
171.4844853991365
 20
-76.80372055396033
 30
0.0
 10
171.6203331938393
 20
-76.55864524414042
 30
0.0
 10
171.754127889444
 20
-76.31135811384584
 30
0.0
 10
171.8858223079364
 20
-76.06187956756127
 30
0.0
 10
172.0153656920626
 20
-75.81024341511228
 30
0.0
 10
172.1427087436054
 20
-75.55648495993096
 30
0.0
 10
172.2678049346834
 20
-75.3006367876533
 30
0.0
 10
172.3906101166561
 20
-75.04272859958596
 30
0.0
 10
172.5110816910201
 20
-74.78278848021346
 30
0.0
 10
172.6291779209559
 20
-74.52084422493155
 30
0.0
 10
172.7448575332214
 20
-74.25692423940543
 30
0.0
 10
172.8580795634253
 20
-73.99105798840675
 30
0.0
 10
172.9688033465717
 20
-73.72327613835131
 30
0.0
 10
173.0769885704473
 20
-73.45361054573486
 30
0.0
 10
173.1825953425881
 20
-73.1820941949968
 30
0.0
 10
173.2855842494706
 20
-72.90876113780995
 30
0.0
 10
173.3859164032808
 20
-72.63364645068197
 30
0.0
 10
173.4835534788574
 20
-72.35678621009192
 30
0.0
 10
173.5784577449867
 20
-72.07821747862768
 30
0.0
 10
173.6705920933399
 20
-71.79797829583342
 30
0.0
 10
173.7599200669156
 20
-71.51610766968116
 30
0.0
 10
173.8464058887244
 20
-71.23264556671093
 30
0.0
 10
173.9300144908046
 20
-70.9476329002688
 30
0.0
 10
174.010711543392
 20
-70.66111151693803
 30
0.0
 10
174.0884634840241
 20
-70.37312418145326
 30
0.0
 10
174.1632375464043
 20
-70.08371456035908
 30
0.0
 10
174.2350017889095
 20
-69.79292720457741
 30
0.0
 10
174.3037251226716
 20
-69.50080753096369
 30
0.0
 10
174.3693773391883
 20
-69.20740180287916
 30
0.0
 10
174.4319291374278
 20
-68.91275710978383
 30
0.0
 10
174.4913521503921
 20
-68.61692134585045
 30
0.0
 10
174.5476189711035
 20
-68.31994318760347
 30
0.0
 10
174.6007031779769
 20
-68.02187207059396
 30
0.0
 10
174.6505793595358
 20
-67.72275816512595
 30
0.0
 10
174.6972231384349
 20
-67.42265235105415
 30
0.0
 10
174.7406111947471
 20
-67.12160619167599
 30
0.0
 10
174.7807212884782
 20
-66.81967190674274
 30
0.0
 10
174.8175322812693
 20
-66.51690234461577
 30
0.0
 10
174.8510241572521
 20
-66.21335095359666
 30
0.0
 10
174.8811780430197
 20
-65.90907175246051
 30
0.0
 10
174.9079762266799
 20
-65.60411930022404
 30
0.0
 10
174.931402175956
 20
-65.29854866518113
 30
0.0
 10
174.951440555305
 20
-64.99241539324103
 30
0.0
 10
174.9680772420223
 20
-64.68577547560482
 30
0.0
 10
174.9812993413024
 20
-64.37868531581816
 30
0.0
 10
174.9910952002307
 20
-64.07120169623922
 30
0.0
 10
174.9974544206794
 20
-63.76338174396257
 30
0.0
 10
175.0003678710827
 20
-63.45528289624013
 30
0.0
 10
174.999827697071
 20
-63.14696286544259
 30
0.0
 10
174.9958273309429
 20
-62.83847960360525
 30
0.0
 10
174.9883614999568
 20
-62.52989126660286
 30
0.0
 10
174.977426233425
 20
-62.22125617799962
 30
0.0
 10
174.9630188685981
 20
-61.91263279262099
 30
0.0
 10
174.945138055325
 20
-61.60407965989458
 30
0.0
 10
174.9237837594802
 20
-61.29565538700802
 30
0.0
 10
174.8989572651493
 20
-60.98741860193233
 30
0.0
 10
174.870661175568
 20
-60.67942791635983
 30
0.0
 10
174.8388994128105
 20
-60.37174188860516
 30
0.0
 10
174.8036772162252
 20
-60.06441898651909
 30
0.0
 10
174.7650011396202
 20
-59.75751755046417
 30
0.0
 10
174.7228790472006
 20
-59.45109575640167
 30
0.0
 10
174.6773201082621
 20
-59.14521157913849
 30
0.0
 10
174.6283347906509
 20
-58.83992275578322
 30
0.0
 10
174.5759348529969
 20
-58.5352867494593
 30
0.0
 10
174.5201333357332
 20
-58.23136071332344
 30
0.0
 10
174.4609445509165
 20
-57.92820145493609
 30
0.0
 10
174.398384070863
 20
-57.62586540103119
 30
0.0
 10
174.332468715619
 20
-57.32440856272997
 30
0.0
 10
174.2632165392856
 20
-57.02388650124412
 30
0.0
 10
174.1906468152203
 20
-56.72435429411188
 30
0.0
 10
174.1147800201389
 20
-56.4258665020097
 30
0.0
 10
174.0356378171431
 20
-56.12847713618059
 30
0.0
 10
173.9532430377019
 20
-55.83223962651938
 30
0.0
 10
173.8676196626163
 20
-55.53720679035387
 30
0.0
 10
173.7787928019971
 20
-55.2434308019585
 30
0.0
 10
173.6867886742892
 20
-54.95096316283675
 30
0.0
 10
173.5916345843745
 20
-54.65985467280601
 30
0.0
 10
173.4933589007915
 20
-54.37015540191762
 30
0.0
 10
173.3919910321044
 20
-54.08191466324246
 30
0.0
 10
173.2875614024616
 20
-53.79518098655138
 30
0.0
 10
173.1801014263822
 20
-53.51000209291723
 30
0.0
 10
173.0696434828089
 20
-53.22642487026397
 30
0.0
 10
172.9562208884676
 20
-52.9444953498858
 30
0.0
 10
172.8398678705777
 20
-52.6642586839585
 30
0.0
 10
172.7206195389515
 20
-52.38575912406135
 30
0.0
 10
172.5985118575267
 20
-52.10904000072805
 30
0.0
 10
172.4735816153764
 20
-51.83414370404141
 30
0.0
 10
172.3458663972367
 20
-51.56111166528585
 30
0.0
 10
172.2154045535987
 20
-51.28998433966863
 30
0.0
 10
172.0822351704055
 20
-51.02080119011954
 30
0.0
 10
171.9463980384022
 20
-50.75360067217696
 30
0.0
 10
171.8079336221779
 20
-50.48842021996528
 30
0.0
 10
171.6668830289485
 20
-50.22529623326845
 30
0.0
 10
171.5232879771209
 20
-49.96426406570144
 30
0.0
 10
171.3771907646853
 20
-49.70535801398025
 30
0.0
 10
171.2286342374767
 20
-49.44861130828833
 30
0.0
 10
171.0776617573458
 20
-49.19405610373384
 30
0.0
 10
170.9243171702781
 20
-48.94172347288716
 30
0.0
 10
170.768644774486
 20
-48.69164339938087
 30
0.0
 10
170.6106892884997
 20
-48.44384477254894
 30
0.0
 10
170.4504958192777
 20
-48.1983553830808
 30
0.0
 10
170.2881098303754
 20
-47.95520191968124
 30
0.0
 10
170.1235771102631
 20
-47.71440996677105
 30
0.0
 10
169.9569437409859
 20
-47.4760040033477
 30
0.0
 10
169.7882560675019
 20
-47.24000740324195
 30
0.0
 10
169.6175606681631
 20
-47.00644243710125
 30
0.0
 10
169.4449043267596
 20
-46.77533027636693
 30
0.0
 10
169.270334006026
 20
-46.54669099904423
 30
0.0
 10
169.0938968211256
 20
-46.3205435958684
 30
0.0
 10
168.9156400090592
 20
-46.09690597333036
 30
0.0
 10
168.7356108864647
 20
-45.87579494722333
 30
0.0
 10
168.5538567855382
 20
-45.6572262184093
 30
0.0
 10
168.3704249600026
 20
-45.44121432494664
 30
0.0
 10
168.1853624675023
 20
-45.22777257767282
 30
0.0
 10
167.9987160709615
 20
-45.01691301730939
 30
0.0
 10
167.8105322654368
 20
-44.80864648432706
 30
0.0
 10
167.620857619327
 20
-44.60298295846063
 30
0.0
 10
167.4297396733435
 20
-44.39993236197767
 30
0.0
 10
167.2372285595521
 20
-44.19950593766162
 30
0.0
 10
167.043379103885
 20
-44.00171795838493
 30
0.0
 10
166.8482522389828
 20
-43.80658672659693
 30
0.0
 10
166.6519129673624
 20
-43.61413251003676
 30
0.0
 10
166.4544201921563
 20
-43.42436854108343
 30
0.0
 10
166.2558027274711
 20
-43.23728058556761
 30
0.0
 10
166.0560184917162
 20
-43.05279321781049
 30
0.0
 10
165.8549047406587
 20
-42.87073050298321
 30
0.0
 10
165.6521513316285
 20
-42.69079925357506
 30
0.0
 10
165.4473679575025
 20
-42.51265512508505
 30
0.0
 10
165.2402623318826
 20
-42.33605985133647
 30
0.0
 10
165.0306764748435
 20
-42.16090652025481
 30
0.0
 10
164.8185546885042
 20
-41.98718446511386
 30
0.0
 10
164.6038982611988
 20
-41.81493468863519
 30
0.0
 10
164.3867311876473
 20
-41.64421732191461
 30
0.0
 10
164.1670811466109
 20
-41.47509409560014
 30
0.0
 10
163.9449721220409
 20
-41.30762185308528
 30
0.0
 10
163.7204234785105
 20
-41.14185200074252
 30
0.0
 10
163.4934515522016
 20
-40.97783215908746
 30
0.0
 10
163.2640715639499
 20
-40.81560799688705
 30
0.0
 10
163.0322989988943
 20
-40.65522449952196
 30
0.0
 10
162.798150340944
 20
-40.49672660721379
 30
0.0
 10
162.5616433415854
 20
-40.3401594138118
 30
0.0
 10
162.3227970410968
 20
-40.18556813928324
 30
0.0
 10
162.0816316997541
 20
-40.03299802477252
 30
0.0
 10
161.8381687228082
 20
-39.88249422694639
 30
0.0
 10
161.5924306095731
 20
-39.73410173787778
 30
0.0
 10
161.3444409285188
 20
-39.58786533067837
 30
0.0
 10
161.0942243099231
 20
-39.44382952215765
 30
0.0
 10
160.8418064469588
 20
-39.30203854369911
 30
0.0
 10
160.5872140989381
 20
-39.16253631449921
 30
0.0
 10
160.3304750935165
 20
-39.02536641430929
 30
0.0
 10
160.0716183267832
 20
-38.89057205481746
 30
0.0
 10
159.8106737612452
 20
-38.75819604979153
 30
0.0
 10
159.5476724220737
 20
-38.62828078441023
 30
0.0
 10
159.2826463919759
 20
-38.50086818418303
 30
0.0
 10
159.0156288049276
 20
-38.37599968372772
 30
0.0
 10
158.7466538388757
 20
-38.25371619555211
 30
0.0
 10
158.4757567074365
 20
-38.13405807890891
 30
0.0
 10
158.2029736505802
 20
-38.01706510875681
 30
0.0
 10
157.9283419242756
 20
-37.90277644485113
 30
0.0
 10
157.6518997890787
 20
-37.79123060099049
 30
0.0
 10
157.3736864976512
 20
-37.68246541445218
 30
0.0
 10
157.093742281206
 20
-37.57651801565458
 30
0.0
 10
156.8121083348792
 20
-37.47342479808811
 30
0.0
 10
156.5288268020318
 20
-37.3732213885577
 30
0.0
 10
156.2439407574887
 20
-37.27594261778089
 30
0.0
 10
155.9574941897216
 20
-37.18162249138455
 30
0.0
 10
155.6695319819859
 20
-37.09029416134406
 30
0.0
 10
155.3800998924225
 20
-37.0019898979075
 30
0.0
 10
155.0892445331385
 20
-36.91674106204774
 30
0.0
 10
154.7970133482806
 20
-36.83457807848448
 30
0.0
 10
154.5034545911201
 20
-36.7555304093182
 30
0.0
 10
154.2086173001659
 20
-36.67962652831724
 30
0.0
 10
153.9125512743285
 20
-36.60689389589865
 30
0.0
 10
153.6153070471568
 20
-36.5373589348428
 30
0.0
 10
153.316935860173
 20
-36.47104700678087
 30
0.0
 10
153.0174896353311
 20
-36.40798238949362
 30
0.0
 10
152.7170209466289
 20
-36.34818825505817
 30
0.0
 10
152.4155829909019
 20
-36.2916866488795
 30
0.0
 10
152.1132295578331
 20
-36.23849846964102
 30
0.0
 10
151.8100149992101
 20
-36.18864345020803
 30
0.0
 10
151.5059941974656
 20
-36.14214013951607
 30
0.0
 10
151.2012225335388
 20
-36.09900588547509
 30
0.0
 10
150.8957558540944
 20
-36.05925681891839
 30
0.0
 10
150.5896504381395
 20
-36.02290783862391
 30
0.0
 10
150.2829629630797
 20
-35.98997259743356
 30
0.0
 10
149.9757504702563
 20
-35.96046348949478
 30
0.0
 10
149.668070330007
 20
-35.93439163864625
 30
0.0
 10
149.3599802062954
 20
-35.91176688796793
 30
0.0
 10
149.0515380209551
 20
-35.89259779051423
 30
0.0
 10
148.7428019175936
 20
-35.87689160124579
 30
0.0
 10
148.4338302252028
 20
-35.86465427017469
 30
0.0
 10
148.1246814215249
 20
-35.85589043673472
 30
0.0
 10
147.8154140962214
 20
-35.850603425387
 30
0.0
 10
147.5060869138932
 20
-35.84879524246834
 30
0.0
 10
147.1967585770005
 20
-35.85046657428822
 30
0.0
 10
146.8874877887344
 20
-35.85561678647766
 30
0.0
 10
146.5783332158854
 20
-35.86424392459107
 30
0.0
 10
146.2693534517619
 20
-35.87634471596012
 30
0.0
 10
145.9606069792051
 20
-35.89191457279626
 30
0.0
 10
145.6521521337512
 20
-35.91094759653647
 30
0.0
 10
145.3440470669886
 20
-35.9334365834245
 30
0.0
 10
145.0363497101574
 20
-35.9593730313177
 30
0.0
 10
144.7291177380419
 20
-35.98874714770778
 30
0.0
 10
144.4224085331993
 20
-36.02154785894086
 30
0.0
 10
144.1162791505738
 20
-36.05776282062111
 30
0.0
 10
143.8107862825395
 20
-36.09737842917965
 30
0.0
 10
143.5059862244183
 20
-36.14037983458842
 30
0.0
 10
143.2019348405143
 20
-36.18675095419715
 30
0.0
 10
142.8986875307076
 20
-36.23647448766933
 30
0.0
 10
142.5962991976498
 20
-36.28953193299163
 30
0.0
 10
142.2948242145983
 20
-36.34590360352917
 30
0.0
 10
141.9943163939302
 20
-36.40556864609777
 30
0.0
 10
141.6948289563707
 20
-36.4685050600224
 30
0.0
 10
141.3964145009719
 20
-36.53468971714969
 30
0.0
 10
141.0991249758755
 20
-36.60409838278096
 30
0.0
 10
140.8030116498923
 20
-36.6767057374913
 30
0.0
 10
140.5081250849264
 20
-36.75248539979818
 30
0.0
 10
140.2145151092759
 20
-36.83140994964274
 30
0.0
 10
139.9222307918327
 20
-36.91345095264554
 30
0.0
 10
139.6313204172104
 20
-36.99857898509755
 30
0.0
 10
139.3418314618197
 20
-37.08676365964663
 30
0.0
 10
139.053810570914
 20
-37.1779736516386
 30
0.0
 10
138.767303536624
 20
-37.27217672607189
 30
0.0
 10
138.4823552769984
 20
-37.36933976512392
 30
0.0
 10
138.1990098160654
 20
-37.46942879620686
 30
0.0
 10
137.9173102649287
 20
-37.57240902051027
 30
0.0
 10
137.6372988039094
 20
-37.67824484198772
 30
0.0
 10
137.3590166657422
 20
-37.78689989674393
 30
0.0
 10
137.0825041198364
 20
-37.89833708277894
 30
0.0
 10
136.807800457605
 20
-38.01251859004594
 30
0.0
 10
136.5349439788678
 20
-38.12940593077904
 30
0.0
 10
136.2639719793283
 20
-38.24895997004963
 30
0.0
 10
135.9949207391201
 20
-38.37114095651297
 30
0.0
 10
135.7278255124109
 20
-38.49590855331198
 30
0.0
 10
135.4627205180458
 20
-38.62322186911152
 30
0.0
 10
135.1996389312064
 20
-38.75303948923977
 30
0.0
 10
134.9386128760733
 20
-38.88531950690478
 30
0.0
 10
134.679673419517
 20
-39.02001955441897
 30
0.0
 10
134.4228505659209
 20
-39.15709683428918
 30
0.0
 10
134.1681732533675
 20
-39.29650814990858
 30
0.0
 10
133.9156693515473
 20
-39.43820993545413
 30
0.0
 10
133.6653656617619
 20
-39.58215828455827
 30
0.0
 10
133.4172879190581
 20
-39.72830897761141
 30
0.0
 10
133.1714607954784
 20
-39.87661750850156
 30
0.0
 10
132.9279079013343
 20
-40.02703911355228
 30
0.0
 10
132.6866517783504
 20
-40.1795288083874
 30
0.0
 10
132.4477138756255
 20
-40.33404144145202
 30
0.0
 10
132.2111144997919
 20
-40.49053177304442
 30
0.0
 10
131.9768727405651
 20
-40.6489545802765
 30
0.0
 10
131.7450064004564
 20
-40.80926476316526
 30
0.0
 10
131.5155320098726
 20
-40.9714173775845
 30
0.0
 10
131.2884650822737
 20
-41.1353674491396
 30
0.0
 10
131.0638208263602
 20
-41.30106935626533
 30
0.0
 10
130.8416155001632
 20
-41.46847558750293
 30
0.0
 10
130.6218683141892
 20
-41.63753492031154
 30
0.0
 10
130.4046030682964
 20
-41.8081907326748
 30
0.0
 10
130.1898473911897
 20
-41.98038140540978
 30
0.0
 10
129.977625710244
 20
-42.15404648381704
 30
0.0
 10
129.7679407731715
 20
-42.32914368283482
 30
0.0
 10
129.5607399500058
 20
-42.50568083768063
 30
0.0
 10
129.355870041468
 20
-42.68376028868566
 30
0.0
 10
129.1530438938108
 20
-42.86361512626535
 30
0.0
 10
128.9518722345189
 20
-43.04558793881972
 30
0.0
 10
128.7520395808991
 20
-43.22997596978249
 30
0.0
 10
128.5533775818678
 20
-43.41695973883517
 30
0.0
 10
128.3558403163154
 20
-43.60661792905466
 30
0.0
 10
128.1594546630526
 20
-43.79896648466623
 30
0.0
 10
127.9642788863125
 20
-43.9939927942434
 30
0.0
 10
127.7703780052244
 20
-44.19167664271687
 30
0.0
 10
127.5778131842264
 20
-44.39199958237513
 30
0.0
 10
127.3866394742224
 20
-44.59494719001925
 30
0.0
 10
127.196907152341
 20
-44.80050813511946
 30
0.0
 10
127.0086638268913
 20
-45.00867247228248
 30
0.0
 10
126.8219560837224
 20
-45.21943024229499
 30
0.0
 10
126.6368304117814
 20
-45.43277064710422
 30
0.0
 10
126.4533335616901
 20
-45.64868169562336
 30
0.0
 10
126.2715125809684
 20
-45.86715012653996
 30
0.0
 10
126.0914147178789
 20
-46.08816144885312
 30
0.0
 10
125.9130873034721
 20
-46.31170000640961
 30
0.0
 10
125.7365776563618
 20
-46.53774902668836
 30
0.0
 10
125.5619330175759
 20
-46.76629064589643
 30
0.0
 10
125.3892005076921
 20
-46.99730591596522
 30
0.0
 10
125.218427095952
 20
-47.23077480176354
 30
0.0
 10
125.0496595736791
 20
-47.46667617497308
 30
0.0
 10
124.8829445278246
 20
-47.70498780826725
 30
0.0
 10
124.7183283130755
 20
-47.9456863712545
 30
0.0
 10
124.5558570223918
 20
-48.18874742842012
 30
0.0
 10
124.3955764563796
 20
-48.43414543880821
 30
0.0
 10
124.2375320919709
 20
-48.68185375711115
 30
0.0
 10
124.0817690507503
 20
-48.93184463592607
 30
0.0
 10
123.928332067128
 20
-49.18408922905514
 30
0.0
 10
123.7772654564508
 20
-49.43855759581189
 30
0.0
 10
123.6286130830939
 20
-49.69521870634178
 30
0.0
 10
123.4824183285526
 20
-49.95404044798078
 30
0.0
 10
123.3387240595595
 20
-50.21498963267578
 30
0.0
 10
123.1975725962526
 20
-50.47803200548463
 30
0.0
 10
123.0590056804333
 20
-50.74313225416642
 30
0.0
 10
122.9230644439516
 20
-51.01025401986863
 30
0.0
 10
122.7897893772638
 20
-51.27935990891218
 30
0.0
 10
122.6592202982049
 20
-51.550411505675
 30
0.0
 10
122.5313963210205
 20
-51.82336938657127
 30
0.0
 10
122.4063558257032
 20
-52.09819313512284
 30
0.0
 10
122.2841364276753
 20
-52.37484135811681
 30
0.0
 10
122.1647749478644
 20
-52.65327170284184
 30
0.0
 10
122.0483073832136
 20
-52.93344087539407
 30
0.0
 10
121.9347688776705
 20
-53.21530466004102
 30
0.0
 10
121.8241936936994
 20
-53.49881793962985
 30
0.0
 10
121.7166151843573
 20
-53.78393471702526
 30
0.0
 10
121.6120657659793
 20
-54.07060813755895
 30
0.0
 10
121.5105768915117
 20
-54.35879051247168
 30
0.0
 10
121.4121790245373
 20
-54.64843334332634
 30
0.0
 10
121.3169016140321
 20
-54.93948734736933
 30
0.0
 10
121.224773069892
 20
-55.23190248381428
 30
0.0
 10
121.135820739271
 20
-55.52562798102183
 30
0.0
 10
121.0500708837646
 20
-55.82061236454611
 30
0.0
 10
120.9675486574789
 20
-56.11680348601767
 30
0.0
 10
120.8882780860173
 20
-56.41414855283017
 30
0.0
 10
120.8122820464204
 20
-56.71259415859691
 30
0.0
 10
120.7395822480909
 20
-57.01208631434185
 30
0.0
 10
120.6701992147347
 20
-57.31257048038757
 30
0.0
 10
120.6041522673469
 20
-57.61399159890173
 30
0.0
 10
120.5414595082711
 20
-57.9162941270621
 30
0.0
 10
120.4821378063569
 20
-58.21942207079866
 30
0.0
 10
120.4262027832403
 20
-58.52331901907017
 30
0.0
 10
120.3736688007684
 20
-58.82792817863183
 30
0.0
 10
120.3245489495899
 20
-59.1331924092492
 30
0.0
 10
120.2788550389275
 20
-59.43905425931275
 30
0.0
 10
120.2365975875509
 20
-59.7454560018065
 30
0.0
 10
120.197785815962
 20
-60.05233967058373
 30
0.0
 10
120.1624276398054
 20
-60.3596470969019
 30
0.0
 10
120.1305296645145
 20
-60.66731994616809
 30
0.0
 10
120.1020971811993
 20
-60.97529975484698
 30
0.0
 10
120.0771341637821
 20
-61.28352796748157
 30
0.0
 10
120.055643267385
 20
-61.59194597377809
 30
0.0
 10
120.0376258279686
 20
-61.90049514570509
 30
0.0
 10
120.0230818632218
 20
-62.20911687455828
 30
0.0
 10
120.0120100746985
 20
-62.51775260794126
 30
0.0
 10
120.0044078511959
 20
-62.8263438866137
 30
0.0
 10
120.0002712733668
 20
-63.13483238115878
 30
0.0
 10
119.9995951195555
 20
-63.44315992842129
 30
0.0
 10
120.0023728728446
 20
-63.75126856766943
 30
0.0
 10
120.0085967293003
 20
-64.05910057643367
 30
0.0
 10
120.0182576073978
 20
-64.3665985059764
 30
0.0
 10
120.0313451586102
 20
-64.67370521634768
 30
0.0
 10
120.0478477791396
 20
-64.98036391098299
 30
0.0
 10
120.0677526227692
 20
-65.2865181708001
 30
0.0
 10
120.091045614812
 20
-65.59211198775329
 30
0.0
 10
120.1177114671305
 20
-65.89708979780434
 30
0.0
 10
120.147733694201
 20
-66.20139651327128
 30
0.0
 10
120.1810946301918
 20
-66.50497755451713
 30
0.0
 10
120.2177754470268
 20
-66.80777888094223
 30
0.0
 10
120.2577561734013
 20
-67.1097470212454
 30
0.0
 10
120.3010157147175
 20
-67.41082910292132
 30
0.0
 10
120.3475318739056
 20
-67.71097288096221
 30
0.0
 10
120.3972813730933
 20
-68.01012676573424
 30
0.0
 10
120.4502398760893
 20
-68.30823985000076
 30
0.0
 10
120.5063820116412
 20
-68.60526193506628
 30
0.0
 10
120.5656813974304
 20
-68.90114355601676
 30
0.0
 10
120.6281106647634
 20
-69.19583600603381
 30
0.0
 10
120.6936414839226
 20
-69.48929135976257
 30
0.0
 10
120.7622445901311
 20
-69.7814624957142
 30
0.0
 10
120.8338898100955
 20
-70.07230311768646
 30
0.0
 10
120.9085460890807
 20
-70.36176777518713
 30
0.0
 10
120.9861815184784
 20
-70.64981188284678
 30
0.0
 10
121.0667633638224
 20
-70.93639173880863
 30
0.0
 10
121.1502580932127
 20
-71.22146454208683
 30
0.0
 10
121.236631406103
 20
-71.50498840888532
 30
0.0
 10
121.325848262414
 20
-71.7869223878759
 30
0.0
 10
121.4178729119362
 20
-72.06722647444045
 30
0.0
 10
121.5126689239908
 20
-72.34586162389078
 30
0.0
 10
121.6101992173225
 20
-72.62278976368651
 30
0.0
 10
121.7104260901927
 20
-72.89797380466634
 30
0.0
 10
121.8133112506214
 20
-73.17137765127975
 30
0.0
 10
121.9188158466737
 20
-73.44296621073204
 30
0.0
 10
122.026900496596
 20
-73.71270540082898
 30
0.0
 10
122.1375253184986
 20
-73.98056215615156
 30
0.0
 10
122.2506499592133
 20
-74.24650443210229
 30
0.0
 10
122.3662336221001
 20
-74.5105012065686
 30
0.0
 10
122.4842350941741
 20
-74.7725224798053
 30
0.0
 10
122.604612774285
 20
-75.0325392750681
 30
0.0
 10
122.7273247063106
 20
-75.2905236456955
 30
0.0
 10
122.8523286239244
 20
-75.54644869799831
 30
0.0
 10
122.979582014575
 20
-75.80028864080247
 30
0.0
 10
123.1090422058904
 20
-76.05201886612441
 30
0.0
 10
123.2406664614905
 20
-76.30161604233169
 30
0.0
 10
123.3744120384661
 20
-76.54905815180133
 30
0.0
 10
123.5102361039915
 20
-76.79432432744997
 30
0.0
 10
123.6480953496898
 20
-77.03739425957734
 30
0.0
 10
123.7879451281258
 20
-77.27824692533627
 30
0.0
 10
123.9297380727551
 20
-77.51685858995506
 30
0.0
 10
124.0734225869452
 20
-77.75320063172465
 30
0.0
 10
124.2189425054994
 20
-77.98723905149173
 30
0.0
 10
124.3662404503164
 20
-78.21893923423745
 30
0.0
 10
124.5152691039973
 20
-78.44828199205297
 30
0.0
 10
124.6660133178208
 20
-78.67529482531631
 30
0.0
 10
124.8185264218217
 20
-78.90010362800231
 30
0.0
 10
124.9214806456697
 20
-79.04868137952404
 30
0.0
 10
124.9733223015384
 20
-79.1227189370192
 30
0.0
  0
ENDSEC
  0
SECTION
  2
OBJECTS
  0
DICTIONARY
  5
C
330
0
100
AcDbDictionary
281
     1
  3
ACAD_CIP_PREVIOUS_PRODUCT_INFO
350
1005A
  3
ACAD_COLOR
350
10036
  3
ACAD_DETAILVIEWSTYLE
350
10051
  3
ACAD_GROUP
350
D
  3
ACAD_LAST_SAVED_VERSION_INFO
350
10077
  3
ACAD_LAYOUT
350
10037
  3
ACAD_MATERIAL
350
10004
  3
ACAD_MLEADERSTYLE
350
1004D
  3
ACAD_MLINESTYLE
350
17
  3
ACAD_PLOTSETTINGS
350
10054
  3
ACAD_PLOTSTYLENAME
350
10002
  3
ACAD_SCALELIST
350
1003B
  3
ACAD_SECTIONVIEWSTYLE
350
1004F
  3
ACAD_TABLESTYLE
350
10038
  3
ACAD_VISUALSTYLE
350
1001D
  3
ACDB_RECOMPOSE_DATA
350
10086
  3
AcDbVariableDictionary
350
1007A
  0
DICTIONARY
  5
10078
330
50
100
AcDbDictionary
280
     1
281
     1
  3
ADSK_XREC_LAYER_RECONCILED
360
10079
  0
XRECORD
  5
1005A
102
{ACAD_REACTORS
330
C
102
}
330
C
100
AcDbXrecord
280
     1
300
ACD
300
2027
300

  0
DICTIONARY
  5
10036
102
{ACAD_REACTORS
330
C
102
}
330
C
100
AcDbDictionary
281
     1
  0
DICTIONARY
  5
10051
102
{ACAD_REACTORS
330
C
102
}
330
C
100
AcDbDictionary
281
     1
  3
Imperial24
350
10052
  0
DICTIONARY
  5
D
330
C
100
AcDbDictionary
281
     1
  0
XRECORD
  5
10077
102
{ACAD_REACTORS
330
C
102
}
330
C
100
AcDbXrecord
280
     1
300
{6A30F127-D586-FD47-AFB0-22E431F89E14}
301
{94377FAE-8446-6E49-BA12-8D7AE5042EF7}
302
{6A30F127-D586-FD47-AFB0-22E431F89E14}
303
C:\Users\sunwo\Downloads\장물.dxf
  0
DICTIONARY
  5
10037
102
{ACAD_REACTORS
330
C
102
}
330
C
100
AcDbDictionary
281
     1
  3
Model
350
10055
  3
배치1
350
10056
  0
DICTIONARY
  5
10004
102
{ACAD_REACTORS
330
C
102
}
330
C
100
AcDbDictionary
281
     1
  3
ByBlock
350
1000D
  3
ByLayer
350
10005
  3
Global
350
10015
  0
DICTIONARY
  5
1004D
102
{ACAD_REACTORS
330
C
102
}
330
C
100
AcDbDictionary
281
     1
  3
Standard
350
1004E
  0
DICTIONARY
  5
17
330
C
100
AcDbDictionary
281
     1
  3
Standard
350
1003A
  0
DICTIONARY
  5
10054
102
{ACAD_REACTORS
330
C
102
}
330
C
100
AcDbDictionary
281
     1
  0
ACDBDICTIONARYWDFLT
  5
10002
102
{ACAD_REACTORS
330
C
102
}
330
C
100
AcDbDictionary
281
     1
  3
Normal
350
10003
100
AcDbDictionaryWithDefault
340
10003
  0
DICTIONARY
  5
1003B
102
{ACAD_REACTORS
330
C
102
}
330
C
100
AcDbDictionary
281
     1
  3
A0
350
1003C
  3
A1
350
1003D
  3
A2
350
1003E
  3
A3
350
1003F
  3
A4
350
10040
  3
A5
350
10041
  3
A6
350
10042
  3
A7
350
10043
  3
A8
350
10044
  3
A9
350
10045
  3
B0
350
10046
  3
B1
350
10047
  3
B2
350
10048
  3
B3
350
10049
  3
B4
350
1004A
  3
B5
350
1004B
  3
B6
350
1004C
  0
DICTIONARY
  5
1004F
102
{ACAD_REACTORS
330
C
102
}
330
C
100
AcDbDictionary
281
     1
  3
Imperial24
350
10050
  0
DICTIONARY
  5
10038
102
{ACAD_REACTORS
330
C
102
}
330
C
100
AcDbDictionary
281
     1
  3
Standard
350
10039
  0
DICTIONARY
  5
1001D
102
{ACAD_REACTORS
330
C
102
}
330
C
100
AcDbDictionary
281
     1
  3
2dWireframe
350
10023
  3
Basic
350
10022
  3
Brighten
350
10029
  3
ColorChange
350
1002D
  3
Conceptual
350
10026
  3
Dim
350
10028
  3
EdgeColorOff
350
10035
  3
Facepattern
350
1002C
  3
Flat
350
1001E
  3
FlatWithEdges
350
1001F
  3
Gouraud
350
10020
  3
GouraudWithEdges
350
10021
  3
Hidden
350
10025
  3
JitterOff
350
10033
  3
Linepattern
350
1002B
  3
OverhangOff
350
10034
  3
Realistic
350
10027
  3
Shaded
350
10032
  3
Shaded with edges
350
10031
  3
Shades of Gray
350
1002E
  3
Sketchy
350
1002F
  3
Thicken
350
1002A
  3
Wireframe
350
10024
  3
X-Ray
350
10030
  0
XRECORD
  5
10086
102
{ACAD_REACTORS
330
C
102
}
330
C
100
AcDbXrecord
280
     1
 90
        1
330
10039
  0
DICTIONARY
  5
1007A
102
{ACAD_REACTORS
330
C
102
}
330
C
100
AcDbDictionary
281
     1
  3
CANNOSCALE
350
10080
  3
CMLEADERSTYLE
350
1007C
  3
CTABLESTYLE
350
1007B
  3
CVIEWDETAILSTYLE
350
1007D
  3
CVIEWSECTIONSTYLE
350
1007E
  3
LAYEREVAL
350
10082
  3
LAYERNOTIFY
350
10083
  3
LIGHTINGUNITS
350
10081
  3
MSLTSCALE
350
1007F
  0
XRECORD
  5
10079
102
{ACAD_REACTORS
330
10078
102
}
330
10078
100
AcDbXrecord
280
     1
290
     1
  0
ACDBDETAILVIEWSTYLE
  5
10052
102
{ACAD_REACTORS
330
10051
102
}
330
10051
100
AcDbModelDocViewStyle
 70
     0
  3
Imperial24
290
     0
300
Imperial24
 90
        0
100
AcDbDetailViewStyle
 70
     0
 71
     0
 90
        3
 71
     1
340
11
 62
   256
 40
0.24
340
0
 62
   256
 40
0.24
300

 40
0.36
280
     3
 71
     2
340
10001
 90
       25
 62
   256
 71
     3
340
11
 62
   256
 40
0.24
 90
        1
 40
0.75
 90
        1
300
%<\AcVar ViewType \f "%tc1">% %<\AcVar ViewDetailId>%\PSCALE %<\AcVar ViewScale \f "%sn">%
 71
     4
340
10001
 90
       25
 62
   256
340
10001
 90
       25
 62
   256
280
     0
  0
LAYOUT
  5
10055
102
{ACAD_REACTORS
330
10037
102
}
330
10037
100
AcDbPlotSettings
  1

  2
Samsung C56x Series
  4

  6

 40
0.0
 41
0.0
 42
0.0
 43
0.0
 44
0.0
 45
0.0
 46
0.0
 47
0.0
 48
0.0
 49
0.0
140
0.0
141
0.0
142
1.0
143
1.0
 70
  1712
 72
     0
 73
     0
 74
     0
  7

 75
     0
147
1.0
 76
     0
 77
     2
 78
   300
148
0.0
149
0.0
100
AcDbLayout
  1
Model
 70
     1
 71
     0
 10
0.0
 20
0.0
 11
12.0
 21
9.0
 12
0.0
 22
0.0
 32
0.0
 14
0.0
 24
0.0
 34
0.0
 15
0.0
 25
0.0
 35
0.0
146
0.0
 13
0.0
 23
0.0
 33
0.0
 16
1.0
 26
0.0
 36
0.0
 17
0.0
 27
1.0
 37
0.0
 76
     0
330
1F
331
10059
  0
LAYOUT
  5
10056
102
{ACAD_REACTORS
330
10037
102
}
330
10037
100
AcDbPlotSettings
  1

  2
Samsung C56x Series
  4

  6

 40
0.0
 41
0.0
 42
0.0
 43
0.0
 44
0.0
 45
0.0
 46
0.0
 47
0.0
 48
0.0
 49
0.0
140
0.0
141
0.0
142
1.0
143
1.0
 70
   688
 72
     0
 73
     0
 74
     5
  7

 75
    16
147
1.0
 76
     0
 77
     2
 78
   300
148
0.0
149
0.0
100
AcDbLayout
  1
배치1
 70
     1
 71
     1
 10
0.0
 20
0.0
 11
12.0
 21
9.0
 12
0.0
 22
0.0
 32
0.0
 14
1.000000000000000E+20
 24
1.000000000000000E+20
 34
1.000000000000000E+20
 15
-1.000000000000000E+20
 25
-1.000000000000000E+20
 35
-1.000000000000000E+20
146
0.0
 13
0.0
 23
0.0
 33
0.0
 16
1.0
 26
0.0
 36
0.0
 17
0.0
 27
1.0
 37
0.0
 76
     0
330
1B
  0
MATERIAL
  5
1000D
102
{ACAD_XDICTIONARY
360
1000E
102
}
102
{ACAD_REACTORS
330
10004
102
}
330
10004
100
AcDbMaterial
  1
ByBlock
 72
     0
 43
0.0008202099737533
 43
0.0
 43
0.0
 43
0.0
 43
0.0
 43
0.0008202099737533
 43
0.0
 43
0.0
 43
0.0
 43
0.0
 43
1.0
 43
0.0
 43
0.0
 43
0.0
 43
0.0
 43
1.0
 77
     0
 47
0.0008202099737533
 47
0.0
 47
0.0
 47
0.0
 47
0.0
 47
0.0008202099737533
 47
0.0
 47
0.0
 47
0.0
 47
0.0
 47
1.0
 47
0.0
 47
0.0
 47
0.0
 47
0.0
 47
1.0
171
     0
 49
0.0008202099737533
 49
0.0
 49
0.0
 49
0.0
 49
0.0
 49
0.0008202099737533
 49
0.0
 49
0.0
 49
0.0
 49
0.0
 49
1.0
 49
0.0
 49
0.0
 49
0.0
 49
0.0
 49
1.0
175
     0
142
0.0008202099737533
142
0.0
142
0.0
142
0.0
142
0.0
142
0.0008202099737533
142
0.0
142
0.0
142
0.0
142
0.0
142
1.0
142
0.0
142
0.0
142
0.0
142
0.0
142
1.0
179
     0
144
0.0008202099737533
144
0.0
144
0.0
144
0.0
144
0.0
144
0.0008202099737533
144
0.0
144
0.0
144
0.0
144
0.0
144
1.0
144
0.0
144
0.0
144
0.0
144
0.0
144
1.0
147
0.0008202099737533
147
0.0
147
0.0
147
0.0
147
0.0
147
0.0008202099737533
147
0.0
147
0.0
147
0.0
147
0.0
147
1.0
147
0.0
147
0.0
147
0.0
147
0.0
147
1.0
  0
MATERIAL
  5
10005
102
{ACAD_XDICTIONARY
360
10006
102
}
102
{ACAD_REACTORS
330
10004
102
}
330
10004
100
AcDbMaterial
  1
ByLayer
 72
     0
 43
0.0008202099737533
 43
0.0
 43
0.0
 43
0.0
 43
0.0
 43
0.0008202099737533
 43
0.0
 43
0.0
 43
0.0
 43
0.0
 43
1.0
 43
0.0
 43
0.0
 43
0.0
 43
0.0
 43
1.0
 77
     0
 47
0.0008202099737533
 47
0.0
 47
0.0
 47
0.0
 47
0.0
 47
0.0008202099737533
 47
0.0
 47
0.0
 47
0.0
 47
0.0
 47
1.0
 47
0.0
 47
0.0
 47
0.0
 47
0.0
 47
1.0
171
     0
 49
0.0008202099737533
 49
0.0
 49
0.0
 49
0.0
 49
0.0
 49
0.0008202099737533
 49
0.0
 49
0.0
 49
0.0
 49
0.0
 49
1.0
 49
0.0
 49
0.0
 49
0.0
 49
0.0
 49
1.0
175
     0
142
0.0008202099737533
142
0.0
142
0.0
142
0.0
142
0.0
142
0.0008202099737533
142
0.0
142
0.0
142
0.0
142
0.0
142
1.0
142
0.0
142
0.0
142
0.0
142
0.0
142
1.0
179
     0
144
0.0008202099737533
144
0.0
144
0.0
144
0.0
144
0.0
144
0.0008202099737533
144
0.0
144
0.0
144
0.0
144
0.0
144
1.0
144
0.0
144
0.0
144
0.0
144
0.0
144
1.0
147
0.0008202099737533
147
0.0
147
0.0
147
0.0
147
0.0
147
0.0008202099737533
147
0.0
147
0.0
147
0.0
147
0.0
147
1.0
147
0.0
147
0.0
147
0.0
147
0.0
147
1.0
  0
MATERIAL
  5
10015
102
{ACAD_XDICTIONARY
360
10016
102
}
102
{ACAD_REACTORS
330
10004
102
}
330
10004
100
AcDbMaterial
  1
Global
 72
     0
 43
0.0008202099737533
 43
0.0
 43
0.0
 43
0.0
 43
0.0
 43
0.0008202099737533
 43
0.0
 43
0.0
 43
0.0
 43
0.0
 43
1.0
 43
0.0
 43
0.0
 43
0.0
 43
0.0
 43
1.0
 77
     0
 47
0.0008202099737533
 47
0.0
 47
0.0
 47
0.0
 47
0.0
 47
0.0008202099737533
 47
0.0
 47
0.0
 47
0.0
 47
0.0
 47
1.0
 47
0.0
 47
0.0
 47
0.0
 47
0.0
 47
1.0
171
     0
 49
0.0008202099737533
 49
0.0
 49
0.0
 49
0.0
 49
0.0
 49
0.0008202099737533
 49
0.0
 49
0.0
 49
0.0
 49
0.0
 49
1.0
 49
0.0
 49
0.0
 49
0.0
 49
0.0
 49
1.0
175
     0
142
0.0008202099737533
142
0.0
142
0.0
142
0.0
142
0.0
142
0.0008202099737533
142
0.0
142
0.0
142
0.0
142
0.0
142
1.0
142
0.0
142
0.0
142
0.0
142
0.0
142
1.0
179
     0
144
0.0008202099737533
144
0.0
144
0.0
144
0.0
144
0.0
144
0.0008202099737533
144
0.0
144
0.0
144
0.0
144
0.0
144
1.0
144
0.0
144
0.0
144
0.0
144
0.0
144
1.0
147
0.0008202099737533
147
0.0
147
0.0
147
0.0
147
0.0
147
0.0008202099737533
147
0.0
147
0.0
147
0.0
147
0.0
147
1.0
147
0.0
147
0.0
147
0.0
147
0.0
147
1.0
  0
MLEADERSTYLE
  5
1004E
102
{ACAD_REACTORS
330
1004D
102
}
330
1004D
100
AcDbMLeaderStyle
179
     2
170
     2
171
     1
172
     0
 90
        2
 40
0.0
 41
0.0
173
     1
 91
-1056964608
340
14
 92
       -2
290
     1
 42
0.09
291
     1
 43
0.36
  3
Standard
 44
0.18
300

342
11
174
     1
178
     6
175
     1
176
     0
 93
-1056964608
 45
0.18
292
     0
297
     0
 46
0.18
 94
-1056964608
 47
1.0
 49
1.0
140
1.0
293
     1
141
0.0
294
     1
177
     0
142
1.0
295
     0
296
     0
143
0.125
271
     0
272
     9
273
     9
298
     0
  0
MLINESTYLE
  5
1003A
102
{ACAD_REACTORS
330
17
102
}
330
17
100
AcDbMlineStyle
  2
STANDARD
 70
     0
  3

 62
   256
 51
90.0
 52
90.0
 71
     2
 49
0.5
 62
   256
  6
BYLAYER
 49
-0.5
 62
   256
  6
BYLAYER
  0
ACDBPLACEHOLDER
  5
10003
102
{ACAD_REACTORS
330
10002
102
}
330
10002
  0
SCALE
  5
1003C
102
{ACAD_REACTORS
330
1003B
102
}
330
1003B
100
AcDbScale
 70
     0
300
1:1
140
1.0
141
1.0
290
     1
  0
SCALE
  5
1003D
102
{ACAD_REACTORS
330
1003B
102
}
330
1003B
100
AcDbScale
 70
     0
300
1/128" = 1'-0"
140
0.0078125
141
12.0
290
     0
  0
SCALE
  5
1003E
102
{ACAD_REACTORS
330
1003B
102
}
330
1003B
100
AcDbScale
 70
     0
300
1/64" = 1'-0"
140
0.015625
141
12.0
290
     0
  0
SCALE
  5
1003F
102
{ACAD_REACTORS
330
1003B
102
}
330
1003B
100
AcDbScale
 70
     0
300
1/32" = 1'-0"
140
0.03125
141
12.0
290
     0
  0
SCALE
  5
10040
102
{ACAD_REACTORS
330
1003B
102
}
330
1003B
100
AcDbScale
 70
     0
300
1/16" = 1'-0"
140
0.0625
141
12.0
290
     0
  0
SCALE
  5
10041
102
{ACAD_REACTORS
330
1003B
102
}
330
1003B
100
AcDbScale
 70
     0
300
3/32" = 1'-0"
140
0.09375
141
12.0
290
     0
  0
SCALE
  5
10042
102
{ACAD_REACTORS
330
1003B
102
}
330
1003B
100
AcDbScale
 70
     0
300
1/8" = 1'-0"
140
0.125
141
12.0
290
     0
  0
SCALE
  5
10043
102
{ACAD_REACTORS
330
1003B
102
}
330
1003B
100
AcDbScale
 70
     0
300
3/16" = 1'-0"
140
0.1875
141
12.0
290
     0
  0
SCALE
  5
10044
102
{ACAD_REACTORS
330
1003B
102
}
330
1003B
100
AcDbScale
 70
     0
300
1/4" = 1'-0"
140
0.25
141
12.0
290
     0
  0
SCALE
  5
10045
102
{ACAD_REACTORS
330
1003B
102
}
330
1003B
100
AcDbScale
 70
     0
300
3/8" = 1'-0"
140
0.375
141
12.0
290
     0
  0
SCALE
  5
10046
102
{ACAD_REACTORS
330
1003B
102
}
330
1003B
100
AcDbScale
 70
     0
300
1/2" = 1'-0"
140
0.5
141
12.0
290
     0
  0
SCALE
  5
10047
102
{ACAD_REACTORS
330
1003B
102
}
330
1003B
100
AcDbScale
 70
     0
300
3/4" = 1'-0"
140
0.75
141
12.0
290
     0
  0
SCALE
  5
10048
102
{ACAD_REACTORS
330
1003B
102
}
330
1003B
100
AcDbScale
 70
     0
300
1" = 1'-0"
140
1.0
141
12.0
290
     0
  0
SCALE
  5
10049
102
{ACAD_REACTORS
330
1003B
102
}
330
1003B
100
AcDbScale
 70
     0
300
1-1/2" = 1'-0"
140
1.5
141
12.0
290
     0
  0
SCALE
  5
1004A
102
{ACAD_REACTORS
330
1003B
102
}
330
1003B
100
AcDbScale
 70
     0
300
3" = 1'-0"
140
3.0
141
12.0
290
     0
  0
SCALE
  5
1004B
102
{ACAD_REACTORS
330
1003B
102
}
330
1003B
100
AcDbScale
 70
     0
300
6" = 1'-0"
140
6.0
141
12.0
290
     0
  0
SCALE
  5
1004C
102
{ACAD_REACTORS
330
1003B
102
}
330
1003B
100
AcDbScale
 70
     0
300
1'-0" = 1'-0"
140
12.0
141
12.0
290
     0
  0
ACDBSECTIONVIEWSTYLE
  5
10050
102
{ACAD_REACTORS
330
1004F
102
}
330
1004F
100
AcDbModelDocViewStyle
 70
     0
  3
Imperial24
290
     0
300
Imperial24
 90
        0
100
AcDbSectionViewStyle
 70
     0
 71
     0
 90
       78
 71
     1
340
11
 62
   256
 40
0.24
340
0
340
0
 62
   256
 40
0.24
300
I, O, Q, S, X, Z
 40
0.48
 90
        3
 40
0.18
 90
        1
 71
     2
340
10001
 90
       25
 62
   256
340
10001
 90
       50
 62
   256
 40
0.24
 40
0.0
 40
0.24
 71
     3
340
11
 62
   256
 40
0.24
 90
        1
 40
0.75
 90
        1
300
%<\AcVar ViewType \f "%tc1">% %<\AcVar ViewSectionStartId>%-%<\AcVar ViewSectionEndId>%\PSCALE %<\AcVar ViewScale \f "%sn">%
 71
     4
 62
   256
 62
   257
300
ANSI31
 40
1.0
 90
        0
290
     0
290
     0
 90
        6
 40
0.0
 40
1.570796326794896
 40
0.2617993877991494
 40
1.308996938995747
 40
-0.2617993877991494
 40
1.832595714594046
  0
TABLESTYLE
  5
10039
102
{ACAD_XDICTIONARY
360
10084
102
}
102
{ACAD_REACTORS
330
10038
102
}
330
10038
100
AcDbTableStyle
280
     0
  3
Standard
 70
     0
 71
     0
 40
0.06
 41
0.06
280
     0
281
     0
  7
STANDARD
140
0.18
170
     2
 62
     0
 63
     7
283
     0
 90
      512
 91
        0
  1

274
    -2
284
     1
 64
     0
275
    -2
285
     1
 65
     0
276
    -2
286
     1
 66
     0
277
    -2
287
     1
 67
     0
278
    -2
288
     1
 68
     0
279
    -2
289
     1
 69
     0
  7
STANDARD
140
0.25
170
     5
 62
     0
 63
     7
283
     0
 90
      512
 91
        0
  1

274
    -2
284
     1
 64
     0
275
    -2
285
     1
 65
     0
276
    -2
286
     1
 66
     0
277
    -2
287
     1
 67
     0
278
    -2
288
     1
 68
     0
279
    -2
289
     1
 69
     0
  7
STANDARD
140
0.18
170
     5
 62
     0
 63
     7
283
     0
 90
      512
 91
        0
  1

274
    -2
284
     1
 64
     0
275
    -2
285
     1
 65
     0
276
    -2
286
     1
 66
     0
277
    -2
287
     1
 67
     0
278
    -2
288
     1
 68
     0
279
    -2
289
     1
 69
     0
  0
VISUALSTYLE
  5
10023
102
{ACAD_REACTORS
330
1001D
102
}
330
1001D
100
AcDbVisualStyle
  2
2dWireframe
 70
     4
177
     3
291
     0
 70
    58
 90
        0
176
     1
 90
        2
176
     1
 90
        0
176
     1
 90
        0
176
     1
 40
0.6
176
     1
 40
30.0
176
     1
 62
     7
420
 16777215
176
     1
 90
        1
176
     1
 90
        4
176
     1
 62
     7
176
     1
 62
   257
176
     1
 90
        1
176
     1
 90
        1
176
     1
 40
1.0
176
     1
 90
        0
176
     1
 62
   257
176
     1
 40
1.0
176
     1
 90
        1
176
     1
 90
        6
176
     1
 90
        2
176
     1
 62
     7
176
     1
 90
        5
176
     1
 90
        0
176
     1
 90
        0
176
     1
290
     0
176
     1
 90
        1
176
     1
 40
0.0
176
     1
 90
        0
176
     1
290
     1
176
     1
290
     1
176
     1
290
     0
176
     1
290
     0
176
     1
290
     0
176
     1
290
     0
176
     1
290
     0
176
     1
290
     0
176
     1
290
     0
176
     1
 90
       50
176
     1
 40
0.0
176
     1
 40
1.0
176
     1
 90
        0
176
     1
 62
    18
420
        0
176
     1
 90
       50
176
     1
 90
        3
176
     1
 62
     5
420
      255
176
     1
290
     0
176
     1
 90
       50
176
     1
 90
       50
176
     1
 90
       50
176
     1
290
     0
176
     1
 90
       50
176
     1
 62
   256
176
     0
 40
1.0
176
     0
 90
        2
176
     1
  1
strokes_ogs.tif
176
     1
290
     0
176
     1
 40
1.0
176
     1
 40
1.0
176
     1
  0
VISUALSTYLE
  5
10022
102
{ACAD_REACTORS
330
1001D
102
}
330
1001D
100
AcDbVisualStyle
  2
Basic
 70
     7
177
     3
291
     1
 70
    58
 90
        1
176
     1
 90
        0
176
     1
 90
        1
176
     1
 90
        0
176
     1
 40
0.6
176
     1
 40
30.0
176
     1
 62
     7
420
 16777215
176
     1
 90
        0
176
     1
 90
        4
176
     1
 62
     7
176
     1
 62
   257
176
     1
 90
        1
176
     1
 90
        1
176
     1
 40
1.0
176
     1
 90
        8
176
     1
 62
     7
176
     1
 40
1.0
176
     1
 90
        1
176
     1
 90
        6
176
     1
 90
        2
176
     1
 62
     7
176
     1
 90
        5
176
     1
 90
        0
176
     1
 90
        0
176
     1
290
     0
176
     1
 90
        1
176
     1
 40
0.0
176
     1
 90
        0
176
     1
290
     0
176
     1
290
     1
176
     1
290
     1
176
     1
290
     0
176
     1
290
     0
176
     1
290
     0
176
     1
290
     0
176
     1
290
     0
176
     1
290
     0
176
     1
 90
       50
176
     1
 40
0.0
176
     1
 40
1.0
176
     1
 90
        0
176
     1
 62
    18
420
        0
176
     1
 90
       50
176
     1
 90
        3
176
     1
 62
     5
420
      255
176
     1
290
     0
176
     1
 90
       50
176
     1
 90
       50
176
     1
 90
       50
176
     1
290
     0
176
     1
 90
       50
176
     1
 62
   256
176
     0
 40
1.0
176
     0
 90
        2
176
     1
  1
strokes_ogs.tif
176
     1
290
     0
176
     1
 40
1.0
176
     1
 40
1.0
176
     1
  0
VISUALSTYLE
  5
10029
102
{ACAD_REACTORS
330
1001D
102
}
330
1001D
100
AcDbVisualStyle
  2
Brighten
 70
    12
177
     3
291
     1
 70
    58
 90
        2
176
     1
 90
        2
176
     1
 90
        0
176
     1
 90
        0
176
     1
 40
0.6
176
     1
 40
30.0
176
     1
 62
     7
420
 16777215
176
     1
 90
        1
176
     1
 90
        4
176
     1
 62
     7
176
     1
 62
   257
176
     1
 90
        1
176
     1
 90
        1
176
     1
 40
1.0
176
     1
 90
        8
176
     1
 62
     7
176
     1
 40
1.0
176
     1
 90
        1
176
     1
 90
        6
176
     1
 90
        2
176
     1
 62
     7
176
     1
 90
        5
176
     1
 90
        0
176
     1
 90
        0
176
     1
290
     0
176
     1
 90
        1
176
     1
 40
50.0
176
     1
 90
        0
176
     1
290
     0
176
     1
290
     1
176
     1
290
     1
176
     1
290
     0
176
     1
290
     0
176
     1
290
     0
176
     1
290
     0
176
     1
290
     0
176
     1
290
     0
176
     1
 90
       50
176
     1
 40
0.0
176
     1
 40
1.0
176
     1
 90
        0
176
     1
 62
    18
420
        0
176
     1
 90
       50
176
     1
 90
        3
176
     1
 62
     5
420
      255
176
     1
290
     0
176
     1
 90
       50
176
     1
 90
       50
176
     1
 90
       50
176
     1
290
     0
176
     1
 90
       50
176
     1
 62
   256
176
     0
 40
1.0
176
     0
 90
        2
176
     1
  1
strokes_ogs.tif
176
     1
290
     0
176
     1
 40
1.0
176
     1
 40
1.0
176
     1
  0
VISUALSTYLE
  5
1002D
102
{ACAD_REACTORS
330
1001D
102
}
330
1001D
100
AcDbVisualStyle
  2
ColorChange
 70
    16
177
     3
291
     1
 70
    58
 90
        2
176
     1
 90
        2
176
     1
 90
        3
176
     1
 90
        0
176
     1
 40
0.6
176
     1
 40
30.0
176
     1
 62
     8
420
  8421504
176
     1
 90
        1
176
     1
 90
        4
176
     1
 62
     7
176
     1
 62
   257
176
     1
 90
        1
176
     1
 90
        1
176
     1
 40
1.0
176
     1
 90
        8
176
     1
 62
     8
420
  8421504
176
     1
 40
1.0
176
     1
 90
        1
176
     1
 90
        6
176
     1
 90
        2
176
     1
 62
     7
176
     1
 90
        5
176
     1
 90
        0
176
     1
 90
        0
176
     1
290
     0
176
     1
 90
        1
176
     1
 40
0.0
176
     1
 90
        0
176
     1
290
     0
176
     1
290
     1
176
     1
290
     1
176
     1
290
     0
176
     1
290
     0
176
     1
290
     0
176
     1
290
     0
176
     1
290
     0
176
     1
290
     0
176
     1
 90
       50
176
     1
 40
0.0
176
     1
 40
1.0
176
     1
 90
        0
176
     1
 62
    18
420
        0
176
     1
 90
       50
176
     1
 90
        3
176
     1
 62
     5
420
      255
176
     1
290
     0
176
     1
 90
       50
176
     1
 90
       50
176
     1
 90
       50
176
     1
290
     0
176
     1
 90
       50
176
     1
 62
   256
176
     0
 40
1.0
176
     0
 90
        2
176
     1
  1
strokes_ogs.tif
176
     1
290
     0
176
     1
 40
1.0
176
     1
 40
1.0
176
     1
  0
VISUALSTYLE
  5
10026
102
{ACAD_REACTORS
330
1001D
102
}
330
1001D
100
AcDbVisualStyle
  2
Conceptual
 70
     9
177
     3
291
     0
 70
    58
 90
        3
176
     1
 90
        2
176
     1
 90
        0
176
     1
 90
        0
176
     1
 40
0.6
176
     1
 40
30.0
176
     1
 62
     7
420
 16777215
176
     1
 90
        2
176
     1
 90
        2
176
     1
 62
     7
176
     1
 62
   257
176
     1
 90
        1
176
     1
 90
        1
176
     1
 40
179.0
176
     1
 90
        8
176
     1
 62
     7
176
     1
 40
1.0
176
     1
 90
        1
176
     1
 90
        6
176
     1
 90
        2
176
     1
 62
     7
176
     1
 90
        3
176
     1
 90
        0
176
     1
 90
        0
176
     1
290
     0
176
     1
 90
        1
176
     1
 40
0.0
176
     1
 90
        0
176
     1
290
     0
176
     1
290
     1
176
     1
290
     1
176
     1
290
     0
176
     1
290
     0
176
     1
290
     0
176
     1
290
     0
176
     1
290
     0
176
     1
290
     0
176
     1
 90
       50
176
     1
 40
0.0
176
     1
 40
1.0
176
     1
 90
        0
176
     1
 62
    18
420
        0
176
     1
 90
       50
176
     1
 90
        3
176
     1
 62
     5
420
      255
176
     1
290
     0
176
     1
 90
       50
176
     1
 90
       50
176
     1
 90
       50
176
     1
290
     0
176
     1
 90
       50
176
     1
 62
   256
176
     0
 40
1.0
176
     0
 90
        2
176
     1
  1
strokes_ogs.tif
176
     1
290
     0
176
     1
 40
1.0
176
     1
 40
1.0
176
     1
  0
VISUALSTYLE
  5
10028
102
{ACAD_REACTORS
330
1001D
102
}
330
1001D
100
AcDbVisualStyle
  2
Dim
 70
    11
177
     3
291
     1
 70
    58
 90
        2
176
     1
 90
        2
176
     1
 90
        0
176
     1
 90
        0
176
     1
 40
0.6
176
     1
 40
30.0
176
     1
 62
     7
420
 16777215
176
     1
 90
        1
176
     1
 90
        4
176
     1
 62
     7
176
     1
 62
   257
176
     1
 90
        1
176
     1
 90
        1
176
     1
 40
1.0
176
     1
 90
        8
176
     1
 62
     7
176
     1
 40
1.0
176
     1
 90
        1
176
     1
 90
        6
176
     1
 90
        2
176
     1
 62
     7
176
     1
 90
        5
176
     1
 90
        0
176
     1
 90
        0
176
     1
290
     0
176
     1
 90
        1
176
     1
 40
-50.0
176
     1
 90
        0
176
     1
290
     0
176
     1
290
     1
176
     1
290
     1
176
     1
290
     0
176
     1
290
     0
176
     1
290
     0
176
     1
290
     0
176
     1
290
     0
176
     1
290
     0
176
     1
 90
       50
176
     1
 40
0.0
176
     1
 40
1.0
176
     1
 90
        0
176
     1
 62
    18
420
        0
176
     1
 90
       50
176
     1
 90
        3
176
     1
 62
     5
420
      255
176
     1
290
     0
176
     1
 90
       50
176
     1
 90
       50
176
     1
 90
       50
176
     1
290
     0
176
     1
 90
       50
176
     1
 62
   256
176
     0
 40
1.0
176
     0
 90
        2
176
     1
  1
strokes_ogs.tif
176
     1
290
     0
176
     1
 40
1.0
176
     1
 40
1.0
176
     1
  0
VISUALSTYLE
  5
10035
102
{ACAD_REACTORS
330
1001D
102
}
330
1001D
100
AcDbVisualStyle
  2
EdgeColorOff
 70
    22
177
     3
291
     1
 70
    58
 90
        2
176
     0
 90
        2
176
     0
 90
        0
176
     0
 90
        0
176
     0
 40
0.6
176
     0
 40
30.0
176
     0
 62
     7
420
 16777215
176
     0
 90
        1
176
     0
 90
        4
176
     0
 62
     7
176
     0
 62
   257
176
     0
 90
        1
176
     0
 90
        1
176
     0
 40
1.0
176
     0
 90
        8
176
     2
 62
     7
176
     0
 40
1.0
176
     0
 90
        1
176
     0
 90
        6
176
     0
 90
        2
176
     0
 62
     7
176
     0
 90
        5
176
     0
 90
        0
176
     0
 90
        0
176
     0
290
     0
176
     0
 90
        1
176
     0
 40
0.0
176
     0
 90
        0
176
     0
290
     0
176
     1
290
     1
176
     1
290
     1
176
     1
290
     0
176
     1
290
     0
176
     1
290
     0
176
     1
290
     0
176
     1
290
     0
176
     1
290
     0
176
     1
 90
       50
176
     0
 40
0.0
176
     0
 40
1.0
176
     0
 90
        0
176
     0
 62
    18
420
        0
176
     0
 90
       50
176
     0
 90
        3
176
     0
 62
     5
420
      255
176
     0
290
     0
176
     1
 90
       50
176
     0
 90
       50
176
     0
 90
       50
176
     0
290
     0
176
     1
 90
       50
176
     0
 62
   256
176
     0
 40
1.0
176
     0
 90
        2
176
     0
  1
strokes_ogs.tif
176
     0
290
     0
176
     1
 40
1.0
176
     0
 40
1.0
176
     0
  0
VISUALSTYLE
  5
1002C
102
{ACAD_REACTORS
330
1001D
102
}
330
1001D
100
AcDbVisualStyle
  2
Facepattern
 70
    15
177
     3
291
     1
 70
    58
 90
        2
176
     1
 90
        2
176
     1
 90
        0
176
     1
 90
        0
176
     1
 40
0.6
176
     1
 40
30.0
176
     1
 62
     7
420
 16777215
176
     1
 90
        1
176
     1
 90
        4
176
     1
 62
     7
176
     1
 62
   257
176
     1
 90
        1
176
     1
 90
        1
176
     1
 40
1.0
176
     1
 90
        8
176
     1
 62
     7
176
     1
 40
1.0
176
     1
 90
        1
176
     1
 90
        6
176
     1
 90
        2
176
     1
 62
     7
176
     1
 90
        5
176
     1
 90
        0
176
     1
 90
        0
176
     1
290
     0
176
     1
 90
        1
176
     1
 40
0.0
176
     1
 90
        0
176
     1
290
     0
176
     1
290
     1
176
     1
290
     1
176
     1
290
     0
176
     1
290
     0
176
     1
290
     0
176
     1
290
     0
176
     1
290
     0
176
     1
290
     0
176
     1
 90
       50
176
     1
 40
0.0
176
     1
 40
1.0
176
     1
 90
        0
176
     1
 62
    18
420
        0
176
     1
 90
       50
176
     1
 90
        3
176
     1
 62
     5
420
      255
176
     1
290
     0
176
     1
 90
       50
176
     1
 90
       50
176
     1
 90
       50
176
     1
290
     0
176
     1
 90
       50
176
     1
 62
   256
176
     0
 40
1.0
176
     0
 90
        2
176
     1
  1
strokes_ogs.tif
176
     1
290
     0
176
     1
 40
1.0
176
     1
 40
1.0
176
     1
  0
VISUALSTYLE
  5
1001E
102
{ACAD_REACTORS
330
1001D
102
}
330
1001D
100
AcDbVisualStyle
  2
Flat
 70
     0
177
     3
291
     1
 70
    58
 90
        2
176
     1
 90
        1
176
     1
 90
        1
176
     1
 90
        2
176
     1
 40
0.6
176
     1
 40
30.0
176
     1
 62
     7
420
 16777215
176
     1
 90
        0
176
     1
 90
        0
176
     1
 62
     7
176
     1
 62
   257
176
     1
 90
        1
176
     1
 90
        1
176
     1
 40
1.0
176
     1
 90
        8
176
     1
 62
     7
176
     1
 40
1.0
176
     1
 90
        1
176
     1
 90
        6
176
     1
 90
        2
176
     1
 62
     7
176
     1
 90
        5
176
     1
 90
        0
176
     1
 90
        0
176
     1
290
     0
176
     1
 90
       13
176
     1
 40
0.0
176
     1
 90
        0
176
     1
290
     0
176
     1
290
     1
176
     1
290
     1
176
     1
290
     0
176
     1
290
     0
176
     1
290
     0
176
     1
290
     0
176
     1
290
     0
176
     1
290
     0
176
     1
 90
       50
176
     1
 40
0.0
176
     1
 40
1.0
176
     1
 90
        0
176
     1
 62
    18
420
        0
176
     1
 90
       50
176
     1
 90
        3
176
     1
 62
     5
420
      255
176
     1
290
     0
176
     1
 90
       50
176
     1
 90
       50
176
     1
 90
       50
176
     1
290
     0
176
     1
 90
       50
176
     1
 62
   256
176
     0
 40
1.0
176
     0
 90
        2
176
     1
  1
strokes_ogs.tif
176
     1
290
     0
176
     1
 40
1.0
176
     1
 40
1.0
176
     1
  0
VISUALSTYLE
  5
1001F
102
{ACAD_REACTORS
330
1001D
102
}
330
1001D
100
AcDbVisualStyle
  2
FlatWithEdges
 70
     1
177
     3
291
     1
 70
    58
 90
        2
176
     1
 90
        1
176
     1
 90
        1
176
     1
 90
        2
176
     1
 40
0.6
176
     1
 40
30.0
176
     1
 62
     7
420
 16777215
176
     1
 90
        1
176
     1
 90
        0
176
     1
 62
     7
176
     1
 62
   257
176
     1
 90
        1
176
     1
 90
        1
176
     1
 40
1.0
176
     1
 90
        0
176
     1
 62
   257
176
     1
 40
1.0
176
     1
 90
        1
176
     1
 90
        6
176
     1
 90
        2
176
     1
 62
     7
176
     1
 90
        5
176
     1
 90
        0
176
     1
 90
        0
176
     1
290
     0
176
     1
 90
       13
176
     1
 40
0.0
176
     1
 90
        0
176
     1
290
     0
176
     1
290
     1
176
     1
290
     1
176
     1
290
     0
176
     1
290
     0
176
     1
290
     0
176
     1
290
     0
176
     1
290
     0
176
     1
290
     0
176
     1
 90
       50
176
     1
 40
0.0
176
     1
 40
1.0
176
     1
 90
        0
176
     1
 62
    18
420
        0
176
     1
 90
       50
176
     1
 90
        3
176
     1
 62
     5
420
      255
176
     1
290
     0
176
     1
 90
       50
176
     1
 90
       50
176
     1
 90
       50
176
     1
290
     0
176
     1
 90
       50
176
     1
 62
   256
176
     0
 40
1.0
176
     0
 90
        2
176
     1
  1
strokes_ogs.tif
176
     1
290
     0
176
     1
 40
1.0
176
     1
 40
1.0
176
     1
  0
VISUALSTYLE
  5
10020
102
{ACAD_REACTORS
330
1001D
102
}
330
1001D
100
AcDbVisualStyle
  2
Gouraud
 70
     2
177
     3
291
     1
 70
    58
 90
        2
176
     1
 90
        2
176
     1
 90
        1
176
     1
 90
        2
176
     1
 40
0.6
176
     1
 40
30.0
176
     1
 62
     7
420
 16777215
176
     1
 90
        0
176
     1
 90
        0
176
     1
 62
     7
176
     1
 62
   257
176
     1
 90
        1
176
     1
 90
        1
176
     1
 40
1.0
176
     1
 90
        0
176
     1
 62
     7
176
     1
 40
1.0
176
     1
 90
        1
176
     1
 90
        6
176
     1
 90
        2
176
     1
 62
     7
176
     1
 90
        5
176
     1
 90
        0
176
     1
 90
        0
176
     1
290
     0
176
     1
 90
       13
176
     1
 40
0.0
176
     1
 90
        0
176
     1
290
     0
176
     1
290
     1
176
     1
290
     1
176
     1
290
     0
176
     1
290
     0
176
     1
290
     0
176
     1
290
     0
176
     1
290
     0
176
     1
290
     0
176
     1
 90
       50
176
     1
 40
0.0
176
     1
 40
1.0
176
     1
 90
        0
176
     1
 62
    18
420
        0
176
     1
 90
       50
176
     1
 90
        3
176
     1
 62
     5
420
      255
176
     1
290
     0
176
     1
 90
       50
176
     1
 90
       50
176
     1
 90
       50
176
     1
290
     0
176
     1
 90
       50
176
     1
 62
   256
176
     0
 40
1.0
176
     0
 90
        2
176
     1
  1
strokes_ogs.tif
176
     1
290
     0
176
     1
 40
1.0
176
     1
 40
1.0
176
     1
  0
VISUALSTYLE
  5
10021
102
{ACAD_REACTORS
330
1001D
102
}
330
1001D
100
AcDbVisualStyle
  2
GouraudWithEdges
 70
     3
177
     3
291
     1
 70
    58
 90
        2
176
     1
 90
        2
176
     1
 90
        1
176
     1
 90
        2
176
     1
 40
0.6
176
     1
 40
30.0
176
     1
 62
     7
420
 16777215
176
     1
 90
        1
176
     1
 90
        0
176
     1
 62
     7
176
     1
 62
   257
176
     1
 90
        1
176
     1
 90
        1
176
     1
 40
1.0
176
     1
 90
        0
176
     1
 62
   257
176
     1
 40
1.0
176
     1
 90
        1
176
     1
 90
        6
176
     1
 90
        2
176
     1
 62
     7
176
     1
 90
        5
176
     1
 90
        0
176
     1
 90
        0
176
     1
290
     0
176
     1
 90
       13
176
     1
 40
0.0
176
     1
 90
        0
176
     1
290
     0
176
     1
290
     1
176
     1
290
     1
176
     1
290
     0
176
     1
290
     0
176
     1
290
     0
176
     1
290
     0
176
     1
290
     0
176
     1
290
     0
176
     1
 90
       50
176
     1
 40
0.0
176
     1
 40
1.0
176
     1
 90
        0
176
     1
 62
    18
420
        0
176
     1
 90
       50
176
     1
 90
        3
176
     1
 62
     5
420
      255
176
     1
290
     0
176
     1
 90
       50
176
     1
 90
       50
176
     1
 90
       50
176
     1
290
     0
176
     1
 90
       50
176
     1
 62
   256
176
     0
 40
1.0
176
     0
 90
        2
176
     1
  1
strokes_ogs.tif
176
     1
290
     0
176
     1
 40
1.0
176
     1
 40
1.0
176
     1
  0
VISUALSTYLE
  5
10025
102
{ACAD_REACTORS
330
1001D
102
}
330
1001D
100
AcDbVisualStyle
  2
Hidden
 70
     6
177
     3
291
     0
 70
    58
 90
        1
176
     1
 90
        2
176
     1
 90
        2
176
     1
 90
        0
176
     1
 40
0.6
176
     1
 40
30.0
176
     1
 62
     7
420
 16777215
176
     1
 90
        2
176
     1
 90
        2
176
     1
 62
     7
176
     1
 62
   257
176
     1
 90
        2
176
     1
 90
        1
176
     1
 40
40.0
176
     1
 90
        0
176
     1
 62
   257
176
     1
 40
1.0
176
     1
 90
        1
176
     1
 90
        6
176
     1
 90
        2
176
     1
 62
     7
176
     1
 90
        3
176
     1
 90
        0
176
     1
 90
        0
176
     1
290
     0
176
     1
 90
        1
176
     1
 40
0.0
176
     1
 90
        0
176
     1
290
     0
176
     1
290
     1
176
     1
290
     1
176
     1
290
     0
176
     1
290
     0
176
     1
290
     0
176
     1
290
     0
176
     1
290
     0
176
     1
290
     0
176
     1
 90
       50
176
     1
 40
0.0
176
     1
 40
1.0
176
     1
 90
        0
176
     1
 62
    18
420
        0
176
     1
 90
       50
176
     1
 90
        3
176
     1
 62
     5
420
      255
176
     1
290
     0
176
     1
 90
       50
176
     1
 90
       50
176
     1
 90
       50
176
     1
290
     0
176
     1
 90
       50
176
     1
 62
   256
176
     0
 40
1.0
176
     0
 90
        2
176
     1
  1
strokes_ogs.tif
176
     1
290
     0
176
     1
 40
1.0
176
     1
 40
1.0
176
     1
  0
VISUALSTYLE
  5
10033
102
{ACAD_REACTORS
330
1001D
102
}
330
1001D
100
AcDbVisualStyle
  2
JitterOff
 70
    20
177
     3
291
     1
 70
    58
 90
        2
176
     0
 90
        2
176
     0
 90
        0
176
     0
 90
        0
176
     0
 40
0.6
176
     0
 40
30.0
176
     0
 62
     7
420
 16777215
176
     0
 90
        1
176
     0
 90
        4
176
     0
 62
     7
176
     0
 62
   257
176
     0
 90
        1
176
     0
 90
        1
176
     0
 40
1.0
176
     0
 90
       10
176
     2
 62
     7
176
     0
 40
1.0
176
     0
 90
        1
176
     0
 90
        6
176
     0
 90
        2
176
     0
 62
     7
176
     0
 90
        5
176
     0
 90
        0
176
     0
 90
        0
176
     0
290
     0
176
     0
 90
        1
176
     0
 40
0.0
176
     0
 90
        0
176
     0
290
     0
176
     1
290
     1
176
     1
290
     1
176
     1
290
     0
176
     1
290
     0
176
     1
290
     0
176
     1
290
     0
176
     1
290
     0
176
     1
290
     0
176
     1
 90
       50
176
     0
 40
0.0
176
     0
 40
1.0
176
     0
 90
        0
176
     0
 62
    18
420
        0
176
     0
 90
       50
176
     0
 90
        3
176
     0
 62
     5
420
      255
176
     0
290
     0
176
     1
 90
       50
176
     0
 90
       50
176
     0
 90
       50
176
     0
290
     0
176
     1
 90
       50
176
     0
 62
   256
176
     0
 40
1.0
176
     0
 90
        2
176
     0
  1
strokes_ogs.tif
176
     0
290
     0
176
     1
 40
1.0
176
     0
 40
1.0
176
     0
  0
VISUALSTYLE
  5
1002B
102
{ACAD_REACTORS
330
1001D
102
}
330
1001D
100
AcDbVisualStyle
  2
Linepattern
 70
    14
177
     3
291
     1
 70
    58
 90
        2
176
     1
 90
        2
176
     1
 90
        0
176
     1
 90
        0
176
     1
 40
0.6
176
     1
 40
30.0
176
     1
 62
     7
420
 16777215
176
     1
 90
        1
176
     1
 90
        4
176
     1
 62
     7
176
     1
 62
   257
176
     1
 90
        7
176
     1
 90
        7
176
     1
 40
1.0
176
     1
 90
        8
176
     1
 62
     7
176
     1
 40
1.0
176
     1
 90
        1
176
     1
 90
        6
176
     1
 90
        2
176
     1
 62
     7
176
     1
 90
        5
176
     1
 90
        0
176
     1
 90
        0
176
     1
290
     0
176
     1
 90
        1
176
     1
 40
0.0
176
     1
 90
        0
176
     1
290
     0
176
     1
290
     1
176
     1
290
     1
176
     1
290
     0
176
     1
290
     0
176
     1
290
     0
176
     1
290
     0
176
     1
290
     0
176
     1
290
     0
176
     1
 90
       50
176
     1
 40
0.0
176
     1
 40
1.0
176
     1
 90
        0
176
     1
 62
    18
420
        0
176
     1
 90
       50
176
     1
 90
        3
176
     1
 62
     5
420
      255
176
     1
290
     0
176
     1
 90
       50
176
     1
 90
       50
176
     1
 90
       50
176
     1
290
     0
176
     1
 90
       50
176
     1
 62
   256
176
     0
 40
1.0
176
     0
 90
        2
176
     1
  1
strokes_ogs.tif
176
     1
290
     0
176
     1
 40
1.0
176
     1
 40
1.0
176
     1
  0
VISUALSTYLE
  5
10034
102
{ACAD_REACTORS
330
1001D
102
}
330
1001D
100
AcDbVisualStyle
  2
OverhangOff
 70
    21
177
     3
291
     1
 70
    58
 90
        2
176
     0
 90
        2
176
     0
 90
        0
176
     0
 90
        0
176
     0
 40
0.6
176
     0
 40
30.0
176
     0
 62
     7
420
 16777215
176
     0
 90
        1
176
     0
 90
        4
176
     0
 62
     7
176
     0
 62
   257
176
     0
 90
        1
176
     0
 90
        1
176
     0
 40
1.0
176
     0
 90
        9
176
     2
 62
     7
176
     0
 40
1.0
176
     0
 90
        1
176
     0
 90
        6
176
     0
 90
        2
176
     0
 62
     7
176
     0
 90
        5
176
     0
 90
        0
176
     0
 90
        0
176
     0
290
     0
176
     0
 90
        1
176
     0
 40
0.0
176
     0
 90
        0
176
     0
290
     0
176
     1
290
     1
176
     1
290
     1
176
     1
290
     0
176
     1
290
     0
176
     1
290
     0
176
     1
290
     0
176
     1
290
     0
176
     1
290
     0
176
     1
 90
       50
176
     0
 40
0.0
176
     0
 40
1.0
176
     0
 90
        0
176
     0
 62
    18
420
        0
176
     0
 90
       50
176
     0
 90
        3
176
     0
 62
     5
420
      255
176
     0
290
     0
176
     1
 90
       50
176
     0
 90
       50
176
     0
 90
       50
176
     0
290
     0
176
     1
 90
       50
176
     0
 62
   256
176
     0
 40
1.0
176
     0
 90
        2
176
     0
  1
strokes_ogs.tif
176
     0
290
     0
176
     1
 40
1.0
176
     0
 40
1.0
176
     0
  0
VISUALSTYLE
  5
10027
102
{ACAD_REACTORS
330
1001D
102
}
330
1001D
100
AcDbVisualStyle
  2
Realistic
 70
     8
177
     3
291
     0
 70
    58
 90
        2
176
     1
 90
        3
176
     1
 90
        0
176
     1
 90
        2
176
     1
 40
0.6
176
     1
 40
30.0
176
     1
 62
     7
420
 16777215
176
     1
 90
        0
176
     1
 90
        0
176
     1
 62
     7
176
     1
 62
   257
176
     1
 90
        1
176
     1
 90
        1
176
     1
 40
1.0
176
     1
 90
        8
176
     1
 62
   257
176
     1
 40
1.0
176
     1
 90
        1
176
     1
 90
        6
176
     1
 90
        2
176
     1
 62
     7
176
     1
 90
        3
176
     1
 90
        0
176
     1
 90
        0
176
     1
290
     0
176
     1
 90
       13
176
     1
 40
0.0
176
     1
 90
        0
176
     1
290
     0
176
     1
290
     1
176
     1
290
     1
176
     1
290
     0
176
     1
290
     0
176
     1
290
     0
176
     1
290
     0
176
     1
290
     0
176
     1
290
     0
176
     1
 90
       50
176
     1
 40
0.0
176
     1
 40
1.0
176
     1
 90
        0
176
     1
 62
    18
420
        0
176
     1
 90
       50
176
     1
 90
        3
176
     1
 62
     5
420
      255
176
     1
290
     0
176
     1
 90
       50
176
     1
 90
       50
176
     1
 90
       50
176
     1
290
     0
176
     1
 90
       50
176
     1
 62
   256
176
     0
 40
1.0
176
     0
 90
        2
176
     1
  1
strokes_ogs.tif
176
     1
290
     0
176
     1
 40
1.0
176
     1
 40
1.0
176
     1
  0
VISUALSTYLE
  5
10032
102
{ACAD_REACTORS
330
1001D
102
}
330
1001D
100
AcDbVisualStyle
  2
Shaded
 70
    27
177
     3
291
     0
 70
    58
 90
        2
176
     1
 90
        2
176
     1
 90
        1
176
     1
 90
        2
176
     1
 40
0.6
176
     1
 40
30.0
176
     1
 62
     7
420
 16777215
176
     1
 90
        0
176
     1
 90
        4
176
     1
 62
     7
176
     1
 62
   257
176
     1
 90
        1
176
     1
 90
        1
176
     1
 40
1.0
176
     1
 90
        8
176
     1
 62
   257
176
     1
 40
1.0
176
     1
 90
        1
176
     1
 90
        6
176
     1
 90
        2
176
     1
 62
     8
420
  7895160
176
     1
 90
        3
176
     1
 90
        0
176
     1
 90
        0
176
     1
290
     0
176
     1
 90
        5
176
     1
 40
0.0
176
     1
 90
        0
176
     1
290
     0
176
     1
290
     1
176
     1
290
     1
176
     1
290
     0
176
     1
290
     0
176
     1
290
     0
176
     1
290
     0
176
     1
290
     0
176
     1
290
     0
176
     1
 90
       50
176
     1
 40
0.0
176
     1
 40
1.0
176
     1
 90
        0
176
     1
 62
    18
420
        0
176
     1
 90
       50
176
     1
 90
        3
176
     1
 62
     5
420
      255
176
     1
290
     0
176
     1
 90
       50
176
     1
 90
       50
176
     1
 90
       50
176
     1
290
     0
176
     1
 90
       50
176
     1
 62
   256
176
     0
 40
1.0
176
     0
 90
        2
176
     1
  1
strokes_ogs.tif
176
     1
290
     0
176
     1
 40
1.0
176
     1
 40
1.0
176
     1
  0
VISUALSTYLE
  5
10031
102
{ACAD_REACTORS
330
1001D
102
}
330
1001D
100
AcDbVisualStyle
  2
Shaded with edges
 70
    26
177
     3
291
     0
 70
    58
 90
        2
176
     1
 90
        2
176
     1
 90
        1
176
     1
 90
        2
176
     1
 40
0.6
176
     1
 40
30.0
176
     1
 62
     7
420
 16777215
176
     1
 90
        1
176
     1
 90
        2
176
     1
 62
     7
176
     1
 62
   257
176
     1
 90
        2
176
     1
 90
        1
176
     1
 40
1.0
176
     1
 90
        8
176
     1
 62
   257
176
     1
 40
1.0
176
     1
 90
        1
176
     1
 90
        6
176
     1
 90
        2
176
     1
 62
     7
176
     1
 90
        3
176
     1
 90
        0
176
     1
 90
        0
176
     1
290
     0
176
     1
 90
        5
176
     1
 40
0.0
176
     1
 90
        0
176
     1
290
     0
176
     1
290
     1
176
     1
290
     1
176
     1
290
     0
176
     1
290
     0
176
     1
290
     0
176
     1
290
     0
176
     1
290
     0
176
     1
290
     0
176
     1
 90
       50
176
     1
 40
0.0
176
     1
 40
1.0
176
     1
 90
        0
176
     1
 62
    18
420
        0
176
     1
 90
       50
176
     1
 90
        3
176
     1
 62
     5
420
      255
176
     1
290
     0
176
     1
 90
       50
176
     1
 90
       50
176
     1
 90
       50
176
     1
290
     0
176
     1
 90
       50
176
     1
 62
   256
176
     0
 40
1.0
176
     0
 90
        2
176
     1
  1
strokes_ogs.tif
176
     1
290
     0
176
     1
 40
1.0
176
     1
 40
1.0
176
     1
  0
VISUALSTYLE
  5
1002E
102
{ACAD_REACTORS
330
1001D
102
}
330
1001D
100
AcDbVisualStyle
  2
Shades of Gray
 70
    23
177
     3
291
     0
 70
    58
 90
        2
176
     1
 90
        2
176
     1
 90
        3
176
     1
 90
        0
176
     1
 40
0.6
176
     1
 40
30.0
176
     1
 62
     7
420
 16777215
176
     1
 90
        2
176
     1
 90
        2
176
     1
 62
     7
176
     1
 62
     7
176
     1
 90
        1
176
     1
 90
        1
176
     1
 40
40.0
176
     1
 90
        8
176
     1
 62
     7
176
     1
 40
1.0
176
     1
 90
        1
176
     1
 90
        6
176
     1
 90
        2
176
     1
 62
     7
176
     1
 90
        3
176
     1
 90
        0
176
     1
 90
        0
176
     1
290
     0
176
     1
 90
        1
176
     1
 40
0.0
176
     1
 90
        0
176
     1
290
     0
176
     1
290
     1
176
     1
290
     1
176
     1
290
     0
176
     1
290
     0
176
     1
290
     0
176
     1
290
     0
176
     1
290
     0
176
     1
290
     0
176
     1
 90
       50
176
     1
 40
0.0
176
     1
 40
1.0
176
     1
 90
        0
176
     1
 62
    18
420
        0
176
     1
 90
       50
176
     1
 90
        3
176
     1
 62
     5
420
      255
176
     1
290
     0
176
     1
 90
       50
176
     1
 90
       50
176
     1
 90
       50
176
     1
290
     0
176
     1
 90
       50
176
     1
 62
   256
176
     0
 40
1.0
176
     0
 90
        2
176
     1
  1
strokes_ogs.tif
176
     1
290
     0
176
     1
 40
1.0
176
     1
 40
1.0
176
     1
  0
VISUALSTYLE
  5
1002F
102
{ACAD_REACTORS
330
1001D
102
}
330
1001D
100
AcDbVisualStyle
  2
Sketchy
 70
    24
177
     3
291
     0
 70
    58
 90
        1
176
     1
 90
        2
176
     1
 90
        2
176
     1
 90
        0
176
     1
 40
0.6
176
     1
 40
30.0
176
     1
 62
     7
420
 16777215
176
     1
 90
        2
176
     1
 90
        2
176
     1
 62
     7
176
     1
 62
     7
176
     1
 90
        1
176
     1
 90
        1
176
     1
 40
40.0
176
     1
 90
       11
176
     1
 62
     7
176
     1
 40
1.0
176
     1
 90
        1
176
     1
 90
        6
176
     1
 90
        2
176
     1
 62
     7
176
     1
 90
        6
176
     1
 90
        0
176
     1
 90
        0
176
     1
290
     0
176
     1
 90
        1
176
     1
 40
0.0
176
     1
 90
        0
176
     1
290
     0
176
     1
290
     1
176
     1
290
     1
176
     1
290
     0
176
     1
290
     0
176
     1
290
     0
176
     1
290
     0
176
     1
290
     0
176
     1
290
     0
176
     1
 90
       50
176
     1
 40
0.0
176
     1
 40
1.0
176
     1
 90
        0
176
     1
 62
    18
420
        0
176
     1
 90
       50
176
     1
 90
        3
176
     1
 62
     5
420
      255
176
     1
290
     0
176
     1
 90
       50
176
     1
 90
       50
176
     1
 90
       50
176
     1
290
     0
176
     1
 90
       50
176
     1
 62
   256
176
     0
 40
1.0
176
     0
 90
        2
176
     1
  1
strokes_ogs.tif
176
     1
290
     0
176
     1
 40
1.0
176
     1
 40
1.0
176
     1
  0
VISUALSTYLE
  5
1002A
102
{ACAD_REACTORS
330
1001D
102
}
330
1001D
100
AcDbVisualStyle
  2
Thicken
 70
    13
177
     3
291
     1
 70
    58
 90
        2
176
     1
 90
        2
176
     1
 90
        0
176
     1
 90
        0
176
     1
 40
0.6
176
     1
 40
30.0
176
     1
 62
     7
420
 16777215
176
     1
 90
        1
176
     1
 90
        4
176
     1
 62
     7
176
     1
 62
   257
176
     1
 90
        1
176
     1
 90
        1
176
     1
 40
1.0
176
     1
 90
       12
176
     1
 62
     7
176
     1
 40
1.0
176
     1
 90
        1
176
     1
 90
        6
176
     1
 90
        2
176
     1
 62
     7
176
     1
 90
        5
176
     1
 90
        0
176
     1
 90
        0
176
     1
290
     0
176
     1
 90
        1
176
     1
 40
0.0
176
     1
 90
        0
176
     1
290
     0
176
     1
290
     1
176
     1
290
     1
176
     1
290
     0
176
     1
290
     0
176
     1
290
     0
176
     1
290
     0
176
     1
290
     0
176
     1
290
     0
176
     1
 90
       50
176
     1
 40
0.0
176
     1
 40
1.0
176
     1
 90
        0
176
     1
 62
    18
420
        0
176
     1
 90
       50
176
     1
 90
        3
176
     1
 62
     5
420
      255
176
     1
290
     0
176
     1
 90
       50
176
     1
 90
       50
176
     1
 90
       50
176
     1
290
     0
176
     1
 90
       50
176
     1
 62
   256
176
     0
 40
1.0
176
     0
 90
        2
176
     1
  1
strokes_ogs.tif
176
     1
290
     0
176
     1
 40
1.0
176
     1
 40
1.0
176
     1
  0
VISUALSTYLE
  5
10024
102
{ACAD_REACTORS
330
1001D
102
}
330
1001D
100
AcDbVisualStyle
  2
Wireframe
 70
     5
177
     3
291
     0
 70
    58
 90
        0
176
     1
 90
        2
176
     1
 90
        0
176
     1
 90
        0
176
     1
 40
0.6
176
     1
 40
30.0
176
     1
 62
     7
420
 16777215
176
     1
 90
        1
176
     1
 90
        4
176
     1
 62
     7
176
     1
 62
   257
176
     1
 90
        1
176
     1
 90
        1
176
     1
 40
1.0
176
     1
 90
        0
176
     1
 62
   257
176
     1
 40
1.0
176
     1
 90
        1
176
     1
 90
        6
176
     1
 90
        2
176
     1
 62
     7
176
     1
 90
        3
176
     1
 90
        0
176
     1
 90
        0
176
     1
290
     0
176
     1
 90
        1
176
     1
 40
0.0
176
     1
 90
        0
176
     1
290
     0
176
     1
290
     1
176
     1
290
     1
176
     1
290
     0
176
     1
290
     0
176
     1
290
     0
176
     1
290
     0
176
     1
290
     0
176
     1
290
     0
176
     1
 90
       50
176
     1
 40
0.0
176
     1
 40
1.0
176
     1
 90
        0
176
     1
 62
    18
420
        0
176
     1
 90
       50
176
     1
 90
        3
176
     1
 62
     5
420
      255
176
     1
290
     0
176
     1
 90
       50
176
     1
 90
       50
176
     1
 90
       50
176
     1
290
     0
176
     1
 90
       50
176
     1
 62
   256
176
     0
 40
1.0
176
     0
 90
        2
176
     1
  1
strokes_ogs.tif
176
     1
290
     0
176
     1
 40
1.0
176
     1
 40
1.0
176
     1
  0
VISUALSTYLE
  5
10030
102
{ACAD_REACTORS
330
1001D
102
}
330
1001D
100
AcDbVisualStyle
  2
X-Ray
 70
    25
177
     3
291
     0
 70
    58
 90
        2
176
     1
 90
        2
176
     1
 90
        1
176
     1
 90
        1
176
     1
 40
0.5
176
     1
 40
30.0
176
     1
 62
     7
420
 16777215
176
     1
 90
        1
176
     1
 90
        0
176
     1
 62
     7
176
     1
 62
   257
176
     1
 90
        1
176
     1
 90
        1
176
     1
 40
1.0
176
     1
 90
        8
176
     1
 62
     7
176
     1
 40
1.0
176
     1
 90
        1
176
     1
 90
        6
176
     1
 90
        2
176
     1
 62
     7
176
     1
 90
        3
176
     1
 90
        0
176
     1
 90
        0
176
     1
290
     0
176
     1
 90
       13
176
     1
 40
0.0
176
     1
 90
        0
176
     1
290
     0
176
     1
290
     1
176
     1
290
     1
176
     1
290
     0
176
     1
290
     0
176
     1
290
     0
176
     1
290
     0
176
     1
290
     0
176
     1
290
     0
176
     1
 90
       50
176
     1
 40
0.0
176
     1
 40
1.0
176
     1
 90
        0
176
     1
 62
    18
420
        0
176
     1
 90
       50
176
     1
 90
        3
176
     1
 62
     5
420
      255
176
     1
290
     0
176
     1
 90
       50
176
     1
 90
       50
176
     1
 90
       50
176
     1
290
     0
176
     1
 90
       50
176
     1
 62
   256
176
     0
 40
1.0
176
     0
 90
        2
176
     1
  1
strokes_ogs.tif
176
     1
290
     0
176
     1
 40
1.0
176
     1
 40
1.0
176
     1
  0
DICTIONARYVAR
  5
10080
102
{ACAD_REACTORS
330
1007A
102
}
330
1007A
100
DictionaryVariables
280
     0
  1
1:1
  0
DICTIONARYVAR
  5
1007C
102
{ACAD_REACTORS
330
1007A
102
}
330
1007A
100
DictionaryVariables
280
     0
  1
STANDARD
  0
DICTIONARYVAR
  5
1007B
102
{ACAD_REACTORS
330
1007A
102
}
330
1007A
100
DictionaryVariables
280
     0
  1
STANDARD
  0
DICTIONARYVAR
  5
1007D
102
{ACAD_REACTORS
330
1007A
102
}
330
1007A
100
DictionaryVariables
280
     0
  1
Imperial24
  0
DICTIONARYVAR
  5
1007E
102
{ACAD_REACTORS
330
1007A
102
}
330
1007A
100
DictionaryVariables
280
     0
  1
Imperial24
  0
DICTIONARYVAR
  5
10082
102
{ACAD_REACTORS
330
1007A
102
}
330
1007A
100
DictionaryVariables
280
     0
  1
1
  0
DICTIONARYVAR
  5
10083
102
{ACAD_REACTORS
330
1007A
102
}
330
1007A
100
DictionaryVariables
280
     0
  1
15
  0
DICTIONARYVAR
  5
10081
102
{ACAD_REACTORS
330
1007A
102
}
330
1007A
100
DictionaryVariables
280
     0
  1
0
  0
DICTIONARYVAR
  5
1007F
102
{ACAD_REACTORS
330
1007A
102
}
330
1007A
100
DictionaryVariables
280
     0
  1
0
  0
DICTIONARY
  5
1000E
330
1000D
100
AcDbDictionary
280
     1
281
     1
  3
BUMPTILE
360
10010
  3
DIFFUSETILE
360
1000F
  3
OPACITYTILE
360
10013
  3
REFLECTIONTILE
360
10012
  3
REFRACTIONTILE
360
10014
  3
SPECULARTILE
360
10011
  0
DICTIONARY
  5
10006
330
10005
100
AcDbDictionary
280
     1
281
     1
  3
BUMPTILE
360
10008
  3
DIFFUSETILE
360
10007
  3
OPACITYTILE
360
1000B
  3
REFLECTIONTILE
360
1000A
  3
REFRACTIONTILE
360
1000C
  3
SPECULARTILE
360
10009
  0
DICTIONARY
  5
10016
330
10015
100
AcDbDictionary
280
     1
281
     1
  3
BUMPTILE
360
10018
  3
DIFFUSETILE
360
10017
  3
OPACITYTILE
360
1001B
  3
REFLECTIONTILE
360
1001A
  3
REFRACTIONTILE
360
1001C
  3
SPECULARTILE
360
10019
  0
DICTIONARY
  5
10084
330
10039
100
AcDbDictionary
280
     1
281
     1
  3
ACAD_ROUNDTRIP_2008_TABLESTYLE_CELLSTYLEMAP
360
10085
  0
XRECORD
  5
10010
102
{ACAD_REACTORS
330
1000E
102
}
330
1000E
100
AcDbXrecord
280
     1
270
     1
271
     1
  0
XRECORD
  5
1000F
102
{ACAD_REACTORS
330
1000E
102
}
330
1000E
100
AcDbXrecord
280
     1
270
     1
271
     1
  0
XRECORD
  5
10013
102
{ACAD_REACTORS
330
1000E
102
}
330
1000E
100
AcDbXrecord
280
     1
270
     1
271
     1
  0
XRECORD
  5
10012
102
{ACAD_REACTORS
330
1000E
102
}
330
1000E
100
AcDbXrecord
280
     1
270
     1
271
     1
  0
XRECORD
  5
10014
102
{ACAD_REACTORS
330
1000E
102
}
330
1000E
100
AcDbXrecord
280
     1
270
     1
271
     1
  0
XRECORD
  5
10011
102
{ACAD_REACTORS
330
1000E
102
}
330
1000E
100
AcDbXrecord
280
     1
270
     1
271
     1
  0
XRECORD
  5
10008
102
{ACAD_REACTORS
330
10006
102
}
330
10006
100
AcDbXrecord
280
     1
270
     1
271
     1
  0
XRECORD
  5
10007
102
{ACAD_REACTORS
330
10006
102
}
330
10006
100
AcDbXrecord
280
     1
270
     1
271
     1
  0
XRECORD
  5
1000B
102
{ACAD_REACTORS
330
10006
102
}
330
10006
100
AcDbXrecord
280
     1
270
     1
271
     1
  0
XRECORD
  5
1000A
102
{ACAD_REACTORS
330
10006
102
}
330
10006
100
AcDbXrecord
280
     1
270
     1
271
     1
  0
XRECORD
  5
1000C
102
{ACAD_REACTORS
330
10006
102
}
330
10006
100
AcDbXrecord
280
     1
270
     1
271
     1
  0
XRECORD
  5
10009
102
{ACAD_REACTORS
330
10006
102
}
330
10006
100
AcDbXrecord
280
     1
270
     1
271
     1
  0
XRECORD
  5
10018
102
{ACAD_REACTORS
330
10016
102
}
330
10016
100
AcDbXrecord
280
     1
270
     1
271
     1
  0
XRECORD
  5
10017
102
{ACAD_REACTORS
330
10016
102
}
330
10016
100
AcDbXrecord
280
     1
270
     1
271
     1
  0
XRECORD
  5
1001B
102
{ACAD_REACTORS
330
10016
102
}
330
10016
100
AcDbXrecord
280
     1
270
     1
271
     1
  0
XRECORD
  5
1001A
102
{ACAD_REACTORS
330
10016
102
}
330
10016
100
AcDbXrecord
280
     1
270
     1
271
     1
  0
XRECORD
  5
1001C
102
{ACAD_REACTORS
330
10016
102
}
330
10016
100
AcDbXrecord
280
     1
270
     1
271
     1
  0
XRECORD
  5
10019
102
{ACAD_REACTORS
330
10016
102
}
330
10016
100
AcDbXrecord
280
     1
270
     1
271
     1
  0
CELLSTYLEMAP
  5
10085
102
{ACAD_REACTORS
330
10084
102
}
330
10084
100
AcDbCellStyleMap
 90
        3
300
CELLSTYLE
  1
TABLEFORMAT_BEGIN
 90
        5
170
     1
 91
        0
 92
    32768
 62
   257
 93
        1
300
CONTENTFORMAT
  1
CONTENTFORMAT_BEGIN
 90
        0
 91
        0
 92
      512
 93
        0
300

 40
0.0
140
1.0
 94
        5
 62
     0
340
11
144
0.25
309
CONTENTFORMAT_END
171
     0
 94
        0
309
TABLEFORMAT_END
  1
CELLSTYLE_BEGIN
 90
        1
 91
        1
300
_TITLE
309
CELLSTYLE_END
300
CELLSTYLE
  1
TABLEFORMAT_BEGIN
 90
        5
170
     1
 91
        0
 92
        0
 62
   257
 93
        1
300
CONTENTFORMAT
  1
CONTENTFORMAT_BEGIN
 90
        0
 91
        0
 92
      512
 93
        0
300

 40
0.0
140
1.0
 94
        5
 62
     0
340
11
144
0.18
309
CONTENTFORMAT_END
171
     0
 94
        0
309
TABLEFORMAT_END
  1
CELLSTYLE_BEGIN
 90
        2
 91
        1
300
_HEADER
309
CELLSTYLE_END
300
CELLSTYLE
  1
TABLEFORMAT_BEGIN
 90
        5
170
     1
 91
        0
 92
        0
 62
   257
 93
        1
300
CONTENTFORMAT
  1
CONTENTFORMAT_BEGIN
 90
        0
 91
        0
 92
      512
 93
        0
300

 40
0.0
140
1.0
 94
        2
 62
     0
340
11
144
0.18
309
CONTENTFORMAT_END
171
     0
 94
        0
309
TABLEFORMAT_END
  1
CELLSTYLE_BEGIN
 90
        3
 91
        2
300
_DATA
309
CELLSTYLE_END
  0
ENDSEC
  0
EOF
